<svg xmlns="http://www.w3.org/2000/svg" width="162.051" height="93.792" viewBox="0 0 162.051 93.792"><g transform="translate(4 5.37)"><path d="M59.921,70.836a27.5,27.5,0,1,0-27.5,27.5A27.5,27.5,0,0,0,59.921,70.836Z" transform="translate(-4.923 -13.913)" fill="none" stroke="#fff" stroke-linecap="round" stroke-linejoin="round" stroke-width="8"/><path d="M189.241,70.836a27.5,27.5,0,1,0-27.5,27.5A27.5,27.5,0,0,0,189.241,70.836Z" transform="translate(-35.19 -13.913)" fill="none" stroke="#fff" stroke-linecap="round" stroke-linejoin="round" stroke-width="8"/><line y1="56.923" x2="28.621" transform="translate(27.499 0)" fill="none" stroke="#fff" stroke-linecap="round" stroke-linejoin="round" stroke-width="8"/><line y1="56.923" x2="28.621" transform="translate(76.779 0)" fill="none" stroke="#fff" stroke-linecap="round" stroke-linejoin="round" stroke-width="8"/><line x2="20.212" transform="translate(94.98)" fill="none" stroke="#fff" stroke-linecap="round" stroke-linejoin="round" stroke-width="8"/><line x2="20.212" transform="translate(35.907)" fill="none" stroke="#fff" stroke-linecap="round" stroke-linejoin="round" stroke-width="8"/><path d="M146.41,66.246H96.551L68.736,23.724h49.28Z" transform="translate(-19.858 -9.322)" fill="none" stroke="#fff" stroke-linecap="round" stroke-linejoin="round" stroke-width="8"/></g></svg>