<svg xmlns="http://www.w3.org/2000/svg" width="117.807" height="125.942" viewBox="0 0 117.807 125.942"><g transform="translate(4 4)"><path d="M110.044,46.851a15.946,15.946,0,0,0-11.312-4.685V38.5A33.578,33.578,0,0,0,65.154,4.922H38.5A33.578,33.578,0,0,0,4.922,38.5v4.956A33.578,33.578,0,0,0,38.5,77.034H65.154a33.433,33.433,0,0,0,21.8-8.05c.152.165.305.33.466.49a16,16,0,0,0,22.624-22.624Z" transform="translate(-4.922 -4.922)" fill="none" stroke="#fff" stroke-linecap="round" stroke-linejoin="round" stroke-width="8"/><line y1="41.604" x2="33.675" transform="translate(48.823 64.553)" fill="none" stroke="#fff" stroke-linecap="round" stroke-linejoin="round" stroke-width="8"/><line x1="14.495" y1="12.424" transform="translate(34.328 83.691)" fill="none" stroke="#fff" stroke-linecap="round" stroke-linejoin="round" stroke-width="8"/><line y2="45.829" transform="translate(48.823 72.112)" fill="none" stroke="#fff" stroke-linecap="round" stroke-linejoin="round" stroke-width="8"/></g></svg>