<svg xmlns="http://www.w3.org/2000/svg" xmlns:xlink="http://www.w3.org/1999/xlink" width="156.28" height="122.562" viewBox="0 0 156.28 122.562"><defs><clipPath id="a"><path d="M0-26H156.28V-148.565H0Z" transform="translate(0 148.565)" fill="#fff"/></clipPath></defs><g transform="translate(0 0)" clip-path="url(#a)"><g transform="translate(49.641 0.001)"><path d="M-12.088-6.5c-.059-.475-.091-.952-.181-1.424a7.522,7.522,0,0,1-.241-1.644c0-.068.029-.168-.071-.19s-.138.073-.17.147a4.323,4.323,0,0,1-1.072,1.459,3.336,3.336,0,0,0-.394.427c-.147.2-.252.217-.422.047a4.53,4.53,0,0,1-.867-1.115c-.22-.426-.3-.9-.476-1.332-.031-.077-.034-.174-.14-.181s-.119.08-.158.139a7.609,7.609,0,0,0-1.107,2.352c-.1.387-.159.4-.454.15a.659.659,0,0,0-.109-.08A2.507,2.507,0,0,1-19.156-9c-.026-.06-.049-.135-.134-.13s-.111.07-.141.13a1.108,1.108,0,0,0-.071.164,4.384,4.384,0,0,0-.184,2.042A5.683,5.683,0,0,0-18.159-3.6c.525.56,1.1,1.077,1.65,1.608a.623.623,0,0,1,.218.518c-.04.494-.049.991-.049,1.486a.317.317,0,0,1-.2.344c-.086.029-.1.122-.122.2A6.765,6.765,0,0,1-18.055,2.69c-.075.1-.152.111-.236.006-.121-.151-.255-.294-.371-.449A6.069,6.069,0,0,1-19.309.963c-.031-.071-.025-.186-.139-.178s-.111.12-.127.191a1.762,1.762,0,0,1-.231.559,4.967,4.967,0,0,0-.686,2.349,5.862,5.862,0,0,0,.54,2.735c.229.547.229.563-.37.564h-2.465c-.327,0-.346-.021-.346-.347q0-6.783,0-13.566a2.771,2.771,0,0,1,.1-.775,2.429,2.429,0,0,1,.889-1.284c.1-.079.175-.156.124-.252-.023-.042-.145-.054-.233-.054-2.17,0-4.368,0-6.54,0-.17,0-.222.12-.134.245a.794.794,0,0,0,.107.116,2.892,2.892,0,0,1,.9,2.158c.015,1.386,0,3.261,0,4.664l-11.57-11.571c.114,0,.238-.007.273-.014.544-.092,1.091-.184,1.636-.288a23.042,23.042,0,0,0,3.354-.933,11.835,11.835,0,0,0,2.643-1.3A1.411,1.411,0,0,0-31-16.7a38.247,38.247,0,0,1,1.775-3.74c.544-1.087,1.116-2.161,1.684-3.236a.257.257,0,0,0-.117-.393,1.813,1.813,0,0,0-.875-.259,2.568,2.568,0,0,0-1.945.782.353.353,0,0,1-.35.129.924.924,0,0,0-1.153.8c-.026.1-.033.207-.052.31-.047.286-.045.606-.427.681a4.29,4.29,0,0,1-1.025.1A.6.6,0,0,1-34-21.863c-.094-.254.073-.373.246-.491a.585.585,0,0,1,.069-.058.92.92,0,0,0,.111-1.473.615.615,0,0,1-.191-.482.942.942,0,0,0-.68-.952.973.973,0,0,0-1.2.4,1.83,1.83,0,0,1-.527.57.977.977,0,0,0-.436.846,1.527,1.527,0,0,0,.184.684c.175.365.087.618-.254.687a2.553,2.553,0,0,1-2.052-.421c-.236-.17-.417-.519-.27-.743.129-.193.243-.4.359-.6a2.451,2.451,0,0,0,.273-1.32,2.287,2.287,0,0,0-.546-1.308c-.1-.13-.248-.232-.273-.407a3.037,3.037,0,0,0-.555-1.386.289.289,0,0,1-.024-.329,2.493,2.493,0,0,1,1.685-1.346,4.832,4.832,0,0,1,2.36,0,1.01,1.01,0,0,0,.552-.02c.129-.045.254-.1.383-.131a14.971,14.971,0,0,1,1.834-.337,5.121,5.121,0,0,1,2,.144,12.063,12.063,0,0,1,1.772.644.526.526,0,0,0,.309.041c.191-.029.381-.072.572-.1a3.329,3.329,0,0,1,1.185-.1,7.343,7.343,0,0,1,2.072.791c.486.254.969.511,1.456.762.062.031.141.095.2.009A.185.185,0,0,0-23.4-28.5c-.026-.038-.048-.078-.07-.116a8.41,8.41,0,0,0-1.6-1.794,17.938,17.938,0,0,0-2.541-1.928A18.208,18.208,0,0,0-31.818-34.4a2.543,2.543,0,0,1-1.133-.521c-.091-.087-.194-.038-.258.08a.589.589,0,0,0-.036.308.322.322,0,0,1-.21.339c-.236.093-.47.2-.708.285a12.178,12.178,0,0,1-2.147.652,5.818,5.818,0,0,1-1.511.193,1.68,1.68,0,0,1-.96-.266.431.431,0,0,1-.024-.742,1.1,1.1,0,0,0,.478-1.169,1.391,1.391,0,0,0-.554-.825,2.5,2.5,0,0,1-.751-.91c-.035-.069-.079-.146-.165-.134s-.122.111-.133.189c-.054.356-.114.711-.141,1.068-.041.516-.092.575-.6.575-.474,0-.493-.031-.547-.518-.045-.394-.12-.784-.177-1.176-.012-.072-.032-.135-.113-.147a.136.136,0,0,0-.144.087.691.691,0,0,0-.082.133,1.691,1.691,0,0,1-.706.873,1.167,1.167,0,0,0,.01,1.99.287.287,0,0,1,.141.38.689.689,0,0,1-.423.468,2.857,2.857,0,0,1-.926.141,6.726,6.726,0,0,1-1.68-.28,15.222,15.222,0,0,1-2.15-.719c-.353-.138-.571-.3-.58-.7-.006-.216-.172-.288-.318-.138a1.769,1.769,0,0,1-.838.405A15.891,15.891,0,0,0-52.934-32.8a19.041,19.041,0,0,0-2.155,1.429c-.406.331-.808.667-1.2,1.016a7.984,7.984,0,0,0-1.534,1.786c-.046.076-.109.166-.031.247s.153.012.229-.017a8.879,8.879,0,0,0,.978-.5c.54-.281,1.078-.559,1.644-.787a3.146,3.146,0,0,1,1.286-.271,7.219,7.219,0,0,1,1.236.221.7.7,0,0,0,.46-.041,9.835,9.835,0,0,1,1.665-.61,4.122,4.122,0,0,1,1.236-.2c.313.02.629.033.941.064a8.082,8.082,0,0,1,2.015.44,1.075,1.075,0,0,0,.6.057,6.7,6.7,0,0,1,1.352-.135,3.407,3.407,0,0,1,1.766.446,2.275,2.275,0,0,1,.929,1.036.3.3,0,0,1-.061.353,2.315,2.315,0,0,0-.466,1.059,1.872,1.872,0,0,1-.4.809,2.123,2.123,0,0,0-.477,1.285,2.956,2.956,0,0,0,.582,1.718.477.477,0,0,1,.048.509.989.989,0,0,1-.35.405,2.747,2.747,0,0,1-2,.307.359.359,0,0,1-.257-.471,3.009,3.009,0,0,1,.141-.332,1.078,1.078,0,0,0-.248-1.3,3.758,3.758,0,0,1-.705-.771.951.951,0,0,0-1.058-.3.874.874,0,0,0-.723.811,1.185,1.185,0,0,1-.268.707.841.841,0,0,0-.086,1.1,1.5,1.5,0,0,0,.4.392c.128.094.255.209.218.393a.439.439,0,0,1-.348.343,2.754,2.754,0,0,1-.912,0,1.269,1.269,0,0,1-.414-.1.441.441,0,0,1-.27-.359c-.024-.131-.033-.266-.052-.4-.1-.717-.573-1.12-1.2-1a.3.3,0,0,1-.316-.1,2.234,2.234,0,0,0-.718-.533,2.282,2.282,0,0,0-1.935-.112c-.405.178-.461.268-.228.627.052.08.075.179.12.266.533,1.027,1.072,2.05,1.6,3.079.268.52.518,1.049.791,1.567a15.107,15.107,0,0,1,.827,1.843,1.316,1.316,0,0,0,.363.559A7.535,7.535,0,0,0-47.677-15a20.1,20.1,0,0,0,3.566,1.086c.629.127,1.259.268,1.9.366.07.012.306.031.5.045L-53.292-1.921c0-1.565-.011-3.527.008-5.017a1.8,1.8,0,0,1,.679-1.5,3.345,3.345,0,0,0,.411-.384c.046-.046.112-.1.068-.2s-.108-.068-.174-.07-.135,0-.2,0H-58.6c-.113,0-.226,0-.338,0-.219,0-.286.115-.165.3a2.743,2.743,0,0,0,.3.332,2.516,2.516,0,0,1,.715,1.746c.017,5.192.01,10.383.012,15.576a.705.705,0,0,1-.084.318,3.145,3.145,0,0,1-.637.837c-.04.043-.1.086-.067.155s.089.072.153.073l.226,0c2.7,0,5.394-.015,8.093.012A1.046,1.046,0,0,0-49.349,9.7,13.32,13.32,0,0,1-48.41,8.38l7.8,7.8L-27.913,3.49c0,1.454,0,3.432,0,4.865a1.53,1.53,0,0,1-.165.695,2.275,2.275,0,0,1-.72.95c-.163.1-.056.243.035.243l8.049,0c.078,0,.184-.039.224.055s-.067.124-.111.179c-.294.363-.663.655-.973,1A15.125,15.125,0,0,1-22.9,12.823c-.107.095-.2.134-.255-.059-.052-.173-.163-.211-.325-.107a11.4,11.4,0,0,1-1.683.8c-.2.085-.252.021-.23-.162a9.049,9.049,0,0,0,.043-1.2,2.86,2.86,0,0,0-.2-1.009c-.09-.243-.189-.263-.372-.081s-.329.37-.511.538c-.307.285-.638.546-.948.83a14.531,14.531,0,0,0-1.094,1.125,7.534,7.534,0,0,0-1.144,1.824,4.943,4.943,0,0,0-.454,2.116.807.807,0,0,1-.537.792,15.225,15.225,0,0,1-2.91,1.133,16.068,16.068,0,0,1-1.619.372c-.064.011-.142.035-.184-.04s.015-.11.053-.157a5.657,5.657,0,0,0,.686-1.105,1.553,1.553,0,0,0,.187-.822,3.089,3.089,0,0,0-.653-1.744.6.6,0,0,0-.65-.266,6.928,6.928,0,0,0-2.817,1.585,7.741,7.741,0,0,0-1.693,2.341c-.092.19-.2.331-.448.263a.365.365,0,0,1-.252-.232,8.022,8.022,0,0,0-1.26-1.939,7.068,7.068,0,0,0-3.194-2.066.667.667,0,0,0-.756.242,4.263,4.263,0,0,0-.441.782,2.231,2.231,0,0,0,.229,2.242,3,3,0,0,0,.482.678.119.119,0,0,1,.038.16c-.038.054-.09.022-.143.012-.316-.069-.631-.13-.944-.2a15.528,15.528,0,0,1-3.688-1.353c-.167-.085-.348-.166-.405-.367a4.691,4.691,0,0,1-.22-.984,5.136,5.136,0,0,0-.262-1.317,7.783,7.783,0,0,0-2.274-3.168A15.034,15.034,0,0,1-55.1,11.014c-.269-.319-.363-.295-.514.087a1.829,1.829,0,0,0-.057.191,4.417,4.417,0,0,0-.049,1.963c.03.143-.016.23-.176.152a11.79,11.79,0,0,1-1.714-.827c-.231-.164-.283-.141-.366.141-.037.129-.077.171-.19.06-.306-.3-.628-.583-.926-.889-.238-.248-.458-.514-.708-.752a20.888,20.888,0,0,1-1.652-1.788c-.239-.288-.488-.569-.7-.877a.3.3,0,0,1,.01-.423,4.731,4.731,0,0,0,.377-.446,5.826,5.826,0,0,0,1.108-4.1,4.843,4.843,0,0,0-.392-1.562A7.623,7.623,0,0,1-61.561.9c-.025-.082-.018-.2-.134-.2s-.1.13-.132.208a5.01,5.01,0,0,1-.991,1.725c-.095.1-.153.1-.23-.007-.129-.166-.257-.331-.4-.489a4.589,4.589,0,0,1-1.02-1.7c-.013-.045-.031-.109-.062-.117-.307-.1-.242-.36-.249-.579a12.286,12.286,0,0,0-.045-1.256.47.47,0,0,1,.106-.423c.61-.6,1.233-1.19,1.827-1.805a5.69,5.69,0,0,0,1.217-2.109,5.034,5.034,0,0,0,.235-2.039,3.168,3.168,0,0,0-.282-1.15c-.031-.068-.064-.167-.168-.161s-.1.1-.137.164a2.376,2.376,0,0,1-.713.938c-.177.126-.367.233-.543.361-.365.264-.375.27-.488-.177A7.815,7.815,0,0,0-64.83-10.2c-.053-.084-.1-.212-.226-.187s-.1.153-.144.236a.167.167,0,0,0-.012.045,4.63,4.63,0,0,1-.964,2.029,2.477,2.477,0,0,1-.414.407A.137.137,0,0,1-66.8-7.7c-.266-.3-.551-.592-.836-.878a4.082,4.082,0,0,1-.775-1.181c-.031-.064-.062-.158-.157-.13s-.088.117-.078.192a2.854,2.854,0,0,1-.08.975,14.656,14.656,0,0,0-.327,2.22,4.7,4.7,0,0,0,.589,2.731,3.828,3.828,0,0,0,1.357,1.44c.423.238.532.679.715,1.075a21.284,21.284,0,0,0,.175,3.191c.012.1.111.257,0,.3s-.223-.092-.313-.177c-.16-.149-.3-.314-.471-.455-.15-.128-.253-.088-.29.093a9.051,9.051,0,0,0-.191,2.84,4.375,4.375,0,0,0,1.19,2.465,5.239,5.239,0,0,0,2.137,1.377.673.673,0,0,1,.309.175c.465.589.95,1.161,1.416,1.748.592.748,1.243,1.443,1.865,2.163.237.273.5.518.741.79a18.459,18.459,0,0,0,1.313,1.327,1.359,1.359,0,0,1,.521.681,3.5,3.5,0,0,0,1.175,1.849c.069.062.209.087.168.209-.033.1-.158.1-.25.12a3.693,3.693,0,0,0-1.11.428,5.116,5.116,0,0,0-1,.633c-.168.163-.161.191.053.262.347.118.71.191,1.048.342a17.052,17.052,0,0,0,2.392.972,4.2,4.2,0,0,0,1.977.121,11.822,11.822,0,0,0,1.9-.6c.092-.035.185-.087.28-.039a11.4,11.4,0,0,0,1.251.511c.633.25,1.26.522,1.907.733a18.582,18.582,0,0,0,2.39.627c.611.112,1.219.234,1.839.305a2.38,2.38,0,0,1,.78.084,7.131,7.131,0,0,0,.91.33c.186.059.166.12.049.239a5.508,5.508,0,0,1-1.608,1.064,10.473,10.473,0,0,1-3.094.818c-.744.1-1.475.263-2.223.318a.113.113,0,0,0-.118.084c-.016.056.036.075.071.1a1.973,1.973,0,0,0,.572.257,8.494,8.494,0,0,0,2.1.532c.066.007.15-.02.181.06s-.051.1-.083.148a9.365,9.365,0,0,0-1.077,1.788,2.258,2.258,0,0,0-.21.868c.007.2.1.258.274.158.233-.135.464-.278.7-.416a21.931,21.931,0,0,0,2.08-1.459c.61-.474,1.217-.95,1.8-1.463.374-.333.755-.66,1.109-1.016.322-.323.688-.6,1.025-.909.091-.082.135-.07.22,0,.523.44,1.016.916,1.517,1.378.456.424.934.826,1.416,1.218.46.37.95.706,1.41,1.078a15.765,15.765,0,0,0,1.688,1.2c.262.16.522.325.787.483.07.041.156.079.229.012a.223.223,0,0,0,.062-.208,3.819,3.819,0,0,0-.5-1.388,12.049,12.049,0,0,0-.817-1.237c-.089-.116-.1-.195.093-.208a5.758,5.758,0,0,0,1.016-.181,7.2,7.2,0,0,0,1.589-.557c.055-.027.145-.061.133-.134s-.1-.093-.181-.1c-.326-.04-.653-.077-.978-.13-.879-.149-1.762-.252-2.631-.454a7.728,7.728,0,0,1-3.052-1.433c-.109-.084-.273-.17-.258-.32s.21-.145.333-.18a5.367,5.367,0,0,1,.868-.3c.46-.054.929-.068,1.384-.152a20.889,20.889,0,0,0,3.528-.879c1.028-.377,2.058-.742,3.061-1.179a.3.3,0,0,1,.257,0,9.707,9.707,0,0,0,1.207.428,4.868,4.868,0,0,0,1.808.255,7.667,7.667,0,0,0,2.114-.587,14.516,14.516,0,0,1,2.122-.86c.1-.023.261-.02.277-.15s-.12-.211-.214-.268a6.616,6.616,0,0,0-2-.939c-.074-.015-.177-.016-.2-.116s.058-.166.129-.219a3.637,3.637,0,0,0,1.227-1.92.705.705,0,0,1,.205-.367c.209-.179.424-.356.622-.549.33-.32.651-.648.957-.991.473-.532.966-1.049,1.445-1.577.822-.907,1.581-1.865,2.345-2.819a2.132,2.132,0,0,1,.975-.686,3.4,3.4,0,0,0,.573-.26,4.891,4.891,0,0,0,1.5-1.331,4.379,4.379,0,0,0,.791-1.653,6.615,6.615,0,0,0,.068-1.967,5.445,5.445,0,0,0-.209-1.284c-.063-.191-.125-.214-.277-.08l-.5.454c-.076.069-.173.187-.257.144-.109-.054-.054-.205-.038-.31.085-.6.135-1.206.164-1.812.02-.42,0-.845,0-1.266a.541.541,0,0,1,.08-.346,3.661,3.661,0,0,0,.295-.53.457.457,0,0,1,.184-.223,3.164,3.164,0,0,0,1.153-.988,3.682,3.682,0,0,0,.78-1.528A5.773,5.773,0,0,0-12.088-6.5M-28.727-30.51c.133-.393.461-.493.836-.53a3.365,3.365,0,0,1,1.565.332,5.511,5.511,0,0,1,1.648,1.115,3.946,3.946,0,0,1,.32.371c-.466-.165-.866-.441-1.317-.607a5.373,5.373,0,0,0-1.818-.469,3.685,3.685,0,0,0-.908.153c-.128.032-.285.09-.384-.012s.02-.239.059-.351m-6.027-.284A4.024,4.024,0,0,1-32.835-33a1.28,1.28,0,0,1,1.57.25,11.976,11.976,0,0,1,1.95,2.4c.027.045.049.091.092.172A8.159,8.159,0,0,0-31.5-30.91a7.529,7.529,0,0,0-1.251-.046,11.968,11.968,0,0,0-1.881.305c-.179.032-.161-.032-.118-.143m-4.688.805a10.9,10.9,0,0,0,.259-2.249c.007-.177.058-.275.28-.21a8.389,8.389,0,0,1,2.086.972,4.469,4.469,0,0,1,.962.736c.059.065.138.119.134.244a7.054,7.054,0,0,0-2.583.072,2.727,2.727,0,0,0-.846.407c-.057.036-.109.079-.169.111a.137.137,0,0,1-.1.017c-.038-.016-.028-.063-.018-.1M-52.6-30.135a11.242,11.242,0,0,0-1.124-.2,1.046,1.046,0,0,0-.379.012,8.166,8.166,0,0,0-2.323.87c-.083.049-.175.083-.3.144.039-.271.241-.38.378-.5a4.7,4.7,0,0,1,.716-.567,5.391,5.391,0,0,1,1.723-.691,1.359,1.359,0,0,1,1.226.268,1.069,1.069,0,0,1,.247.495c.043.125-.032.191-.16.161m6.082-.515c-.063.077-.264-.023-.4-.059a7.339,7.339,0,0,0-2.02-.27,6.389,6.389,0,0,0-2.508.531c-.178.079-.361.14-.589.228A10.418,10.418,0,0,1-50.7-32,9.036,9.036,0,0,1-49.8-32.9a1.246,1.246,0,0,1,1.375-.084,4.139,4.139,0,0,1,1.8,1.911c.067.122.2.3.1.427m4.626.761c-.1.065-.215-.119-.33-.183a3.735,3.735,0,0,0-1.529-.469,16.043,16.043,0,0,0-1.828.021,4.529,4.529,0,0,1,1.017-.893,10.392,10.392,0,0,1,1.489-.779,4.091,4.091,0,0,1,.722-.239c.148-.043.235.016.24.193.019.66.1,1.313.181,1.963.015.135.187.293.038.386M-54.986.789l2.962-2.962V3.751Zm3.608,6.394c-.52,0-1.039-.007-1.561,0a.263.263,0,0,1-.306-.3c0-.95-.013-2.364-.014-3.356l1.234,1.235,2.416,2.416h-1.77m.629-26.547c-.284-.492-.514-1.013-.776-1.517-.407-.78-.82-1.552-1.229-2.328a.526.526,0,0,1-.085-.231c0-.1.03-.166.148-.184a1.892,1.892,0,0,1,1.691.8c.1.167.2.236.4.118a.451.451,0,0,1,.68.276,1.288,1.288,0,0,1,.08.373.989.989,0,0,0,.686.959,3.386,3.386,0,0,0,1.433.233A1.2,1.2,0,0,0-46.7-21.6a.941.941,0,0,0-.074-.983,3.005,3.005,0,0,0-.324-.309c-.246-.263-.261-.484.006-.714a.444.444,0,0,0,.172-.411,1.868,1.868,0,0,1,0-.2.419.419,0,0,1,.325-.432.46.46,0,0,1,.593.273.944.944,0,0,0,.442.511.534.534,0,0,1,.217.662,2.486,2.486,0,0,0-.215.891.646.646,0,0,0,.28.557,1.387,1.387,0,0,0,.75.268,3.87,3.87,0,0,0,.962,0,2.741,2.741,0,0,0,1.68-.822,1.417,1.417,0,0,0,.019-1.7,1.528,1.528,0,0,1,.021-2.125,2.658,2.658,0,0,0,.486-1.115,1.283,1.283,0,0,1,.492-.728.438.438,0,0,1,.557.08,1.682,1.682,0,0,1,.48.927,1.778,1.778,0,0,0,.439.885,1.584,1.584,0,0,1-.065,2.152,1.06,1.06,0,0,0-.2,1.052,1.716,1.716,0,0,0,1.166,1.178,3.23,3.23,0,0,0,1.294.258,2.316,2.316,0,0,0,.96-.158c.566-.238.624-.62.454-1.184-.034-.115-.092-.222-.135-.334a.584.584,0,0,1,.295-.779.577.577,0,0,0,.316-.379.493.493,0,0,1,.686-.343c.26.075.264.3.28.486.015.236.009.438.238.608a.38.38,0,0,1-.011.6,1.762,1.762,0,0,1-.192.192,1,1,0,0,0-.01,1.511,1.356,1.356,0,0,0,1.254.388,5.186,5.186,0,0,0,1.027-.239.965.965,0,0,0,.625-.855,1.682,1.682,0,0,1,.1-.526.471.471,0,0,1,.619-.256c.283.124.32.116.495-.127a1.874,1.874,0,0,1,1.555-.767c.276-.009.331.087.208.328-.436.841-.865,1.684-1.316,2.518-.251.468-.465.955-.72,1.422-.089.167-.15.177-.3.046a3.714,3.714,0,0,0-1.45-.741c-.8-.238-1.6-.467-2.41-.64-.885-.189-1.782-.323-2.682-.436s-1.793-.137-2.691-.2a18.594,18.594,0,0,0-2.047.025A27.824,27.824,0,0,0-44.967-21a25.857,25.857,0,0,0-2.642.529,11.749,11.749,0,0,0-2.1.654,2.511,2.511,0,0,0-.77.5c-.118.121-.184.106-.27-.041m.882,2.041c-.173-.4-.33-.8-.471-1.213-.05-.145.082-.25.184-.337a2.016,2.016,0,0,1,.6-.356A24.358,24.358,0,0,1-45.4-20.334c.893-.167,1.8-.223,2.692-.334a6.365,6.365,0,0,1,1.282-.06c.684-.007,1.32-.02,1.957.017.573.034,1.147.067,1.72.144.45.059.909.084,1.362.151.681.1,1.351.253,2.024.407a21.477,21.477,0,0,1,2.728.818,2.368,2.368,0,0,1,.588.37.361.361,0,0,1,.108.483c-.143.3-.252.61-.364.92s-.2.356-.483.181a5.515,5.515,0,0,0-1.534-.57c-.766-.209-1.539-.391-2.321-.526-.8-.136-1.6-.257-2.4-.357-.631-.079-1.263-.175-1.9-.2a8.811,8.811,0,0,0-1.681.015,8.409,8.409,0,0,1-1.006.095c-.408.012-.8.109-1.205.151-.705.073-1.4.214-2.1.338-.825.147-1.64.348-2.449.572a3.48,3.48,0,0,0-1.13.485.214.214,0,0,1-.363-.091m5.626-.464c-.486.086-.984.106-1.464.21-.4.087-.8.175-1.2.269s-.79.166-1.176.291c-.195.061-.37.163-.565.218a.364.364,0,0,0-.155.645c.029.034.057.069.093.115-.116.07-.2,0-.279-.034a1.527,1.527,0,0,1-.377-.245c-.243-.185-.224-.4.049-.543a7.011,7.011,0,0,1,1.518-.551c.653-.161,1.315-.294,1.975-.434.754-.159,1.516-.271,2.281-.357.8-.09,1.6-.156,2.4-.187a19.836,19.836,0,0,1,2.477.1,29.145,29.145,0,0,1,3.729.549,15.912,15.912,0,0,1,2.746.752.768.768,0,0,1,.488.37.185.185,0,0,1,.015.172,1.261,1.261,0,0,1-.84.457c.059-.07.1-.115.132-.163a.38.38,0,0,0-.2-.624,16.638,16.638,0,0,0-2.47-.65c-.924-.187-1.849-.348-2.788-.443a21.4,21.4,0,0,0-2.977-.172,25.711,25.711,0,0,0-3.4.256m-1.28,28.042L-48.7,7.076V-5.5l3.179-3.179Zm6.5,3.325-1.59,1.59-1.59-1.59V-12l1.59-1.59,1.59,1.59Zm6.5-6.5-3.179,3.179V-8.677L-32.514-5.5Zm3.325-3.325V-2.174L-26.227.789ZM-67.172-6.314a3.264,3.264,0,0,0-.169,1.149.2.2,0,0,1-.062.181,1.173,1.173,0,0,1-.22-.655c-.068-.426-.121-.858-.187-1.287A2,2,0,0,0-67.9-7.2c-.019-.063-.049-.125-.12-.1a.128.128,0,0,0-.074.151c.078.382.1.771.142,1.157a.839.839,0,0,1,.021.179,5.231,5.231,0,0,0,.259,2.109,1.576,1.576,0,0,1-.52-.73,3.926,3.926,0,0,1-.382-1.944,10.815,10.815,0,0,1,.188-1.606c.02-.087.027-.217.143-.233s.134.1.191.166c.168.183.352.352.519.535a1.107,1.107,0,0,1,.36,1.205M-63.6-4.526A4.741,4.741,0,0,0-62.686-5.8a3.666,3.666,0,0,0,.251-.789c.014-.06.033-.148-.049-.179s-.124.039-.158.115a3.238,3.238,0,0,1-.728.988c-.048.043-.092.115-.171.073s-.064-.117-.051-.183a2.408,2.408,0,0,0,.018-.527,1.02,1.02,0,0,1,.511-.885c.279-.191.577-.346.843-.554.159-.12.252-.053.262.16a4.229,4.229,0,0,1-.451,2.039,5.484,5.484,0,0,1-1.054,1.548,4.546,4.546,0,0,1-.454.354l-.049-.034c.138-.279.119-.618.367-.853M-66.207-2.38l-.053.019a2.821,2.821,0,0,1-.412-.979A6.72,6.72,0,0,1-66.579-6.3,2.507,2.507,0,0,1-66-7.283,7.475,7.475,0,0,0-64.939-9a2.815,2.815,0,0,1,.534.975,4.626,4.626,0,0,1,.287,2.159,7.826,7.826,0,0,1-.6,2.543,4.63,4.63,0,0,1-.533.882c-.1.142-.215.124-.283-.04a2.172,2.172,0,0,1-.119-1.261c.149-.8.328-1.6.488-2.4a3.807,3.807,0,0,0,.023-.764c0-.064-.02-.127-.093-.131s-.063.053-.068.094a18.217,18.217,0,0,1-.714,2.527,6.264,6.264,0,0,0-.262,1.318,4.754,4.754,0,0,0,.072.71m1.2,9.682c-.042.044-.1.012-.144-.015a3.538,3.538,0,0,1-.63-.506,3.845,3.845,0,0,1-1.243-2.116,4.543,4.543,0,0,1,.008-1.524c.017-.1.015-.195.031-.29.026-.165.163-.222.272-.1.248.29.483.592.714.9a.894.894,0,0,1,.095.48,3.327,3.327,0,0,1,.049.805,3.7,3.7,0,0,1-.5-1c-.048-.125-.045-.345-.21-.323s-.094.229-.086.346a3.959,3.959,0,0,0,.817,2.2c.264.346.517.7.8,1.027.03.034.065.08.028.118m1.829-.211c-.044.148-.073.354-.229.383s-.2-.179-.268-.295a2.521,2.521,0,0,1-.284-.986,18.784,18.784,0,0,1-.093-2.4A2.889,2.889,0,0,0-64.21,3c-.023-.075-.064-.181-.16-.163s-.084.135-.073.21a16.057,16.057,0,0,1,.04,1.826c.011.331-.053.658-.049.988s.035.63.061.943c0,.052.039.115-.022.139s-.088-.042-.121-.079a2.134,2.134,0,0,1-.412-.718A5.71,5.71,0,0,1-65.4,3.936a5.076,5.076,0,0,1,.435-2.006,2.082,2.082,0,0,1,.165-.343c.137-.194.242-.2.347.016a4.171,4.171,0,0,0,.356.54,7.617,7.617,0,0,1,.78,1.125,3.868,3.868,0,0,1,.419,1.44,9.159,9.159,0,0,1-.283,2.383m.547.474c-.092-.045-.062-.136-.043-.219a4.532,4.532,0,0,1,.539-1.2,4.116,4.116,0,0,0,.58-2.719,2.557,2.557,0,0,0-.075-.42c-.016-.055-.048-.12-.127-.1s-.063.08-.063.13c0,.218-.007.436,0,.655a3.311,3.311,0,0,1-.288,1.351c-.026.06-.048.143-.133.133s-.084-.089-.092-.157a6.117,6.117,0,0,0-.3-1.495c-.04-.1.015-.172.067-.246A11.487,11.487,0,0,0-61.768,2c.024-.045.036-.116.094-.116.074,0,.082.08.1.131a4.895,4.895,0,0,1,.48,2.11,5.264,5.264,0,0,1-.823,2.76,6.755,6.755,0,0,1-.506.594c-.054.061-.129.125-.214.081m9.159,11.962a3.288,3.288,0,0,1-2.622-.111c-.624-.278-1.244-.563-1.864-.843-.156-.071-.043-.135.017-.167a6.052,6.052,0,0,1,.587-.289,5.019,5.019,0,0,1,1.281-.318,1.108,1.108,0,0,1,.518.132c.563.205,1.137.384,1.685.624a.425.425,0,0,1,.205.143,4.351,4.351,0,0,1-1.621-.172,7.139,7.139,0,0,0-1.876-.17c-.069,0-.171-.021-.165.1,0,.1.087.111.167.112a6.559,6.559,0,0,1,1.423.186c.357.083.71.191,1.062.29a6.127,6.127,0,0,0,1.208.257,1.3,1.3,0,0,1,.224.066c-.043.121-.146.134-.229.167m-2.938-4.368c.12.079.239.155.361.229a5.76,5.76,0,0,1,1.134.92c.564.563,1.114,1.141,1.732,1.647a.242.242,0,0,1,.124.167,3.89,3.89,0,0,1-.786-.168,11.334,11.334,0,0,1-2.441-1.077A2.912,2.912,0,0,1-57.548,15.1a4.671,4.671,0,0,1-.033-1.384c0-.243.083-.3.314-.219a9.582,9.582,0,0,1,1.781.8,9.693,9.693,0,0,1,2.168,1.8A7.638,7.638,0,0,1-52.3,17.446c.04.068.071.144.12.252a3.571,3.571,0,0,1-1.61-.815,10.418,10.418,0,0,1-.966-.874,4.835,4.835,0,0,0-1.463-.99.675.675,0,0,0-.1-.045c-.052-.013-.113-.02-.145.032s0,.117.054.153m4.848,1.7c-.061.013-.082-.049-.108-.1-.188-.332-.318-.692-.527-1.016a6.956,6.956,0,0,0-.914-1.162q-.658-.647-1.264-1.348c-.041-.049-.088-.13-.161-.1s-.058.132-.035.2a2.6,2.6,0,0,0,.725.959,3.352,3.352,0,0,1,.775,1.078,13.655,13.655,0,0,1-1.278-.989,1.6,1.6,0,0,0-.216-.161,1.3,1.3,0,0,1-.63-1.007,3.948,3.948,0,0,1-.129-1.044.7.7,0,0,1,.012-.178c.024-.067.02-.163.1-.191s.132.052.184.1c.619.572,1.239,1.139,1.851,1.715a5.514,5.514,0,0,1,1.353,1.939,3.848,3.848,0,0,1,.3,1.165c0,.051.026.121-.042.137m8.137,1.818a7.585,7.585,0,0,0-2.1-1.148,2.82,2.82,0,0,1-.322-.157c-.3-.149-.351-.227-.288-.548a1.618,1.618,0,0,1,.374-.782.279.279,0,0,1,.284-.078,4.019,4.019,0,0,1,1.339.564,6.3,6.3,0,0,1,1.444,1.1,8.215,8.215,0,0,1,1.081,1.541,1.448,1.448,0,0,1,.229.574.654.654,0,0,0-.03.089c-.045.209-.078.48-.284.521-.179.039-.256-.234-.365-.379a6.87,6.87,0,0,0-1.359-1.3m2.582,4.042c-.321.328-.629.672-.978.969-.394.334-.754.708-1.156,1.035-.568.463-1.117.95-1.674,1.429a20.243,20.243,0,0,1-2.186,1.534.606.606,0,0,1-.091.064c-.054.023-.112.082-.164.031s-.01-.119.015-.167a5.627,5.627,0,0,1,.951-1.464c.279-.28.533-.589.8-.886.033-.037.088-.078.059-.134s-.091-.055-.158-.05a4.845,4.845,0,0,1-2.105-.213q1.077-.171,2.143-.373a4.056,4.056,0,0,0,.662-.213A9.131,9.131,0,0,0-42.044,22.8a.377.377,0,0,0,.049-.046.846.846,0,0,1,1.052-.3c.064.029.169,0,.2.078s-.05.14-.1.191m-.1-.885c-.264,0-.521-.2-.495-.417a1.589,1.589,0,0,1,.3-.741c.1-.131.183-.134.264.026a2.311,2.311,0,0,1,.209.775c.006.228-.091.356-.273.356m.727-.056c-.061-.4-.205-.78-.252-1.182-.009-.066-.035-.125.068-.112a1.091,1.091,0,0,1,.676.748c-.064.244.026.525-.275.641-.116.045-.2.031-.218-.095m2.255,1.883a8.461,8.461,0,0,0,2.57.986,11.057,11.057,0,0,0,1.619.25.408.408,0,0,1,.25.107c-.4.045-.733.159-1.088.182a4.287,4.287,0,0,1-1.053,0c-.059-.01-.148-.029-.177.051a.177.177,0,0,0,.071.179c.325.314.595.676.911,1a5.316,5.316,0,0,1,.813,1.314c.025.049.045.1-.007.143s-.1.007-.144-.021c-.378-.244-.759-.482-1.135-.73a32.98,32.98,0,0,1-2.788-2.271c-.456-.379-.87-.806-1.327-1.181a7.288,7.288,0,0,1-.668-.7c-.123-.134.036-.436.248-.5a.412.412,0,0,1,.445.127,6.386,6.386,0,0,0,1.461,1.073m-.859-3.95a5.278,5.278,0,0,0-.511.657c-.092.134-.153.091-.218,0a.831.831,0,0,1-.1-.962,8.447,8.447,0,0,1,1.308-1.847,5.386,5.386,0,0,1,1.223-.907,4.861,4.861,0,0,1,1.307-.593c.294-.056.365-.031.545.219a2.107,2.107,0,0,1,.3.825.423.423,0,0,1-.244.318c-.363.177-.756.284-1.119.464a8.709,8.709,0,0,0-2.486,1.826m9.249-2.787a1.346,1.346,0,0,1,.081-.791,5.328,5.328,0,0,1,1.31-2.255c.474-.5,1.022-.923,1.535-1.384.181-.164.353-.345.529-.516.162-.155.223-.138.29.08a1.584,1.584,0,0,1-.016.823,4.111,4.111,0,0,1-.2.825,1.215,1.215,0,0,1-.46.559c-.555.357-.991.871-1.61,1.238a3.625,3.625,0,0,1,.673-.981,4.78,4.78,0,0,0,.788-.917.6.6,0,0,0,.066-.141c.018-.078.049-.186-.027-.229s-.114.066-.16.115c-.294.311-.582.629-.886.931a7.529,7.529,0,0,0-1.711,2.375c-.04.1-.061.219-.2.266m6.355,1.527c.054.032.139.059.139.136s-.094.094-.153.117c-.694.3-1.365.654-2.074.924a3.233,3.233,0,0,1-2.33,0c-.078-.028-.2-.045-.183-.163s.127-.078.205-.089a22.1,22.1,0,0,0,2.222-.549,5.149,5.149,0,0,1,1.22-.175c.13,0,.353-.012.346-.118-.012-.168-.219-.083-.34-.089a8.9,8.9,0,0,0-2.394.336,2.193,2.193,0,0,1-.914-.009,2.57,2.57,0,0,1,.762-.357c.45-.184.917-.328,1.374-.495a1.482,1.482,0,0,1,.756.027,3.955,3.955,0,0,1,1.365.5m-.969-2.026a3.581,3.581,0,0,1-1.309.921,11.4,11.4,0,0,1-2.477.86c-.028,0-.057,0-.1.007a.152.152,0,0,1,.082-.152,9.638,9.638,0,0,0,1.218-1.095c.312-.327.62-.652.954-.957a6.545,6.545,0,0,1,.931-.661.443.443,0,0,0,.06-.035c.075-.053.207-.095.147-.208s-.159-.019-.239.016a5.468,5.468,0,0,0-1.745,1.246,5.27,5.27,0,0,1-1.907,1.323c-.1.037-.227.138-.313.042s.037-.2.091-.276A7.81,7.81,0,0,1-28,16.388a12.811,12.811,0,0,1,1.817-1.671,7.583,7.583,0,0,1,1.727-.906c.18-.074.35-.169.535-.233.254-.088.337-.045.379.207a3.1,3.1,0,0,1-.641,2.638m5.7-8.8c-.086.036-.141-.019-.2-.071A4.189,4.189,0,0,1-19.606,6.2a5.043,5.043,0,0,1-.437-1.984,4.468,4.468,0,0,1,.5-2.168c.068-.129.125-.147.193,0a8.494,8.494,0,0,0,.8,1.276.31.31,0,0,1,.077.293,6.4,6.4,0,0,0-.3,1.447c-.007.061.016.15-.082.163s-.125-.073-.152-.139a2.967,2.967,0,0,1-.285-1.443c0-.165,0-.332,0-.5,0-.07-.017-.143-.1-.144s-.088.064-.1.126a3.906,3.906,0,0,0,.078,2.02A5.925,5.925,0,0,0-18.672,6.7a2.691,2.691,0,0,1,.249.762.124.124,0,0,1-.064.155M-18.432-4.9a5.21,5.21,0,0,1-.746-1.935,3.864,3.864,0,0,1-.014-.743c0-.152.1-.2.233-.115a8.859,8.859,0,0,1,1.166.8.781.781,0,0,1,.23.568,6.2,6.2,0,0,1,0,.632c0,.059.012.127-.064.153s-.111-.034-.153-.072a3.149,3.149,0,0,1-.691-.884c-.014-.026-.026-.054-.042-.079-.032-.059-.06-.135-.148-.1s-.048.1-.039.174a3.615,3.615,0,0,0,.788,1.618,2.936,2.936,0,0,0,.37.389c.248.228.238.577.345.876A3.057,3.057,0,0,1-18.432-4.9m1.9,11.8c-.043.043-.052.149-.141.11-.073-.035-.049-.123-.04-.184a8.558,8.558,0,0,0,.031-1.713c-.028-.511-.026-1.021-.031-1.532,0-.163.031-.328.04-.491,0-.056.009-.132-.068-.15s-.12.041-.144.112a1.563,1.563,0,0,0-.13.5,12.027,12.027,0,0,0-.047,1.275,7.461,7.461,0,0,1-.224,2.123,1.663,1.663,0,0,1-.341.573c-.08.1-.128.019-.165-.049a3.139,3.139,0,0,1-.275-.9,6.663,6.663,0,0,1-.133-1.835,3.718,3.718,0,0,1,.9-2.187,5.473,5.473,0,0,0,.632-.871c.14-.26.234-.266.377-.007A4.15,4.15,0,0,1-15.8,3.1a8.354,8.354,0,0,1,.1,1.185,5.588,5.588,0,0,1-.459,1.958,1.725,1.725,0,0,1-.366.665m2.168-4.058c.111-.129.248-.063.277.123a4.3,4.3,0,0,1-.323,2.783,4.526,4.526,0,0,1-1.044,1.233c-.144.13-.3.247-.456.364-.036.026-.092.077-.14.027s.006-.095.036-.134c.27-.36.546-.714.809-1.079a3.594,3.594,0,0,0,.745-2.2c0-.086.059-.232-.076-.247s-.143.134-.172.231a3.178,3.178,0,0,1-.525,1.012c0-.236.012-.466.016-.693,0-.643.486-1,.852-1.425m-.495-5.118c-.08-.177,0-.308,0-.435a5.08,5.08,0,0,0-.271-1.68c-.208-.727-.523-1.421-.659-2.171-.016-.079-.018-.163-.031-.245-.012-.056-.026-.131-.1-.121s-.06.081-.06.133a3.854,3.854,0,0,0,.058.988c.181.719.332,1.445.46,2.174A1.851,1.851,0,0,1-15.565-2.5c-.129.275-.187.276-.374.021A5.429,5.429,0,0,1-16.8-4.366a7.558,7.558,0,0,1-.219-2.479,4.233,4.233,0,0,1,.7-1.974c.059-.091.107-.139.163,0a6.23,6.23,0,0,0,1,1.54,3.173,3.173,0,0,1,.766,2.02c.007.336.089.672.08,1.006a3.912,3.912,0,0,1-.547,1.99m1.777-1.758a.868.868,0,0,1-.322.341c.079-.341.128-.679.186-1.016a2.42,2.42,0,0,0,.025-.448,10.516,10.516,0,0,1,.128-1.814c.015-.073.05-.187-.06-.21s-.122.087-.142.165c-.116.472-.137.961-.224,1.44a1.8,1.8,0,0,1-.21.638c-.136-.177-.078-.381-.107-.559-.056-.339-.13-.676-.208-1.011a.585.585,0,0,1,.07-.469,6.493,6.493,0,0,1,.968-1.115c.092-.1.15-.068.2.037a1.955,1.955,0,0,1,.121.569,5.131,5.131,0,0,1-.427,3.453" transform="translate(69.061 37.118)" fill="#fff"/></g><g transform="translate(66.975 14.506)"><path d="M-.045,0A.2.2,0,0,0-.229.316,3.8,3.8,0,0,0,.105.978a1.247,1.247,0,0,0,.623.561c.279.089.611-.079.615-.342,0-.017,0-.046,0-.077C1.295.61.443,0-.045,0" transform="translate(0.257 0)" fill="#fff"/></g><g transform="translate(87.586 14.544)"><path d="M-.1-.329a.9.9,0,0,0,.65-.384A6.429,6.429,0,0,0,1-1.522.245.245,0,0,0,.994-1.8a.214.214,0,0,0-.245-.072,1.816,1.816,0,0,0-1.233.9A.4.4,0,0,0-.1-.329" transform="translate(0.556 1.879)" fill="#fff"/></g><g transform="translate(77.625 9.802)"><path d="M-.032-.3A.326.326,0,0,0,.56-.322,1.187,1.187,0,0,0,.518-1.54c-.054-.1-.109-.2-.247-.2a.3.3,0,0,0-.29.21,1.376,1.376,0,0,0-.153.686A.727.727,0,0,0-.032-.3" transform="translate(0.183 1.74)" fill="#fff"/></g><g transform="translate(78.408 11.564)"><path d="M-.021-.258a.218.218,0,0,0,.27.092,1.072,1.072,0,0,0,.6-.78C.842-1.262.681-1.469.43-1.472a.332.332,0,0,0-.2.057A.984.984,0,0,0-.021-.258" transform="translate(0.118 1.474)" fill="#fff"/></g><g transform="translate(76.774 11.565)"><path d="M-.189-.236A.667.667,0,0,0-.146-.5a1.3,1.3,0,0,0-.169-.6.385.385,0,0,0-.446-.235A.422.422,0,0,0-1.08-.92.865.865,0,0,0-.6-.091c.209.13.322.083.411-.145" transform="translate(1.082 1.349)" fill="#fff"/></g><g transform="translate(72.113 13.237)"><path d="M0-.11A.841.841,0,0,0,.08.323.379.379,0,0,0,.471.565C.655.547.718.381.746.224A.932.932,0,0,0,.694-.283C.6-.5.381-.665.218-.619-.015-.548,0-.347,0-.158Z" transform="translate(0.004 0.626)" fill="#fff"/></g><g transform="translate(83.276 13.243)"><path d="M-.064-.254A.392.392,0,0,0,.311-.5.792.792,0,0,0,.406-.91a2.291,2.291,0,0,0-.025-.247.339.339,0,0,0-.224-.285.339.339,0,0,0-.332.155A.774.774,0,0,0-.338-.57c.031.139.082.305.274.316" transform="translate(0.364 1.45)" fill="#fff"/></g><g transform="translate(76.909 16.681)"><path d="M-.047-.23a1.959,1.959,0,0,0,1.11.262,1.4,1.4,0,0,0,.77-.251A.45.45,0,0,0,1.92-.944,1.67,1.67,0,0,0-.095-1,.48.48,0,0,0-.047-.23" transform="translate(0.267 1.312)" fill="#fff"/></g><g transform="translate(82.759 17.259)"><path d="M-.046-.231A2.022,2.022,0,0,0,1.332.153.581.581,0,0,0,1.74-.79,1.515,1.515,0,0,0,.527-1.313a.828.828,0,0,0-.2,0c-.225.057-.467.1-.556.358a.716.716,0,0,0,.186.722" transform="translate(0.261 1.319)" fill="#fff"/></g><g transform="translate(71.266 17.252)"><path d="M-.152-.306A1.884,1.884,0,0,0,1.017-.635a.65.65,0,0,0,.259-.594.5.5,0,0,0-.358-.445,1.663,1.663,0,0,0-1.594.356.578.578,0,0,0-.12.7.584.584,0,0,0,.644.309" transform="translate(0.866 1.749)" fill="#fff"/></g><g transform="translate(80.217 16.726)"><path d="M-.163-.322a.731.731,0,0,0,.75-.733.761.761,0,0,0-.755-.784.9.9,0,0,0-.761.713.86.86,0,0,0,.766.8m.075-1.12c.178,0,.279.115.279.331S.1-.766-.074-.761a.541.541,0,0,1-.379-.366.414.414,0,0,1,.365-.314" transform="translate(0.93 1.838)" fill="#fff"/></g><g transform="translate(85.723 17.894)"><path d="M-.154-.313a.738.738,0,0,0,.71-.748A.68.68,0,0,0-.2-1.79a.661.661,0,0,0-.681.741.68.68,0,0,0,.723.736M-.175-1.34a.324.324,0,0,1,.337.314A.342.342,0,0,1-.18-.713c-.175-.009-.264-.121-.285-.309a.3.3,0,0,1,.29-.318" transform="translate(0.88 1.79)" fill="#fff"/></g><g transform="translate(74.422 16.72)"><path d="M-.158-.323a.776.776,0,0,0,.72-.652c.01-.55-.28-.875-.775-.87A.7.7,0,0,0-.9-1.111a.742.742,0,0,0,.743.788M-.194-1.452a.408.408,0,0,1,.374.377.34.34,0,0,1-.337.318.409.409,0,0,1-.386-.411.335.335,0,0,1,.35-.284" transform="translate(0.901 1.845)" fill="#fff"/></g><g transform="translate(68.999 17.85)"><path d="M-.159-.314a.7.7,0,0,0,.725-.713.758.758,0,0,0-.747-.766.724.724,0,0,0-.729.728.731.731,0,0,0,.751.75m0-1.082a.337.337,0,0,1,.333.348.33.33,0,0,1-.339.336.434.434,0,0,1-.4-.305.428.428,0,0,1,.4-.379" transform="translate(0.91 1.792)" fill="#fff"/></g><g transform="translate(59.804 22.654)"><path d="M-.15-.539a8.927,8.927,0,0,1,.1,1.748c-.015.29-.029.293.257.293H4.627c.285,0,.272,0,.257-.293a8.8,8.8,0,0,1,.1-1.748A7.5,7.5,0,0,1,5.627-2.4c.038-.087.109-.18.025-.271s-.186-.04-.275,0a10.357,10.357,0,0,0-1.567.832c-.251.157-.313.146-.464-.1a8.875,8.875,0,0,0-.67-.984c-.092-.113-.167-.154-.258-.148s-.167.035-.258.148a8.883,8.883,0,0,0-.671.984c-.151.248-.214.259-.464.1A10.357,10.357,0,0,0-.543-2.677c-.087-.035-.191-.084-.274,0s-.014.184.024.271A7.467,7.467,0,0,1-.15-.539" transform="translate(0.856 3.08)" fill="#fff"/></g><g transform="translate(89.944 22.654)"><path d="M-.891-.24a8.771,8.771,0,0,0-.671-.984c-.091-.113-.167-.154-.257-.148s-.167.035-.258.148a8.771,8.771,0,0,0-.671.984c-.151.248-.214.259-.464.1A10.357,10.357,0,0,0-4.78-.971c-.088-.035-.191-.084-.274,0s-.014.184.024.271a7.5,7.5,0,0,1,.643,1.861,8.927,8.927,0,0,1,.1,1.748c-.015.29-.029.293.257.293.7,0,1.4,0,2.1,0h.217c.7,0,1.4,0,2.1,0,.285,0,.272,0,.257-.293a8.863,8.863,0,0,1,.1-1.748A7.5,7.5,0,0,1,1.39-.694c.038-.087.109-.18.024-.271s-.186-.04-.274,0A10.357,10.357,0,0,0-.427-.138C-.678.019-.74.008-.891-.24" transform="translate(5.093 1.374)" fill="#fff"/></g></g><g transform="translate(0 79.302)"><path d="M-1.282,0-7.325,16.929h3.7l1.148-3.48H3.757l1.117,3.48H8.71L2.721,0ZM.681,3.871l2.139,6.662H-1.516Z" transform="translate(7.325)" fill="#fff"/></g><g transform="translate(0 0)" clip-path="url(#a)"><g transform="translate(16.449 79.302)"><path d="M-.709-2.23v.39A7.807,7.807,0,0,0-.3.923a1.519,1.519,0,0,0,1.548.8A1.516,1.516,0,0,0,2.8.848,4.763,4.763,0,0,0,3.024-.9V-12.739H6.561V-.955a6.849,6.849,0,0,1-.73,3.423Q4.6,4.6,1.373,4.6T-2.95,2.875a8.72,8.72,0,0,1-1.1-4.715v-.39Z" transform="translate(4.051 12.739)" fill="#fff"/></g><g transform="translate(30.341 79.303)"><path d="M0,0H3.594V10.4a5.882,5.882,0,0,0,.412,2.548q.64,1.423,2.793,1.423a2.721,2.721,0,0,0,2.78-1.423A5.884,5.884,0,0,0,9.991,10.4V0h3.6V10.405a8.735,8.735,0,0,1-.837,4.2Q11.191,17.364,6.8,17.366T.837,14.609A8.735,8.735,0,0,1,0,10.405Z" fill="#fff"/></g></g><g transform="translate(46.574 79.303)"><path d="M0,0H3.708l6.72,11.8V0h3.3V16.929H10.188L3.3,4.918V16.929H0Z" fill="#fff"/></g><g transform="translate(61.663 79.303)"><path d="M-2.909,0V3H-7.974V16.929h-3.561V3h-5.088V0Z" transform="translate(16.623)" fill="#fff"/></g><g transform="translate(73.828 79.303)"><path d="M-1.282,0h4L8.71,16.929H4.874L3.757,13.449H-2.477l-1.148,3.481h-3.7Zm-.233,10.532H2.821L.682,3.871Z" transform="translate(7.325)" fill="#fff"/></g><g transform="translate(0 0)" clip-path="url(#a)"><g transform="translate(91.727 79.303)"><path d="M-2.395,0H2.7V16.929H-.6V5.478q0-.494.012-1.383t.012-1.373L-3.786,16.929H-7.224L-10.409,2.722q0,.481.012,1.373t.012,1.383V16.929h-3.3V0h5.147l3.081,13.311Z" transform="translate(13.682)" fill="#fff"/></g></g><g transform="translate(111.249 79.303)"><path d="M-2.634-.636h-8.958v3.6h8.223V5.9h-8.223v4.353h9.372V13.3H-15.049V-3.633H-2.634Z" transform="translate(15.049 3.633)" fill="#fff"/></g><g transform="translate(126.626 79.303)"><path d="M0,0H3.708l6.72,11.8V0h3.3V16.929H10.188L3.3,4.918V16.929H0Z" fill="#fff"/></g><g transform="translate(142.567 79.302)"><path d="M0,0V3H5.088V16.929h3.56V3h5.065V0Z" fill="#fff"/></g><g transform="translate(0 0)" clip-path="url(#a)"><g transform="translate(0.632 104.898)"><path d="M-2.137-.079A5.673,5.673,0,0,1,.792,2.1,7.64,7.64,0,0,1,2.017,4.875,13.314,13.314,0,0,1,2.344,7.72,11.418,11.418,0,0,1,.968,13.526,6.214,6.214,0,0,1-4.8,16.733h-7.41V-.453H-4.8a9.044,9.044,0,0,1,2.661.374M-8.72,2.533V13.748H-5.4a3.583,3.583,0,0,0,3.551-2.507A8.833,8.833,0,0,0-1.3,7.965a8.059,8.059,0,0,0-.823-4.028q-.824-1.4-3.276-1.4Z" transform="translate(12.207 0.453)" fill="#fff"/></g></g><g transform="translate(17.038 104.898)"><path d="M0,0V17.186H13.024V14.1H3.509V9.678h8.349V6.693H3.509V3.043H12.6V0Z" fill="#fff"/></g><g transform="translate(38.343 104.898)"><path d="M-2.4,0-6.171,13.047-9.9,0h-3.836l5.812,17.186h3.392L1.326,0Z" transform="translate(13.737)" fill="#fff"/></g><g transform="translate(50.897 104.898)"><path d="M-1.3,0-7.437,17.186H-3.68l1.165-3.533H3.813l1.134,3.533H8.842L2.761,0ZM.692,3.929l2.171,6.762h-4.4Z" transform="translate(7.437)" fill="#fff"/></g><g transform="translate(68.957 104.898)"><path d="M0,0V17.186H12.172V14.1H3.592V0Z" fill="#fff"/></g><g transform="translate(83.647 100.036)"><path d="M-.515,0,3.018,3.486h2.4L3.182,0ZM-2.94,4.862V22.047H10.084v-3.09H.569V14.539H8.918V11.555H.569V7.9H9.664V4.862Z" transform="translate(2.94)" fill="#fff"/></g><g transform="translate(99.411 104.898)"><path d="M-2.246,0V11.984L-9.068,0h-3.764V17.186h3.345V4.993l7,12.193H1.1V0Z" transform="translate(12.832)" fill="#fff"/></g><g transform="translate(0 0)" clip-path="url(#a)"><g transform="translate(115.966 104.572)"><path d="M-.507-.45A7.076,7.076,0,0,1,4.777-2.572q4.292,0,6.275,2.845a6.2,6.2,0,0,1,1.176,3.207H8.637a4.906,4.906,0,0,0-.879-1.866A3.542,3.542,0,0,0,4.913.494,3.5,3.5,0,0,0,1.887,2.073,7.714,7.714,0,0,0,.779,6.546a6.772,6.772,0,0,0,1.169,4.331,3.664,3.664,0,0,0,2.971,1.44A3.366,3.366,0,0,0,7.736,11.08a5.418,5.418,0,0,0,.889-1.994h3.567a7.74,7.74,0,0,1-2.359,4.571,6.866,6.866,0,0,1-4.861,1.76A7.293,7.293,0,0,1-.794,13.039a9.584,9.584,0,0,1-2.1-6.553q0-4.5,2.387-6.936" transform="translate(2.894 2.572)" fill="#fff"/></g></g><path d="M162.024-4.226h3.567V-21.412h-3.567Z" transform="translate(-28.359 126.31)" fill="#fff"/><g transform="translate(139.37 104.898)"><path d="M-1.3,0-7.437,17.186h3.756l1.165-3.533H3.813l1.134,3.533H8.841L2.761,0ZM.691,3.929l2.171,6.762h-4.4Z" transform="translate(7.437)" fill="#fff"/></g></svg>