<svg xmlns="http://www.w3.org/2000/svg" xmlns:xlink="http://www.w3.org/1999/xlink" width="196.355" height="67.186" viewBox="0 0 196.355 67.186"><defs><clipPath id="a"><rect width="47.721" height="67.186" fill="none"/></clipPath></defs><g transform="translate(-3005.795 -1181.592)"><path d="M4.564-19.636H.662L7.575,0h4.391l6.923-19.636H14.977L9.876-4.18h-.2ZM24.171.3a4.549,4.549,0,0,0,4.324-2.32h.115V0h3.337V-9.857c0-3.893-3.174-5.062-5.983-5.062-3.1,0-5.475,1.381-6.242,4.065l3.241.46a2.94,2.94,0,0,1,3.02-1.87c1.611,0,2.493.825,2.493,2.272v.058c0,1-1.045,1.045-3.643,1.323-2.857.307-5.59,1.16-5.59,4.478C19.242-1.237,21.361.3,24.171.3Zm.9-2.55c-1.448,0-2.483-.662-2.483-1.937,0-1.333,1.16-1.889,2.713-2.109a10.566,10.566,0,0,0,3.183-.719v1.735A3.136,3.136,0,0,1,25.072-2.253ZM39.079-19.636H35.608V0h3.471ZM49.328.288c3.433,0,5.791-1.678,6.4-4.238l-3.241-.364a3.072,3.072,0,0,1-3.116,1.9c-2.244,0-3.73-1.477-3.759-4H55.876V-7.479c0-5.168-3.107-7.44-6.731-7.44-4.219,0-6.971,3.1-6.971,7.642C42.175-2.656,44.888.288,49.328.288Zm-3.7-9.042a3.539,3.539,0,0,1,3.567-3.461,3.281,3.281,0,0,1,3.356,3.461Zm2.148-7.91h2.6l-2.138-4.382h-3.4ZM62.443-8.629a3.024,3.024,0,0,1,3.116-3.356c1.793,0,2.867,1.179,2.867,3.145V0H71.9V-9.377c.01-3.528-2-5.542-5.043-5.542a4.42,4.42,0,0,0-4.391,2.694H62.29v-2.5H58.972V0h3.471ZM82.021.288c3.7,0,6.06-2.2,6.309-5.321H85.012A2.873,2.873,0,0,1,82.05-2.541c-2.167,0-3.567-1.812-3.567-4.823,0-2.972,1.429-4.756,3.567-4.756a2.886,2.886,0,0,1,2.963,2.493H88.33C88.09-12.819,85.6-14.919,82-14.919c-4.315,0-7.038,3.116-7.038,7.613C74.964-2.848,77.62.288,82.021.288ZM91.349,0H94.82V-14.727H91.349Zm1.745-16.817a1.949,1.949,0,0,0,2-1.879,1.95,1.95,0,0,0-2-1.889A1.953,1.953,0,0,0,91.081-18.7,1.951,1.951,0,0,0,93.094-16.817ZM102.787.3a4.549,4.549,0,0,0,4.324-2.32h.115V0h3.337V-9.857c0-3.893-3.174-5.062-5.983-5.062-3.1,0-5.475,1.381-6.242,4.065l3.241.46a2.94,2.94,0,0,1,3.02-1.87c1.611,0,2.493.825,2.493,2.272v.058c0,1-1.045,1.045-3.643,1.323-2.857.307-5.59,1.16-5.59,4.478C97.858-1.237,99.977.3,102.787.3Zm.9-2.55c-1.448,0-2.483-.662-2.483-1.937,0-1.333,1.16-1.889,2.713-2.109a10.566,10.566,0,0,0,3.183-.719v1.735A3.136,3.136,0,0,1,103.688-2.253ZM12.608,11.762h3.423C15.964,8.444,13.136,6.1,8.955,6.1c-4.123,0-7.22,2.32-7.21,5.791,0,2.819,2,4.439,5.235,5.273l2.234.575c2.119.537,3.519,1.2,3.528,2.723-.01,1.678-1.6,2.8-3.922,2.8-2.224,0-3.95-1-4.094-3.059h-3.5c.144,3.9,3.049,6.1,7.623,6.1,4.708,0,7.44-2.349,7.45-5.81-.01-3.4-2.819-4.957-5.772-5.657l-1.841-.46c-1.611-.384-3.356-1.064-3.337-2.7.01-1.477,1.333-2.56,3.557-2.56C11.026,9.106,12.426,10.093,12.608,11.762ZM25.653,26.288c4.315,0,7.057-3.039,7.057-7.594s-2.742-7.613-7.057-7.613S18.6,14.13,18.6,18.694,21.339,26.288,25.653,26.288Zm.019-2.781c-2.387,0-3.557-2.129-3.557-4.823s1.17-4.852,3.557-4.852c2.349,0,3.519,2.157,3.519,4.852S28.022,23.507,25.673,23.507ZM47.2,15.165c-.479-2.493-2.474-4.085-5.925-4.085-3.548,0-5.964,1.745-5.954,4.468-.01,2.148,1.314,3.567,4.142,4.152l2.512.527c1.352.3,1.985.844,1.985,1.678,0,1.007-1.093,1.764-2.742,1.764-1.592,0-2.627-.69-2.924-2.013l-3.385.326c.431,2.7,2.7,4.305,6.319,4.305,3.682,0,6.28-1.908,6.29-4.7-.01-2.1-1.362-3.385-4.142-3.989l-2.512-.537c-1.5-.336-2.09-.853-2.081-1.707-.01-1,1.093-1.687,2.541-1.687a2.574,2.574,0,0,1,2.713,1.841Zm10.456-3.893H54.754V7.744H51.283v3.528h-2.09v2.685h2.09v8.188c-.019,2.771,1.994,4.132,4.6,4.056a6.976,6.976,0,0,0,2.042-.345l-.585-2.713a4.328,4.328,0,0,1-1.016.134c-.873,0-1.572-.307-1.572-1.707V13.957h2.905ZM66.85,26.288c3.433,0,5.791-1.678,6.4-4.238l-3.241-.364a3.072,3.072,0,0,1-3.116,1.9c-2.244,0-3.73-1.477-3.759-4H73.4V18.521c0-5.168-3.107-7.44-6.731-7.44-4.219,0-6.971,3.1-6.971,7.642C59.7,23.344,62.411,26.288,66.85,26.288Zm-3.7-9.042a3.539,3.539,0,0,1,3.567-3.461,3.281,3.281,0,0,1,3.356,3.461Zm16.573.125a3.024,3.024,0,0,1,3.116-3.356c1.793,0,2.867,1.179,2.867,3.145V26h3.471V16.623c.01-3.528-2-5.542-5.043-5.542a4.42,4.42,0,0,0-4.391,2.694h-.173v-2.5H76.252V26h3.471ZM92.633,26H96.1V11.273H92.633ZM94.378,9.183a1.949,1.949,0,0,0,2-1.879,2.012,2.012,0,0,0-4.017,0A1.951,1.951,0,0,0,94.378,9.183ZM99.743,26h3.413V23.68h.2a4.439,4.439,0,0,0,4.219,2.579c3.471,0,6.069-2.752,6.069-7.6,0-4.909-2.675-7.575-6.079-7.575a4.369,4.369,0,0,0-4.209,2.627h-.144V6.364H99.743Zm3.4-7.364c0-2.857,1.227-4.708,3.461-4.708,2.311,0,3.5,1.966,3.5,4.708,0,2.761-1.208,4.775-3.5,4.775C104.394,23.411,103.147,21.494,103.147,18.636ZM120,6.364h-3.471V26H120ZM130,26.288c3.433,0,5.791-1.678,6.4-4.238l-3.241-.364a3.072,3.072,0,0,1-3.116,1.9c-2.244,0-3.73-1.477-3.759-4h10.259V18.521c0-5.168-3.107-7.44-6.731-7.44-4.219,0-6.971,3.1-6.971,7.642C122.852,23.344,125.565,26.288,130,26.288Zm-3.7-9.042a3.539,3.539,0,0,1,3.567-3.461,3.281,3.281,0,0,1,3.356,3.461Z" transform="translate(3065.597 1218.098)"/><g transform="translate(3005.795 1181.592)"><g clip-path="url(#a)"><path d="M7.512,212.952A7.512,7.512,0,1,0,0,205.44a7.512,7.512,0,0,0,7.512,7.512" transform="translate(0 -158.806)" fill="#e0ffeb"/><path d="M7.522,213.95A7.512,7.512,0,1,0,.01,206.437a7.512,7.512,0,0,0,7.512,7.512" transform="translate(-0.008 -159.607)" fill="#dfffea"/><path d="M7.549,214.943a7.512,7.512,0,1,0-7.512-7.512,7.512,7.512,0,0,0,7.512,7.512" transform="translate(-0.03 -160.404)" fill="#deffe9"/><path d="M7.6,215.933a7.512,7.512,0,1,0-7.512-7.512A7.512,7.512,0,0,0,7.6,215.933" transform="translate(-0.067 -161.198)" fill="#ddfee8"/><path d="M7.659,216.92a7.512,7.512,0,1,0-7.512-7.512,7.512,7.512,0,0,0,7.512,7.512" transform="translate(-0.118 -161.99)" fill="#dcfee7"/><path d="M7.741,217.9A7.512,7.512,0,1,0,.229,210.39,7.512,7.512,0,0,0,7.741,217.9" transform="translate(-0.184 -162.779)" fill="#dbfee7"/><path d="M7.841,218.882a7.512,7.512,0,1,0-7.512-7.512,7.512,7.512,0,0,0,7.512,7.512" transform="translate(-0.264 -163.564)" fill="#dafee6"/><path d="M7.96,219.856a7.512,7.512,0,1,0-7.512-7.512,7.513,7.513,0,0,0,7.512,7.512" transform="translate(-0.359 -164.346)" fill="#d9fee5"/><path d="M8.1,220.826a7.512,7.512,0,1,0-7.512-7.512A7.512,7.512,0,0,0,8.1,220.826" transform="translate(-0.468 -165.124)" fill="#d8fee4"/><path d="M8.248,221.792A7.512,7.512,0,1,0,.736,214.28a7.512,7.512,0,0,0,7.512,7.512" transform="translate(-0.591 -165.899)" fill="#d7fde3"/><path d="M8.419,222.754a7.512,7.512,0,1,0-7.512-7.513,7.513,7.513,0,0,0,7.512,7.513" transform="translate(-0.728 -166.671)" fill="#d6fde2"/><path d="M8.607,223.711A7.512,7.512,0,1,0,1.1,216.2a7.512,7.512,0,0,0,7.512,7.512" transform="translate(-0.879 -167.439)" fill="#d5fde1"/><path d="M8.811,224.664A7.512,7.512,0,1,0,1.3,217.151a7.512,7.512,0,0,0,7.512,7.512" transform="translate(-1.042 -168.203)" fill="#d4fde0"/><path d="M9.033,225.611A7.512,7.512,0,1,0,1.521,218.1a7.512,7.512,0,0,0,7.512,7.512" transform="translate(-1.22 -168.963)" fill="#d3fddf"/><path d="M9.272,226.555a7.512,7.512,0,1,0-7.512-7.513,7.513,7.513,0,0,0,7.512,7.513" transform="translate(-1.412 -169.721)" fill="#d2fcde"/><path d="M9.527,227.493a7.512,7.512,0,1,0-7.512-7.512,7.512,7.512,0,0,0,7.512,7.512" transform="translate(-1.617 -170.473)" fill="#d1fcde"/><path d="M9.8,228.426a7.512,7.512,0,1,0-7.512-7.513A7.513,7.513,0,0,0,9.8,228.426" transform="translate(-1.835 -171.222)" fill="#d0fcdd"/><path d="M10.088,229.353a7.512,7.512,0,1,0-7.512-7.512,7.512,7.512,0,0,0,7.512,7.512" transform="translate(-2.067 -171.966)" fill="#cffcdc"/><path d="M10.393,230.276a7.512,7.512,0,1,0-7.512-7.512,7.512,7.512,0,0,0,7.512,7.512" transform="translate(-2.312 -172.706)" fill="#cefcdb"/><path d="M10.714,231.194A7.512,7.512,0,1,0,3.2,223.681a7.512,7.512,0,0,0,7.512,7.512" transform="translate(-2.569 -173.443)" fill="#cdfbda"/><path d="M11.051,232.106a7.512,7.512,0,1,0-7.512-7.512,7.512,7.512,0,0,0,7.512,7.512" transform="translate(-2.84 -174.174)" fill="#ccfbd9"/><path d="M11.405,233.013A7.512,7.512,0,1,0,3.893,225.5a7.512,7.512,0,0,0,7.512,7.512" transform="translate(-3.124 -174.902)" fill="#cbfbd8"/><path d="M11.774,233.913A7.512,7.512,0,1,0,4.262,226.4a7.512,7.512,0,0,0,7.512,7.512" transform="translate(-3.42 -175.624)" fill="#cafbd7"/><path d="M12.158,234.808A7.512,7.512,0,1,0,4.646,227.3a7.512,7.512,0,0,0,7.512,7.513" transform="translate(-3.728 -176.342)" fill="#c9fbd6"/><path d="M12.559,235.7a7.512,7.512,0,1,0-7.512-7.512,7.512,7.512,0,0,0,7.512,7.512" transform="translate(-4.049 -177.057)" fill="#c8fbd5"/><path d="M12.975,236.581a7.512,7.512,0,1,0-7.512-7.513,7.513,7.513,0,0,0,7.512,7.513" transform="translate(-4.383 -177.765)" fill="#c7fad5"/><path d="M13.406,237.458a7.512,7.512,0,1,0-7.512-7.512,7.512,7.512,0,0,0,7.512,7.512" transform="translate(-4.729 -178.469)" fill="#c6fad4"/><path d="M13.852,238.329a7.512,7.512,0,1,0-7.512-7.512,7.512,7.512,0,0,0,7.512,7.512" transform="translate(-5.087 -179.168)" fill="#c5fad3"/><path d="M14.313,239.194A7.512,7.512,0,1,0,6.8,231.681a7.512,7.512,0,0,0,7.512,7.513" transform="translate(-5.457 -179.862)" fill="#c4fad2"/><path d="M14.79,240.053a7.512,7.512,0,1,0-7.512-7.513,7.513,7.513,0,0,0,7.512,7.513" transform="translate(-5.839 -180.551)" fill="#c3fad1"/><path d="M15.28,240.9a7.512,7.512,0,1,0-7.512-7.512A7.512,7.512,0,0,0,15.28,240.9" transform="translate(-6.233 -181.234)" fill="#c2f9d0"/><path d="M15.786,241.75a7.512,7.512,0,1,0-7.512-7.512,7.512,7.512,0,0,0,7.512,7.512" transform="translate(-6.639 -181.912)" fill="#c1f9cf"/><path d="M16.306,242.589a7.512,7.512,0,1,0-7.512-7.513,7.512,7.512,0,0,0,7.512,7.513" transform="translate(-7.056 -182.586)" fill="#c0f9ce"/><path d="M16.841,243.421a7.512,7.512,0,1,0-7.512-7.513,7.512,7.512,0,0,0,7.512,7.513" transform="translate(-7.485 -183.253)" fill="#bff9cd"/><path d="M17.39,244.246a7.512,7.512,0,1,0-7.512-7.513,7.513,7.513,0,0,0,7.512,7.513" transform="translate(-7.926 -183.915)" fill="#bef9cc"/><path d="M17.953,245.064a7.512,7.512,0,1,0-7.512-7.512,7.512,7.512,0,0,0,7.512,7.512" transform="translate(-8.377 -184.571)" fill="#bdf9cc"/><path d="M18.53,245.875a7.512,7.512,0,1,0-7.512-7.512,7.512,7.512,0,0,0,7.512,7.512" transform="translate(-8.84 -185.222)" fill="#bcf8cb"/><path d="M19.121,246.679a7.512,7.512,0,1,0-7.512-7.512,7.512,7.512,0,0,0,7.512,7.512" transform="translate(-9.314 -185.867)" fill="#bbf8ca"/><path d="M19.726,247.475a7.512,7.512,0,1,0-7.512-7.513,7.513,7.513,0,0,0,7.512,7.513" transform="translate(-9.8 -186.506)" fill="#baf8c9"/><path d="M20.344,248.264a7.512,7.512,0,1,0-7.512-7.513,7.512,7.512,0,0,0,7.512,7.513" transform="translate(-10.296 -187.139)" fill="#b9f8c8"/><path d="M20.976,249.047a7.512,7.512,0,1,0-7.512-7.512,7.512,7.512,0,0,0,7.512,7.512" transform="translate(-10.803 -187.767)" fill="#b8f8c7"/><path d="M21.621,249.82a7.512,7.512,0,1,0-7.512-7.513,7.512,7.512,0,0,0,7.512,7.513" transform="translate(-11.32 -188.387)" fill="#b7f7c6"/><path d="M22.279,250.587a7.512,7.512,0,1,0-7.512-7.512,7.512,7.512,0,0,0,7.512,7.512" transform="translate(-11.848 -189.003)" fill="#b6f7c5"/><path d="M22.951,251.346a7.512,7.512,0,1,0-7.512-7.512,7.512,7.512,0,0,0,7.512,7.512" transform="translate(-12.387 -189.612)" fill="#b5f7c4"/><path d="M23.635,252.1a7.512,7.512,0,1,0-7.512-7.512,7.512,7.512,0,0,0,7.512,7.512" transform="translate(-12.936 -190.213)" fill="#b4f7c3"/><path d="M24.332,252.839a7.512,7.512,0,1,0-7.512-7.512,7.512,7.512,0,0,0,7.512,7.512" transform="translate(-13.495 -190.81)" fill="#b3f7c3"/><path d="M25.043,253.573a7.512,7.512,0,1,0-7.512-7.512,7.513,7.513,0,0,0,7.512,7.512" transform="translate(-14.066 -191.399)" fill="#b2f7c2"/><path d="M25.765,254.3a7.512,7.512,0,1,0-7.512-7.512,7.512,7.512,0,0,0,7.512,7.512" transform="translate(-14.645 -191.981)" fill="#b1f6c1"/><path d="M26.5,255.016a7.512,7.512,0,1,0-7.512-7.512,7.512,7.512,0,0,0,7.512,7.512" transform="translate(-15.235 -192.556)" fill="#b0f6c0"/><path d="M27.248,255.726a7.512,7.512,0,1,0-7.512-7.512,7.512,7.512,0,0,0,7.512,7.512" transform="translate(-15.835 -193.126)" fill="#aff6bf"/><path d="M28.007,256.428a7.512,7.512,0,1,0-7.512-7.512,7.512,7.512,0,0,0,7.512,7.512" transform="translate(-16.444 -193.689)" fill="#aef6be"/><path d="M28.779,257.119a7.512,7.512,0,1,0-7.512-7.512,7.512,7.512,0,0,0,7.512,7.512" transform="translate(-17.064 -194.244)" fill="#adf6bd"/><path d="M29.562,257.8a7.512,7.512,0,1,0-7.512-7.512,7.512,7.512,0,0,0,7.512,7.512" transform="translate(-17.692 -194.792)" fill="#acf5bc"/><path d="M30.358,258.477a7.512,7.512,0,1,0-7.512-7.513,7.512,7.512,0,0,0,7.512,7.513" transform="translate(-18.33 -195.333)" fill="#abf5bb"/><path d="M31.165,259.143a7.512,7.512,0,1,0-7.512-7.512,7.512,7.512,0,0,0,7.512,7.512" transform="translate(-18.978 -195.868)" fill="#aaf5ba"/><path d="M31.983,259.8a7.512,7.512,0,1,0-7.512-7.512,7.512,7.512,0,0,0,7.512,7.512" transform="translate(-19.634 -196.395)" fill="#a9f5ba"/><path d="M32.814,260.447a7.512,7.512,0,1,0-7.512-7.512,7.512,7.512,0,0,0,7.512,7.512" transform="translate(-20.301 -196.914)" fill="#a8f5b9"/><path d="M33.654,261.086a7.512,7.512,0,1,0-7.512-7.512,7.512,7.512,0,0,0,7.512,7.512" transform="translate(-20.975 -197.427)" fill="#a7f4b8"/><path d="M34.507,261.715A7.512,7.512,0,1,0,27,254.2a7.512,7.512,0,0,0,7.512,7.512" transform="translate(-21.659 -197.931)" fill="#a6f4b7"/><path d="M35.371,262.334a7.512,7.512,0,1,0-7.512-7.512,7.512,7.512,0,0,0,7.512,7.512" transform="translate(-22.353 -198.428)" fill="#a5f4b6"/><path d="M36.245,262.943a7.512,7.512,0,1,0-7.512-7.512,7.512,7.512,0,0,0,7.512,7.512" transform="translate(-23.054 -198.917)" fill="#a4f4b5"/><path d="M37.13,263.544a7.512,7.512,0,1,0-7.512-7.512,7.512,7.512,0,0,0,7.512,7.512" transform="translate(-23.764 -199.399)" fill="#a3f4b4"/><path d="M38.025,264.134a7.512,7.512,0,1,0-7.512-7.512,7.512,7.512,0,0,0,7.512,7.512" transform="translate(-24.482 -199.872)" fill="#a2f4b3"/><path d="M38.932,264.715A7.512,7.512,0,1,0,31.42,257.2a7.512,7.512,0,0,0,7.512,7.512" transform="translate(-25.21 -200.338)" fill="#a1f3b2"/><path d="M39.848,265.285a7.512,7.512,0,1,0-7.512-7.512,7.512,7.512,0,0,0,7.512,7.512" transform="translate(-25.945 -200.796)" fill="#a0f3b1"/><path d="M40.775,265.845a7.512,7.512,0,1,0-7.512-7.512,7.512,7.512,0,0,0,7.512,7.512" transform="translate(-26.689 -201.245)" fill="#9ff3b1"/><path d="M41.712,266.395a7.512,7.512,0,1,0-7.512-7.512,7.512,7.512,0,0,0,7.512,7.512" transform="translate(-27.44 -201.686)" fill="#9ef3b0"/><path d="M42.659,266.935a7.512,7.512,0,1,0-7.512-7.512,7.512,7.512,0,0,0,7.512,7.512" transform="translate(-28.2 -202.119)" fill="#9df3af"/><path d="M43.616,267.465a7.512,7.512,0,1,0-7.512-7.512,7.512,7.512,0,0,0,7.512,7.512" transform="translate(-28.968 -202.545)" fill="#9cf2ae"/><path d="M44.582,267.983a7.512,7.512,0,1,0-7.512-7.513,7.512,7.512,0,0,0,7.512,7.513" transform="translate(-29.743 -202.96)" fill="#9bf2ad"/><path d="M45.558,268.491a7.512,7.512,0,1,0-7.512-7.512,7.512,7.512,0,0,0,7.512,7.512" transform="translate(-30.526 -203.368)" fill="#9af2ac"/><path d="M46.544,268.989a7.512,7.512,0,1,0-7.512-7.513,7.513,7.513,0,0,0,7.512,7.513" transform="translate(-31.317 -203.768)" fill="#99f2ab"/><path d="M47.539,269.475a7.512,7.512,0,1,0-7.512-7.512,7.512,7.512,0,0,0,7.512,7.512" transform="translate(-32.116 -204.157)" fill="#98f2aa"/><path d="M48.543,269.952a7.512,7.512,0,1,0-7.512-7.512,7.512,7.512,0,0,0,7.512,7.512" transform="translate(-32.921 -204.54)" fill="#97f2a9"/><path d="M49.556,270.416a7.512,7.512,0,1,0-7.512-7.512,7.512,7.512,0,0,0,7.512,7.512" transform="translate(-33.734 -204.912)" fill="#96f1a8"/><path d="M50.578,270.87a7.512,7.512,0,1,0-7.512-7.513,7.513,7.513,0,0,0,7.512,7.513" transform="translate(-34.554 -205.277)" fill="#95f1a8"/><path d="M51.609,271.312A7.512,7.512,0,1,0,44.1,263.8a7.513,7.513,0,0,0,7.512,7.513" transform="translate(-35.381 -205.631)" fill="#94f1a7"/><path d="M52.649,271.743a7.512,7.512,0,1,0-7.512-7.512,7.512,7.512,0,0,0,7.512,7.512" transform="translate(-36.216 -205.977)" fill="#93f1a6"/><path d="M53.7,272.163a7.512,7.512,0,1,0-7.512-7.513,7.512,7.512,0,0,0,7.512,7.513" transform="translate(-37.056 -206.314)" fill="#92f1a5"/><path d="M54.753,272.571a7.512,7.512,0,1,0-7.512-7.513,7.513,7.513,0,0,0,7.512,7.513" transform="translate(-37.904 -206.642)" fill="#91f0a4"/><path d="M55.818,272.968a7.512,7.512,0,1,0-7.512-7.512,7.512,7.512,0,0,0,7.512,7.512" transform="translate(-38.758 -206.96)" fill="#90f0a3"/><path d="M56.891,273.352a7.512,7.512,0,1,0-7.512-7.512,7.512,7.512,0,0,0,7.512,7.512" transform="translate(-39.619 -207.268)" fill="#8ff0a2"/><path d="M57.972,273.724a7.512,7.512,0,1,0-7.512-7.512,7.512,7.512,0,0,0,7.512,7.512" transform="translate(-40.486 -207.567)" fill="#8ef0a1"/><path d="M59.061,274.086a7.512,7.512,0,1,0-7.512-7.513,7.512,7.512,0,0,0,7.512,7.513" transform="translate(-41.36 -207.857)" fill="#8df0a0"/><path d="M60.157,274.434a7.512,7.512,0,1,0-7.512-7.513,7.512,7.512,0,0,0,7.512,7.513" transform="translate(-42.24 -208.136)" fill="#8cef9f"/><path d="M61.262,274.771a7.512,7.512,0,1,0-7.512-7.512,7.512,7.512,0,0,0,7.512,7.512" transform="translate(-43.126 -208.407)" fill="#8bef9f"/><path d="M62.374,275.1a7.512,7.512,0,1,0-7.512-7.512,7.512,7.512,0,0,0,7.512,7.512" transform="translate(-44.018 -208.667)" fill="#8aef9e"/><path d="M63.493,275.407a7.512,7.512,0,1,0-7.512-7.512,7.512,7.512,0,0,0,7.512,7.512" transform="translate(-44.916 -208.917)" fill="#89ef9d"/><path d="M64.619,275.707a7.512,7.512,0,1,0-7.512-7.512,7.512,7.512,0,0,0,7.512,7.512" transform="translate(-45.82 -209.158)" fill="#88ef9c"/><path d="M65.753,275.994a7.512,7.512,0,1,0-7.512-7.512,7.512,7.512,0,0,0,7.512,7.512" transform="translate(-46.73 -209.388)" fill="#87ef9b"/><path d="M66.894,276.267a7.512,7.512,0,1,0-7.512-7.512,7.512,7.512,0,0,0,7.512,7.512" transform="translate(-47.645 -209.607)" fill="#86ee9a"/><path d="M68.041,276.529a7.512,7.512,0,1,0-7.512-7.513,7.513,7.513,0,0,0,7.512,7.513" transform="translate(-48.565 -209.817)" fill="#85ee99"/><path d="M69.2,276.777a7.512,7.512,0,1,0-7.512-7.512,7.512,7.512,0,0,0,7.512,7.512" transform="translate(-49.491 -210.016)" fill="#84ee98"/><path d="M70.356,277.014a7.512,7.512,0,1,0-7.512-7.512,7.512,7.512,0,0,0,7.512,7.512" transform="translate(-50.423 -210.206)" fill="#83ee97"/><path d="M71.523,277.235a7.512,7.512,0,1,0-7.512-7.513,7.512,7.512,0,0,0,7.512,7.513" transform="translate(-51.359 -210.384)" fill="#82ee97"/><path d="M72.7,277.444a7.512,7.512,0,1,0-7.512-7.512,7.512,7.512,0,0,0,7.512,7.512" transform="translate(-52.3 -210.551)" fill="#81ed96"/><path d="M73.876,277.64a7.512,7.512,0,1,0-7.512-7.512,7.512,7.512,0,0,0,7.512,7.512" transform="translate(-53.247 -210.709)" fill="#80ed95"/><path d="M75.062,277.823a7.512,7.512,0,1,0-7.512-7.512,7.512,7.512,0,0,0,7.512,7.512" transform="translate(-54.199 -210.855)" fill="#7fed94"/><path d="M76.254,277.992a7.512,7.512,0,1,0-7.512-7.512,7.512,7.512,0,0,0,7.512,7.512" transform="translate(-55.155 -210.991)" fill="#7eed93"/><path d="M77.452,278.147a7.512,7.512,0,1,0-7.512-7.512,7.512,7.512,0,0,0,7.512,7.512" transform="translate(-56.116 -211.115)" fill="#7ded92"/><path d="M78.655,278.289a7.512,7.512,0,1,0-7.512-7.512,7.512,7.512,0,0,0,7.512,7.512" transform="translate(-57.081 -211.229)" fill="#7ced91"/><path d="M79.864,278.416a7.512,7.512,0,1,0-7.512-7.512,7.512,7.512,0,0,0,7.512,7.512" transform="translate(-58.051 -211.331)" fill="#7bec90"/><path d="M81.078,278.53a7.512,7.512,0,1,0-7.512-7.512,7.512,7.512,0,0,0,7.512,7.512" transform="translate(-59.026 -211.423)" fill="#7aec8f"/><path d="M82.3,278.63a7.512,7.512,0,1,0-7.512-7.513A7.512,7.512,0,0,0,82.3,278.63" transform="translate(-60.004 -211.503)" fill="#79ec8e"/><path d="M83.523,278.716A7.512,7.512,0,1,0,76.01,271.2a7.512,7.512,0,0,0,7.513,7.512" transform="translate(-60.986 -211.572)" fill="#78ec8e"/><path d="M84.752,278.787a7.512,7.512,0,1,0-7.512-7.512,7.512,7.512,0,0,0,7.512,7.512" transform="translate(-61.973 -211.629)" fill="#77ec8d"/><path d="M85.987,278.844a7.512,7.512,0,1,0-7.512-7.513,7.513,7.513,0,0,0,7.512,7.513" transform="translate(-62.964 -211.675)" fill="#76eb8c"/><path d="M87.227,278.887a7.512,7.512,0,1,0-7.512-7.512,7.512,7.512,0,0,0,7.512,7.512" transform="translate(-63.959 -211.709)" fill="#75eb8b"/><path d="M88.471,278.914a7.512,7.512,0,1,0-7.512-7.512,7.512,7.512,0,0,0,7.512,7.512" transform="translate(-64.957 -211.731)" fill="#74eb8a"/><path d="M89.719,278.928a7.512,7.512,0,1,0-7.512-7.512,7.512,7.512,0,0,0,7.512,7.512" transform="translate(-65.959 -211.742)" fill="#73eb89"/><path d="M90.971,278.926a7.512,7.512,0,1,0-7.512-7.512,7.512,7.512,0,0,0,7.512,7.512" transform="translate(-66.963 -211.74)" fill="#72eb88"/><path d="M92.218,278.91a7.512,7.512,0,1,0-7.512-7.512,7.512,7.512,0,0,0,7.512,7.512" transform="translate(-67.964 -211.728)" fill="#71eb87"/><path d="M93.461,278.879a7.512,7.512,0,1,0-7.512-7.512,7.512,7.512,0,0,0,7.512,7.512" transform="translate(-68.961 -211.703)" fill="#70ea86"/><path d="M94.7,278.834a7.512,7.512,0,1,0-7.512-7.512,7.512,7.512,0,0,0,7.512,7.512" transform="translate(-69.955 -211.667)" fill="#6fea85"/><path d="M95.934,278.774a7.512,7.512,0,1,0-7.512-7.512,7.512,7.512,0,0,0,7.512,7.512" transform="translate(-70.945 -211.618)" fill="#6eea85"/><path d="M97.163,278.7a7.512,7.512,0,1,0-7.512-7.512,7.512,7.512,0,0,0,7.512,7.512" transform="translate(-71.931 -211.559)" fill="#6dea84"/><path d="M98.387,278.611a7.512,7.512,0,1,0-7.512-7.513,7.512,7.512,0,0,0,7.512,7.513" transform="translate(-72.913 -211.488)" fill="#6cea83"/><path d="M99.605,278.509A7.512,7.512,0,1,0,92.093,271a7.512,7.512,0,0,0,7.512,7.512" transform="translate(-73.891 -211.406)" fill="#6be982"/><path d="M100.818,278.392a7.512,7.512,0,1,0-7.512-7.513,7.513,7.513,0,0,0,7.512,7.513" transform="translate(-74.864 -211.312)" fill="#6ae981"/><path d="M102.026,278.262a7.512,7.512,0,1,0-7.512-7.512,7.512,7.512,0,0,0,7.512,7.512" transform="translate(-75.833 -211.208)" fill="#69e980"/><path d="M103.229,278.118a7.512,7.512,0,1,0-7.513-7.512,7.512,7.512,0,0,0,7.513,7.512" transform="translate(-76.798 -211.092)" fill="#68e97f"/><path d="M104.425,277.96a7.512,7.512,0,1,0-7.512-7.513,7.513,7.513,0,0,0,7.512,7.513" transform="translate(-77.758 -210.965)" fill="#67e97e"/><path d="M105.615,277.788a7.512,7.512,0,1,0-7.512-7.512,7.512,7.512,0,0,0,7.512,7.512" transform="translate(-78.713 -210.827)" fill="#66e87d"/><path d="M106.8,277.6a7.512,7.512,0,1,0-7.512-7.512A7.512,7.512,0,0,0,106.8,277.6" transform="translate(-79.664 -210.679)" fill="#65e87c"/><path d="M107.979,277.4a7.512,7.512,0,1,0-7.513-7.512,7.512,7.512,0,0,0,7.513,7.512" transform="translate(-80.609 -210.52)" fill="#64e87c"/><path d="M109.151,277.193a7.512,7.512,0,1,0-7.512-7.512,7.512,7.512,0,0,0,7.512,7.512" transform="translate(-81.55 -210.35)" fill="#63e87b"/><path d="M110.317,276.969a7.512,7.512,0,1,0-7.512-7.512,7.512,7.512,0,0,0,7.512,7.512" transform="translate(-82.485 -210.17)" fill="#62e87a"/><path d="M111.477,276.73a7.512,7.512,0,1,0-7.512-7.512,7.512,7.512,0,0,0,7.512,7.512" transform="translate(-83.416 -209.978)" fill="#61e879"/><path d="M112.629,276.479a7.512,7.512,0,1,0-7.512-7.512,7.512,7.512,0,0,0,7.512,7.512" transform="translate(-84.34 -209.777)" fill="#60e778"/><path d="M113.775,276.216a7.512,7.512,0,1,0-7.512-7.512,7.512,7.512,0,0,0,7.512,7.512" transform="translate(-85.26 -209.566)" fill="#5fe777"/><path d="M114.915,275.938a7.512,7.512,0,1,0-7.512-7.512,7.512,7.512,0,0,0,7.512,7.512" transform="translate(-86.175 -209.343)" fill="#5ee776"/><path d="M116.047,275.649a7.512,7.512,0,1,0-7.512-7.513,7.513,7.513,0,0,0,7.512,7.513" transform="translate(-87.083 -209.111)" fill="#5de775"/><path d="M117.172,275.348a7.512,7.512,0,1,0-7.512-7.512,7.512,7.512,0,0,0,7.512,7.512" transform="translate(-87.985 -208.87)" fill="#5ce774"/><path d="M118.29,275.033a7.512,7.512,0,1,0-7.512-7.513,7.513,7.513,0,0,0,7.512,7.513" transform="translate(-88.883 -208.617)" fill="#5be673"/><path d="M119.4,274.706a7.512,7.512,0,1,0-7.512-7.512,7.512,7.512,0,0,0,7.512,7.512" transform="translate(-89.773 -208.355)" fill="#5ae673"/><path d="M120.5,274.367a7.512,7.512,0,1,0-7.512-7.512,7.512,7.512,0,0,0,7.512,7.512" transform="translate(-90.658 -208.083)" fill="#59e672"/><path d="M121.6,274.016a7.512,7.512,0,1,0-7.512-7.512,7.512,7.512,0,0,0,7.512,7.512" transform="translate(-91.537 -207.801)" fill="#58e671"/><path d="M122.686,273.653a7.512,7.512,0,1,0-7.512-7.513,7.513,7.513,0,0,0,7.512,7.513" transform="translate(-92.41 -207.51)" fill="#57e670"/><path d="M123.765,273.278a7.512,7.512,0,1,0-7.512-7.512,7.512,7.512,0,0,0,7.512,7.512" transform="translate(-93.275 -207.209)" fill="#56e66f"/><path d="M124.836,272.891a7.512,7.512,0,1,0-7.512-7.512,7.512,7.512,0,0,0,7.512,7.512" transform="translate(-94.135 -206.898)" fill="#55e56e"/><path d="M125.9,272.492a7.512,7.512,0,1,0-7.512-7.512,7.512,7.512,0,0,0,7.512,7.512" transform="translate(-94.988 -206.578)" fill="#54e56d"/><path d="M126.955,272.082a7.512,7.512,0,1,0-7.512-7.513,7.512,7.512,0,0,0,7.512,7.513" transform="translate(-95.835 -206.249)" fill="#53e56c"/><path d="M128,271.66a7.512,7.512,0,1,0-7.512-7.512A7.512,7.512,0,0,0,128,271.66" transform="translate(-96.674 -205.911)" fill="#52e56b"/><path d="M129.039,271.227a7.512,7.512,0,1,0-7.512-7.512,7.512,7.512,0,0,0,7.512,7.512" transform="translate(-97.507 -205.563)" fill="#51e56a"/><path d="M130.068,270.782a7.512,7.512,0,1,0-7.512-7.512,7.512,7.512,0,0,0,7.512,7.512" transform="translate(-98.333 -205.206)" fill="#50e46a"/><path d="M131.088,270.327a7.512,7.512,0,1,0-7.512-7.512,7.512,7.512,0,0,0,7.512,7.512" transform="translate(-99.151 -204.841)" fill="#4fe469"/><path d="M132.1,269.859a7.512,7.512,0,1,0-7.512-7.512,7.512,7.512,0,0,0,7.512,7.512" transform="translate(-99.963 -204.466)" fill="#4ee468"/><path d="M133.1,269.382a7.512,7.512,0,1,0-7.512-7.513,7.513,7.513,0,0,0,7.512,7.513" transform="translate(-100.767 -204.083)" fill="#4de467"/><path d="M134.1,268.892a7.512,7.512,0,1,0-7.512-7.512,7.512,7.512,0,0,0,7.512,7.512" transform="translate(-101.564 -203.69)" fill="#4ce466"/><path d="M135.079,268.393a7.512,7.512,0,1,0-7.512-7.512,7.512,7.512,0,0,0,7.512,7.512" transform="translate(-102.353 -203.289)" fill="#4be465"/><path d="M136.053,267.883a7.512,7.512,0,1,0-7.512-7.513,7.512,7.512,0,0,0,7.512,7.513" transform="translate(-103.135 -202.88)" fill="#4ae364"/><path d="M137.018,267.362a7.512,7.512,0,1,0-7.512-7.512,7.512,7.512,0,0,0,7.512,7.512" transform="translate(-103.909 -202.462)" fill="#49e363"/><path d="M137.972,266.83a7.512,7.512,0,1,0-7.512-7.512,7.512,7.512,0,0,0,7.512,7.512" transform="translate(-104.674 -202.035)" fill="#48e362"/><path d="M138.917,266.289a7.512,7.512,0,1,0-7.512-7.512,7.512,7.512,0,0,0,7.512,7.512" transform="translate(-105.433 -201.601)" fill="#47e361"/><path d="M139.852,265.736a7.512,7.512,0,1,0-7.512-7.512,7.512,7.512,0,0,0,7.512,7.512" transform="translate(-106.183 -201.157)" fill="#46e361"/><path d="M140.777,265.175a7.512,7.512,0,1,0-7.512-7.512,7.512,7.512,0,0,0,7.512,7.512" transform="translate(-106.925 -200.707)" fill="#45e260"/><path d="M141.692,264.6a7.512,7.512,0,1,0-7.512-7.512,7.512,7.512,0,0,0,7.512,7.512" transform="translate(-107.659 -200.247)" fill="#44e25f"/><path d="M142.6,264.019a7.512,7.512,0,1,0-7.512-7.513,7.512,7.512,0,0,0,7.512,7.513" transform="translate(-108.384 -199.78)" fill="#43e25e"/><path d="M143.49,263.428a7.512,7.512,0,1,0-7.512-7.512,7.512,7.512,0,0,0,7.512,7.512" transform="translate(-109.102 -199.306)" fill="#42e25d"/><path d="M144.373,262.825a7.512,7.512,0,1,0-7.512-7.513,7.512,7.512,0,0,0,7.512,7.513" transform="translate(-109.81 -198.822)" fill="#41e25c"/><path d="M145.245,262.214a7.512,7.512,0,1,0-7.512-7.512,7.512,7.512,0,0,0,7.512,7.512" transform="translate(-110.51 -198.332)" fill="#40e15b"/><path d="M146.106,261.593a7.512,7.512,0,1,0-7.512-7.512,7.512,7.512,0,0,0,7.512,7.512" transform="translate(-111.201 -197.833)" fill="#3fe15a"/><path d="M146.956,260.962a7.512,7.512,0,1,0-7.512-7.513,7.512,7.512,0,0,0,7.512,7.513" transform="translate(-111.883 -197.327)" fill="#3ee159"/><path d="M147.8,260.322a7.512,7.512,0,1,0-7.512-7.512,7.512,7.512,0,0,0,7.512,7.512" transform="translate(-112.556 -196.814)" fill="#3de158"/><path d="M148.623,259.673a7.512,7.512,0,1,0-7.512-7.512,7.512,7.512,0,0,0,7.512,7.512" transform="translate(-113.22 -196.293)" fill="#3ce158"/><path d="M149.44,259.015a7.512,7.512,0,1,0-7.513-7.512,7.512,7.512,0,0,0,7.513,7.512" transform="translate(-113.875 -195.765)" fill="#3be157"/><path d="M150.244,258.347a7.512,7.512,0,1,0-7.512-7.513,7.513,7.513,0,0,0,7.512,7.513" transform="translate(-114.521 -195.229)" fill="#3ae056"/><path d="M151.037,257.67a7.512,7.512,0,1,0-7.512-7.512,7.512,7.512,0,0,0,7.512,7.512" transform="translate(-115.157 -194.686)" fill="#39e055"/><path d="M148.708,259.6a7.512,7.512,0,1,0-7.512-7.512,7.512,7.512,0,0,0,7.512,7.512" transform="translate(-113.288 -196.237)" fill="#38e054"/><path d="M152.584,256.295a7.512,7.512,0,1,0-7.512-7.512,7.512,7.512,0,0,0,7.512,7.512" transform="translate(-116.398 -193.583)" fill="#39e053"/><path d="M153.337,255.6a7.512,7.512,0,1,0-7.512-7.513,7.513,7.513,0,0,0,7.512,7.513" transform="translate(-117.002 -193.022)" fill="#3ae053"/><path d="M154.079,254.888a7.512,7.512,0,1,0-7.512-7.512,7.512,7.512,0,0,0,7.512,7.512" transform="translate(-117.598 -192.454)" fill="#3be152"/><path d="M154.808,254.172a7.512,7.512,0,1,0-7.512-7.512,7.512,7.512,0,0,0,7.512,7.512" transform="translate(-118.183 -191.879)" fill="#3ce152"/><path d="M155.525,253.448a7.512,7.512,0,1,0-7.512-7.513,7.512,7.512,0,0,0,7.512,7.513" transform="translate(-118.758 -191.298)" fill="#3de151"/><path d="M156.229,252.716a7.512,7.512,0,1,0-7.512-7.512,7.512,7.512,0,0,0,7.512,7.512" transform="translate(-119.323 -190.711)" fill="#3ee151"/><path d="M156.921,251.975a7.512,7.512,0,1,0-7.512-7.512,7.512,7.512,0,0,0,7.512,7.512" transform="translate(-119.878 -190.116)" fill="#3fe150"/><path d="M157.6,251.227a7.512,7.512,0,1,0-7.512-7.513,7.512,7.512,0,0,0,7.512,7.513" transform="translate(-120.424 -189.516)" fill="#40e250"/><path d="M158.267,250.472a7.512,7.512,0,1,0-7.512-7.513,7.513,7.513,0,0,0,7.512,7.513" transform="translate(-120.958 -188.91)" fill="#41e24f"/><path d="M158.92,249.708a7.512,7.512,0,1,0-7.512-7.513,7.513,7.513,0,0,0,7.512,7.513" transform="translate(-121.482 -188.297)" fill="#42e24f"/><path d="M159.56,248.936a7.512,7.512,0,1,0-7.512-7.512,7.512,7.512,0,0,0,7.512,7.512" transform="translate(-121.995 -187.678)" fill="#43e24e"/><path d="M160.186,248.158a7.512,7.512,0,1,0-7.512-7.512,7.512,7.512,0,0,0,7.512,7.512" transform="translate(-122.498 -187.054)" fill="#44e24e"/><path d="M160.8,247.372a7.512,7.512,0,1,0-7.512-7.512,7.512,7.512,0,0,0,7.512,7.512" transform="translate(-122.99 -186.423)" fill="#45e34d"/><path d="M161.4,246.578a7.512,7.512,0,1,0-7.512-7.513,7.512,7.512,0,0,0,7.512,7.513" transform="translate(-123.472 -185.786)" fill="#46e34d"/><path d="M161.986,245.777a7.512,7.512,0,1,0-7.512-7.513,7.513,7.513,0,0,0,7.512,7.513" transform="translate(-123.942 -185.143)" fill="#47e34c"/><path d="M162.559,244.97a7.512,7.512,0,1,0-7.512-7.512,7.512,7.512,0,0,0,7.512,7.512" transform="translate(-124.402 -184.496)" fill="#48e34c"/><path d="M163.118,244.154a7.512,7.512,0,1,0-7.512-7.512,7.512,7.512,0,0,0,7.512,7.512" transform="translate(-124.85 -183.841)" fill="#49e34b"/><path d="M163.663,243.333a7.512,7.512,0,1,0-7.512-7.512,7.512,7.512,0,0,0,7.512,7.512" transform="translate(-125.287 -183.182)" fill="#4ae34b"/><path d="M164.193,242.5a7.512,7.512,0,1,0-7.512-7.512,7.512,7.512,0,0,0,7.512,7.512" transform="translate(-125.713 -182.517)" fill="#4be44a"/><path d="M164.709,241.669a7.512,7.512,0,1,0-7.512-7.512,7.512,7.512,0,0,0,7.512,7.512" transform="translate(-126.127 -181.847)" fill="#4ce44a"/><path d="M165.211,240.827a7.512,7.512,0,1,0-7.512-7.512,7.512,7.512,0,0,0,7.512,7.512" transform="translate(-126.529 -181.172)" fill="#4de449"/><path d="M165.7,239.978a7.512,7.512,0,1,0-7.512-7.513,7.513,7.513,0,0,0,7.512,7.513" transform="translate(-126.92 -180.491)" fill="#4ee449"/><path d="M166.171,239.124a7.512,7.512,0,1,0-7.512-7.512,7.512,7.512,0,0,0,7.512,7.512" transform="translate(-127.3 -179.805)" fill="#4fe448"/><path d="M166.629,238.263a7.512,7.512,0,1,0-7.512-7.513,7.513,7.513,0,0,0,7.512,7.513" transform="translate(-127.667 -179.115)" fill="#50e547"/><path d="M167.072,237.395a7.512,7.512,0,1,0-7.512-7.512,7.512,7.512,0,0,0,7.512,7.512" transform="translate(-128.023 -178.418)" fill="#51e547"/><path d="M167.5,236.522a7.512,7.512,0,1,0-7.512-7.512,7.512,7.512,0,0,0,7.512,7.512" transform="translate(-128.365 -177.718)" fill="#52e546"/><path d="M167.912,235.642a7.512,7.512,0,1,0-7.512-7.513,7.512,7.512,0,0,0,7.512,7.513" transform="translate(-128.697 -177.012)" fill="#53e546"/><path d="M168.31,234.758a7.512,7.512,0,1,0-7.512-7.512,7.512,7.512,0,0,0,7.512,7.512" transform="translate(-129.016 -176.302)" fill="#54e545"/><path d="M168.692,233.866a7.512,7.512,0,1,0-7.512-7.512,7.512,7.512,0,0,0,7.512,7.512" transform="translate(-129.322 -175.587)" fill="#55e645"/><path d="M169.058,232.97a7.512,7.512,0,1,0-7.512-7.513,7.513,7.513,0,0,0,7.512,7.513" transform="translate(-129.616 -174.868)" fill="#56e644"/><path d="M169.409,232.067a7.512,7.512,0,1,0-7.512-7.513,7.513,7.513,0,0,0,7.512,7.513" transform="translate(-129.898 -174.143)" fill="#57e644"/><path d="M169.744,231.16a7.512,7.512,0,1,0-7.512-7.512,7.512,7.512,0,0,0,7.512,7.512" transform="translate(-130.167 -173.415)" fill="#58e643"/><path d="M170.063,230.247a7.512,7.512,0,1,0-7.512-7.512,7.512,7.512,0,0,0,7.512,7.512" transform="translate(-130.422 -172.683)" fill="#59e643"/><path d="M170.366,229.328a7.512,7.512,0,1,0-7.512-7.513,7.512,7.512,0,0,0,7.512,7.513" transform="translate(-130.666 -171.946)" fill="#5ae742"/><path d="M170.653,228.4a7.512,7.512,0,1,0-7.512-7.512,7.512,7.512,0,0,0,7.512,7.512" transform="translate(-130.896 -171.204)" fill="#5be742"/><path d="M170.923,227.475a7.512,7.512,0,1,0-7.512-7.512,7.512,7.512,0,0,0,7.512,7.512" transform="translate(-131.112 -170.459)" fill="#5ce741"/><path d="M171.177,226.542a7.512,7.512,0,1,0-7.512-7.512,7.512,7.512,0,0,0,7.512,7.512" transform="translate(-131.316 -169.71)" fill="#5de741"/><path d="M171.415,225.6a7.512,7.512,0,1,0-7.512-7.512,7.512,7.512,0,0,0,7.512,7.512" transform="translate(-131.507 -168.958)" fill="#5ee740"/><path d="M171.635,224.661a7.512,7.512,0,1,0-7.512-7.512,7.512,7.512,0,0,0,7.512,7.512" transform="translate(-131.684 -168.201)" fill="#5fe840"/><path d="M171.839,223.713a7.512,7.512,0,1,0-7.512-7.513,7.512,7.512,0,0,0,7.512,7.513" transform="translate(-131.847 -167.44)" fill="#60e83f"/><path d="M172.026,222.761a7.512,7.512,0,1,0-7.512-7.512,7.512,7.512,0,0,0,7.512,7.512" transform="translate(-131.997 -166.677)" fill="#61e83f"/><path d="M172.2,221.8a7.512,7.512,0,1,0-7.512-7.513A7.513,7.513,0,0,0,172.2,221.8" transform="translate(-132.134 -165.909)" fill="#62e83e"/><path d="M172.348,220.843a7.512,7.512,0,1,0-7.512-7.512,7.512,7.512,0,0,0,7.512,7.512" transform="translate(-132.256 -165.138)" fill="#63e83e"/><path d="M172.483,219.877a7.512,7.512,0,1,0-7.512-7.513,7.513,7.513,0,0,0,7.512,7.513" transform="translate(-132.364 -164.363)" fill="#64e83d"/><path d="M172.6,218.907a7.512,7.512,0,1,0-7.512-7.513,7.512,7.512,0,0,0,7.512,7.513" transform="translate(-132.459 -163.584)" fill="#65e93d"/><path d="M172.7,217.933a7.512,7.512,0,1,0-7.512-7.513,7.513,7.513,0,0,0,7.512,7.513" transform="translate(-132.54 -162.803)" fill="#66e93c"/><path d="M172.784,216.956a7.512,7.512,0,1,0-7.512-7.513,7.512,7.512,0,0,0,7.512,7.513" transform="translate(-132.606 -162.019)" fill="#67e93b"/><path d="M172.849,215.974a7.512,7.512,0,1,0-7.512-7.513,7.513,7.513,0,0,0,7.512,7.513" transform="translate(-132.658 -161.231)" fill="#68e93b"/><path d="M172.9,214.989a7.512,7.512,0,1,0-7.512-7.512,7.512,7.512,0,0,0,7.512,7.512" transform="translate(-132.695 -160.441)" fill="#69e93a"/><path d="M172.923,214a7.512,7.512,0,1,0-7.512-7.512A7.512,7.512,0,0,0,172.923,214" transform="translate(-132.717 -159.648)" fill="#6aea3a"/><path d="M172.934,213.009a7.512,7.512,0,1,0-7.512-7.512,7.512,7.512,0,0,0,7.512,7.512" transform="translate(-132.726 -158.852)" fill="#6bea39"/><path d="M172.925,212.015a7.512,7.512,0,1,0-7.512-7.513,7.512,7.512,0,0,0,7.512,7.513" transform="translate(-132.719 -158.055)" fill="#6cea39"/><path d="M172.9,211.026a7.512,7.512,0,1,0-7.512-7.513,7.512,7.512,0,0,0,7.512,7.513" transform="translate(-132.698 -157.261)" fill="#6dea38"/><path d="M172.854,210.041a7.512,7.512,0,1,0-7.512-7.512,7.512,7.512,0,0,0,7.512,7.512" transform="translate(-132.662 -156.471)" fill="#6eea38"/><path d="M172.792,209.058a7.512,7.512,0,1,0-7.512-7.512,7.512,7.512,0,0,0,7.512,7.512" transform="translate(-132.612 -155.682)" fill="#6feb37"/><path d="M172.711,208.081a7.512,7.512,0,1,0-7.512-7.512,7.512,7.512,0,0,0,7.512,7.512" transform="translate(-132.547 -154.898)" fill="#70eb37"/><path d="M172.613,207.106a7.512,7.512,0,1,0-7.512-7.512,7.512,7.512,0,0,0,7.512,7.512" transform="translate(-132.468 -154.116)" fill="#71eb36"/><path d="M172.5,206.137a7.512,7.512,0,1,0-7.512-7.513,7.513,7.513,0,0,0,7.512,7.513" transform="translate(-132.376 -153.338)" fill="#72eb36"/><path d="M172.364,205.171a7.512,7.512,0,1,0-7.512-7.513,7.513,7.513,0,0,0,7.512,7.513" transform="translate(-132.269 -152.563)" fill="#73eb35"/><path d="M172.214,204.209A7.512,7.512,0,1,0,164.7,196.7a7.512,7.512,0,0,0,7.512,7.513" transform="translate(-132.148 -151.791)" fill="#74ec35"/><path d="M172.046,203.252a7.512,7.512,0,1,0-7.512-7.512,7.512,7.512,0,0,0,7.512,7.512" transform="translate(-132.014 -151.024)" fill="#75ec34"/><path d="M171.861,202.3a7.512,7.512,0,1,0-7.512-7.513,7.513,7.513,0,0,0,7.512,7.513" transform="translate(-131.865 -150.259)" fill="#76ec34"/><path d="M171.659,201.35a7.512,7.512,0,1,0-7.512-7.512,7.512,7.512,0,0,0,7.512,7.512" transform="translate(-131.703 -149.497)" fill="#77ec33"/><path d="M171.44,200.406a7.512,7.512,0,1,0-7.512-7.512,7.512,7.512,0,0,0,7.512,7.512" transform="translate(-131.527 -148.74)" fill="#78ec33"/><path d="M171.205,199.468a7.512,7.512,0,1,0-7.512-7.513,7.513,7.513,0,0,0,7.512,7.513" transform="translate(-131.339 -147.987)" fill="#79ed32"/><path d="M170.953,198.533a7.512,7.512,0,1,0-7.512-7.512,7.512,7.512,0,0,0,7.512,7.512" transform="translate(-131.137 -147.237)" fill="#7aed32"/><path d="M170.684,197.6a7.512,7.512,0,1,0-7.512-7.513,7.513,7.513,0,0,0,7.512,7.513" transform="translate(-130.921 -146.492)" fill="#7bed31"/><path d="M170.4,196.681a7.512,7.512,0,1,0-7.512-7.512,7.512,7.512,0,0,0,7.512,7.512" transform="translate(-130.692 -145.751)" fill="#7ced31"/><path d="M170.1,195.762a7.512,7.512,0,1,0-7.512-7.512,7.512,7.512,0,0,0,7.512,7.512" transform="translate(-130.451 -145.014)" fill="#7ded30"/><path d="M169.781,194.847a7.512,7.512,0,1,0-7.512-7.513,7.513,7.513,0,0,0,7.512,7.513" transform="translate(-130.196 -144.28)" fill="#7eed2f"/><path d="M169.447,193.939a7.512,7.512,0,1,0-7.512-7.512,7.512,7.512,0,0,0,7.512,7.512" transform="translate(-129.928 -143.551)" fill="#7fee2f"/><path d="M169.1,193.036a7.512,7.512,0,1,0-7.512-7.512,7.512,7.512,0,0,0,7.512,7.512" transform="translate(-129.649 -142.827)" fill="#80ee2e"/><path d="M168.734,192.138a7.512,7.512,0,1,0-7.512-7.512,7.512,7.512,0,0,0,7.512,7.512" transform="translate(-129.356 -142.106)" fill="#81ee2e"/><path d="M168.354,191.247a7.512,7.512,0,1,0-7.513-7.512,7.512,7.512,0,0,0,7.513,7.512" transform="translate(-129.05 -141.391)" fill="#82ee2d"/><path d="M167.958,190.361a7.512,7.512,0,1,0-7.512-7.513,7.512,7.512,0,0,0,7.512,7.513" transform="translate(-128.734 -140.68)" fill="#83ee2d"/><path d="M167.547,189.481a7.512,7.512,0,1,0-7.512-7.513,7.513,7.513,0,0,0,7.512,7.513" transform="translate(-128.404 -139.974)" fill="#84ef2c"/><path d="M167.121,188.607a7.512,7.512,0,1,0-7.512-7.513,7.513,7.513,0,0,0,7.512,7.513" transform="translate(-128.062 -139.273)" fill="#85ef2c"/><path d="M166.679,187.739a7.512,7.512,0,1,0-7.512-7.512,7.512,7.512,0,0,0,7.512,7.512" transform="translate(-127.707 -138.577)" fill="#86ef2b"/><path d="M166.223,186.878a7.512,7.512,0,1,0-7.512-7.512,7.512,7.512,0,0,0,7.512,7.512" transform="translate(-127.341 -137.886)" fill="#87ef2b"/><path d="M165.752,186.022a7.512,7.512,0,1,0-7.512-7.512,7.512,7.512,0,0,0,7.512,7.512" transform="translate(-126.964 -137.199)" fill="#88ef2a"/><path d="M165.267,185.173a7.512,7.512,0,1,0-7.512-7.513,7.512,7.512,0,0,0,7.512,7.513" transform="translate(-126.574 -136.518)" fill="#89f02a"/><path d="M164.766,184.33a7.512,7.512,0,1,0-7.512-7.512,7.512,7.512,0,0,0,7.512,7.512" transform="translate(-126.172 -135.842)" fill="#8af029"/><path d="M164.251,183.494a7.512,7.512,0,1,0-7.512-7.512,7.512,7.512,0,0,0,7.512,7.512" transform="translate(-125.759 -135.171)" fill="#8bf029"/><path d="M163.723,182.665a7.512,7.512,0,1,0-7.512-7.513,7.513,7.513,0,0,0,7.512,7.513" transform="translate(-125.336 -134.506)" fill="#8cf028"/><path d="M163.18,181.843a7.512,7.512,0,1,0-7.512-7.512,7.512,7.512,0,0,0,7.512,7.512" transform="translate(-124.9 -133.846)" fill="#8df028"/><path d="M162.623,181.026a7.512,7.512,0,1,0-7.512-7.512,7.512,7.512,0,0,0,7.512,7.512" transform="translate(-124.453 -133.191)" fill="#8ef127"/><path d="M162.052,180.218a7.512,7.512,0,1,0-7.512-7.512,7.512,7.512,0,0,0,7.512,7.512" transform="translate(-123.995 -132.542)" fill="#8ff127"/><path d="M161.467,179.416a7.512,7.512,0,1,0-7.512-7.512,7.512,7.512,0,0,0,7.512,7.512" transform="translate(-123.525 -131.899)" fill="#90f126"/><path d="M160.868,178.622a7.512,7.512,0,1,0-7.512-7.513,7.512,7.512,0,0,0,7.512,7.513" transform="translate(-123.045 -131.262)" fill="#91f126"/><path d="M160.256,177.835a7.512,7.512,0,1,0-7.512-7.513,7.513,7.513,0,0,0,7.512,7.513" transform="translate(-122.554 -130.63)" fill="#92f125"/><path d="M159.631,177.056a7.512,7.512,0,1,0-7.512-7.512,7.512,7.512,0,0,0,7.512,7.512" transform="translate(-122.052 -130.005)" fill="#93f225"/><path d="M158.993,176.283a7.512,7.512,0,1,0-7.512-7.513,7.513,7.513,0,0,0,7.512,7.513" transform="translate(-121.54 -129.385)" fill="#94f224"/><path d="M158.341,175.518a7.512,7.512,0,1,0-7.512-7.513,7.513,7.513,0,0,0,7.512,7.513" transform="translate(-121.017 -128.771)" fill="#95f223"/><path d="M157.676,174.762a7.512,7.512,0,1,0-7.512-7.513,7.512,7.512,0,0,0,7.512,7.513" transform="translate(-120.484 -128.165)" fill="#96f223"/><path d="M157,174.013a7.512,7.512,0,1,0-7.512-7.513A7.513,7.513,0,0,0,157,174.013" transform="translate(-119.941 -127.564)" fill="#97f222"/><path d="M156.308,173.271a7.512,7.512,0,1,0-7.512-7.513,7.512,7.512,0,0,0,7.512,7.513" transform="translate(-119.386 -126.968)" fill="#98f222"/><path d="M155.605,172.538a7.512,7.512,0,1,0-7.512-7.512,7.512,7.512,0,0,0,7.512,7.512" transform="translate(-118.822 -126.38)" fill="#99f321"/><path d="M154.89,171.813a7.512,7.512,0,1,0-7.512-7.513,7.513,7.513,0,0,0,7.512,7.513" transform="translate(-118.248 -125.799)" fill="#9af321"/><path d="M154.162,171.1a7.512,7.512,0,1,0-7.512-7.513,7.512,7.512,0,0,0,7.512,7.513" transform="translate(-117.664 -125.223)" fill="#9bf320"/><path d="M153.421,170.389a7.512,7.512,0,1,0-7.512-7.512,7.512,7.512,0,0,0,7.512,7.512" transform="translate(-117.07 -124.656)" fill="#9cf320"/><path d="M152.669,169.688a7.512,7.512,0,1,0-7.512-7.513,7.513,7.513,0,0,0,7.512,7.513" transform="translate(-116.466 -124.094)" fill="#9df31f"/><path d="M151.905,169a7.512,7.512,0,1,0-7.512-7.512A7.512,7.512,0,0,0,151.905,169" transform="translate(-115.853 -123.539)" fill="#9ef41f"/><path d="M151.129,168.314a7.512,7.512,0,1,0-7.512-7.512,7.512,7.512,0,0,0,7.512,7.512" transform="translate(-115.231 -122.991)" fill="#9ff41e"/><path d="M150.341,167.639a7.512,7.512,0,1,0-7.512-7.512,7.512,7.512,0,0,0,7.512,7.512" transform="translate(-114.599 -122.45)" fill="#a0f41e"/><path d="M149.542,166.974a7.512,7.512,0,1,0-7.512-7.513,7.512,7.512,0,0,0,7.512,7.513" transform="translate(-113.957 -121.916)" fill="#a1f41d"/><path d="M148.731,166.318a7.512,7.512,0,1,0-7.512-7.513,7.513,7.513,0,0,0,7.512,7.513" transform="translate(-113.307 -121.39)" fill="#a2f41d"/><path d="M147.909,165.671a7.512,7.512,0,1,0-7.512-7.512,7.512,7.512,0,0,0,7.512,7.512" transform="translate(-112.647 -120.871)" fill="#a3f51c"/><path d="M147.076,165.033a7.512,7.512,0,1,0-7.512-7.512,7.512,7.512,0,0,0,7.512,7.512" transform="translate(-111.979 -120.359)" fill="#a4f51c"/><path d="M146.231,164.4a7.512,7.512,0,1,0-7.512-7.512,7.512,7.512,0,0,0,7.512,7.512" transform="translate(-111.301 -119.854)" fill="#a5f51b"/><path d="M145.376,163.784a7.512,7.512,0,1,0-7.512-7.512,7.512,7.512,0,0,0,7.512,7.512" transform="translate(-110.615 -119.356)" fill="#a6f51b"/><path d="M144.509,163.175A7.512,7.512,0,1,0,137,155.662a7.512,7.512,0,0,0,7.512,7.512" transform="translate(-109.919 -118.868)" fill="#a7f51a"/><path d="M143.632,162.574a7.512,7.512,0,1,0-7.512-7.512,7.512,7.512,0,0,0,7.512,7.512" transform="translate(-109.216 -118.386)" fill="#a8f61a"/><path d="M142.745,161.983a7.512,7.512,0,1,0-7.512-7.512,7.512,7.512,0,0,0,7.512,7.512" transform="translate(-108.504 -117.911)" fill="#a9f619"/><path d="M141.847,161.4a7.512,7.512,0,1,0-7.512-7.512,7.512,7.512,0,0,0,7.512,7.512" transform="translate(-107.783 -117.444)" fill="#aaf619"/><path d="M140.939,160.83a7.512,7.512,0,1,0-7.512-7.512,7.512,7.512,0,0,0,7.512,7.512" transform="translate(-107.055 -116.986)" fill="#abf618"/><path d="M140.02,160.269a7.512,7.512,0,1,0-7.512-7.512,7.512,7.512,0,0,0,7.512,7.512" transform="translate(-106.318 -116.536)" fill="#acf617"/><path d="M139.092,159.718a7.512,7.512,0,1,0-7.512-7.513,7.512,7.512,0,0,0,7.512,7.513" transform="translate(-105.573 -116.094)" fill="#adf717"/><path d="M138.153,159.177a7.512,7.512,0,1,0-7.512-7.513,7.513,7.513,0,0,0,7.512,7.513" transform="translate(-104.82 -115.66)" fill="#aef716"/><path d="M137.205,158.646a7.512,7.512,0,1,0-7.512-7.512,7.512,7.512,0,0,0,7.512,7.512" transform="translate(-104.059 -115.234)" fill="#aff716"/><path d="M136.247,158.126a7.512,7.512,0,1,0-7.512-7.512,7.512,7.512,0,0,0,7.512,7.512" transform="translate(-103.29 -114.817)" fill="#b0f715"/><path d="M135.28,157.615a7.512,7.512,0,1,0-7.512-7.512,7.512,7.512,0,0,0,7.512,7.512" transform="translate(-102.514 -114.407)" fill="#b1f715"/><path d="M134.3,157.116a7.512,7.512,0,1,0-7.512-7.513,7.513,7.513,0,0,0,7.512,7.513" transform="translate(-101.731 -114.006)" fill="#b2f714"/><path d="M133.316,156.627a7.512,7.512,0,1,0-7.512-7.512,7.512,7.512,0,0,0,7.512,7.512" transform="translate(-100.939 -113.614)" fill="#b3f814"/><path d="M132.321,156.149a7.512,7.512,0,1,0-7.512-7.513,7.513,7.513,0,0,0,7.512,7.513" transform="translate(-100.14 -113.231)" fill="#b4f813"/><path d="M131.317,155.682a7.512,7.512,0,1,0-7.512-7.512,7.512,7.512,0,0,0,7.512,7.512" transform="translate(-99.335 -112.856)" fill="#b5f813"/><path d="M130.3,155.226a7.512,7.512,0,1,0-7.512-7.512,7.512,7.512,0,0,0,7.512,7.512" transform="translate(-98.522 -112.49)" fill="#b6f812"/><path d="M129.281,154.781a7.512,7.512,0,1,0-7.512-7.513,7.512,7.512,0,0,0,7.512,7.513" transform="translate(-97.701 -112.133)" fill="#b7f812"/><path d="M128.251,154.347a7.512,7.512,0,1,0-7.512-7.512,7.512,7.512,0,0,0,7.512,7.512" transform="translate(-96.875 -111.785)" fill="#b8f911"/><path d="M127.211,153.925a7.512,7.512,0,1,0-7.512-7.513,7.513,7.513,0,0,0,7.512,7.513" transform="translate(-96.04 -111.446)" fill="#b9f911"/><path d="M126.164,153.513A7.512,7.512,0,1,0,118.652,146a7.513,7.513,0,0,0,7.512,7.513" transform="translate(-95.2 -111.116)" fill="#baf910"/><path d="M125.108,153.114A7.512,7.512,0,1,0,117.6,145.6a7.512,7.512,0,0,0,7.512,7.512" transform="translate(-94.353 -110.795)" fill="#bbf910"/><path d="M124.044,152.725a7.512,7.512,0,1,0-7.512-7.512,7.512,7.512,0,0,0,7.512,7.512" transform="translate(-93.499 -110.483)" fill="#bcf90f"/><path d="M122.972,152.349a7.512,7.512,0,1,0-7.512-7.513,7.513,7.513,0,0,0,7.512,7.513" transform="translate(-92.639 -110.182)" fill="#bdfa0f"/><path d="M121.892,151.985a7.512,7.512,0,1,0-7.512-7.512,7.512,7.512,0,0,0,7.512,7.512" transform="translate(-91.773 -109.89)" fill="#befa0e"/><path d="M120.8,151.633a7.512,7.512,0,1,0-7.512-7.512,7.512,7.512,0,0,0,7.512,7.512" transform="translate(-90.9 -109.607)" fill="#bffa0e"/><path d="M119.709,151.292a7.512,7.512,0,1,0-7.512-7.512,7.512,7.512,0,0,0,7.512,7.512" transform="translate(-90.021 -109.334)" fill="#c0fa0d"/><path d="M118.606,150.963a7.512,7.512,0,1,0-7.512-7.512,7.512,7.512,0,0,0,7.512,7.512" transform="translate(-89.136 -109.07)" fill="#c1fa0d"/><path d="M117.5,150.646a7.512,7.512,0,1,0-7.512-7.512,7.512,7.512,0,0,0,7.512,7.512" transform="translate(-88.245 -108.815)" fill="#c2fb0c"/><path d="M116.378,150.343a7.512,7.512,0,1,0-7.512-7.513,7.512,7.512,0,0,0,7.512,7.513" transform="translate(-87.348 -108.572)" fill="#c3fb0b"/><path d="M115.254,150.052a7.512,7.512,0,1,0-7.512-7.512,7.512,7.512,0,0,0,7.512,7.512" transform="translate(-86.447 -108.339)" fill="#c4fb0b"/><path d="M114.123,149.772a7.512,7.512,0,1,0-7.512-7.512,7.512,7.512,0,0,0,7.512,7.512" transform="translate(-85.539 -108.114)" fill="#c5fb0a"/><path d="M112.984,149.506a7.512,7.512,0,1,0-7.512-7.512,7.512,7.512,0,0,0,7.512,7.512" transform="translate(-84.625 -107.901)" fill="#c6fb0a"/><path d="M111.839,149.252a7.512,7.512,0,1,0-7.512-7.513,7.513,7.513,0,0,0,7.512,7.513" transform="translate(-83.707 -107.697)" fill="#c7fc09"/><path d="M110.688,149.011a7.512,7.512,0,1,0-7.513-7.512,7.512,7.512,0,0,0,7.513,7.512" transform="translate(-82.782 -107.503)" fill="#c8fc09"/><path d="M109.529,148.783a7.512,7.512,0,1,0-7.512-7.512,7.512,7.512,0,0,0,7.512,7.512" transform="translate(-81.853 -107.32)" fill="#c9fc08"/><path d="M108.365,148.568a7.512,7.512,0,1,0-7.512-7.512,7.512,7.512,0,0,0,7.512,7.512" transform="translate(-80.919 -107.148)" fill="#cafc08"/><path d="M107.194,148.366a7.512,7.512,0,1,0-7.512-7.513,7.513,7.513,0,0,0,7.512,7.513" transform="translate(-79.98 -106.986)" fill="#cbfc07"/><path d="M106.017,148.178a7.512,7.512,0,1,0-7.512-7.512,7.512,7.512,0,0,0,7.512,7.512" transform="translate(-79.035 -106.835)" fill="#ccfc07"/><path d="M104.835,148a7.512,7.512,0,1,0-7.512-7.512A7.512,7.512,0,0,0,104.835,148" transform="translate(-78.087 -106.694)" fill="#cdfd06"/><path d="M103.645,147.841a7.512,7.512,0,1,0-7.512-7.512,7.512,7.512,0,0,0,7.512,7.512" transform="translate(-77.132 -106.565)" fill="#cefd06"/><path d="M102.451,147.692a7.512,7.512,0,1,0-7.512-7.512,7.512,7.512,0,0,0,7.512,7.512" transform="translate(-76.174 -106.445)" fill="#cffd05"/><path d="M101.251,147.557a7.512,7.512,0,1,0-7.512-7.512,7.512,7.512,0,0,0,7.512,7.512" transform="translate(-75.211 -106.337)" fill="#d0fd05"/><path d="M100.046,147.436a7.512,7.512,0,1,0-7.512-7.513,7.513,7.513,0,0,0,7.512,7.513" transform="translate(-74.244 -106.24)" fill="#d1fd04"/><path d="M98.835,147.329a7.512,7.512,0,1,0-7.512-7.512,7.512,7.512,0,0,0,7.512,7.512" transform="translate(-73.273 -106.154)" fill="#d2fe04"/><path d="M97.62,147.236a7.512,7.512,0,1,0-7.512-7.513,7.513,7.513,0,0,0,7.512,7.513" transform="translate(-72.298 -106.079)" fill="#d3fe03"/><path d="M96.4,147.157a7.512,7.512,0,1,0-7.512-7.513,7.513,7.513,0,0,0,7.512,7.513" transform="translate(-71.318 -106.016)" fill="#d4fe03"/><path d="M95.173,147.092a7.512,7.512,0,1,0-7.512-7.512,7.512,7.512,0,0,0,7.512,7.512" transform="translate(-70.335 -105.964)" fill="#d5fe02"/><path d="M93.942,147.042a7.512,7.512,0,1,0-7.512-7.512,7.512,7.512,0,0,0,7.512,7.512" transform="translate(-69.347 -105.924)" fill="#d6fe02"/><path d="M92.707,147a7.512,7.512,0,1,0-7.512-7.512A7.512,7.512,0,0,0,92.707,147" transform="translate(-68.356 -105.894)" fill="#d7ff01"/><path d="M91.467,146.983a7.512,7.512,0,1,0-7.512-7.513,7.513,7.513,0,0,0,7.512,7.513" transform="translate(-67.361 -105.876)" fill="#d8ff01"/><path d="M90.223,146.975a7.512,7.512,0,1,0-7.512-7.512,7.512,7.512,0,0,0,7.512,7.512" transform="translate(-66.363 -105.87)" fill="#d9ff00"/><path d="M172.934,81a7.512,7.512,0,1,0-7.512-7.512A7.512,7.512,0,0,0,172.934,81" transform="translate(-132.726 -52.935)" fill="#e0ffeb"/><path d="M172.924,80a7.512,7.512,0,1,0-7.512-7.512A7.512,7.512,0,0,0,172.924,80" transform="translate(-132.718 -52.134)" fill="#dfffea"/><path d="M172.9,79.009a7.512,7.512,0,1,0-7.513-7.512,7.512,7.512,0,0,0,7.513,7.512" transform="translate(-132.696 -51.337)" fill="#deffe9"/><path d="M172.851,78.018a7.512,7.512,0,1,0-7.512-7.512,7.512,7.512,0,0,0,7.512,7.512" transform="translate(-132.659 -50.542)" fill="#ddfee8"/><path d="M172.787,77.031a7.512,7.512,0,1,0-7.512-7.512,7.512,7.512,0,0,0,7.512,7.512" transform="translate(-132.608 -49.75)" fill="#dcfee7"/><path d="M172.7,76.049a7.512,7.512,0,1,0-7.512-7.512,7.512,7.512,0,0,0,7.512,7.512" transform="translate(-132.541 -48.962)" fill="#dbfee7"/><path d="M172.6,75.07a7.512,7.512,0,1,0-7.512-7.512A7.512,7.512,0,0,0,172.6,75.07" transform="translate(-132.461 -48.177)" fill="#dafee6"/><path d="M172.486,74.1a7.512,7.512,0,1,0-7.512-7.512,7.512,7.512,0,0,0,7.512,7.512" transform="translate(-132.367 -47.396)" fill="#d9fee5"/><path d="M172.351,73.126a7.512,7.512,0,1,0-7.512-7.512,7.512,7.512,0,0,0,7.512,7.512" transform="translate(-132.258 -46.617)" fill="#d8fee4"/><path d="M172.2,72.159a7.512,7.512,0,1,0-7.512-7.512,7.512,7.512,0,0,0,7.512,7.512" transform="translate(-132.135 -45.841)" fill="#d7fde3"/><path d="M172.027,71.2a7.512,7.512,0,1,0-7.512-7.512,7.512,7.512,0,0,0,7.512,7.512" transform="translate(-131.998 -45.07)" fill="#d6fde2"/><path d="M171.839,70.241a7.512,7.512,0,1,0-7.512-7.512,7.512,7.512,0,0,0,7.512,7.512" transform="translate(-131.847 -44.302)" fill="#d5fde1"/><path d="M171.635,69.288a7.512,7.512,0,1,0-7.512-7.512,7.512,7.512,0,0,0,7.512,7.512" transform="translate(-131.684 -43.538)" fill="#d4fde0"/><path d="M171.413,68.341a7.512,7.512,0,1,0-7.512-7.512,7.512,7.512,0,0,0,7.512,7.512" transform="translate(-131.506 -42.778)" fill="#d3fddf"/><path d="M171.174,67.4a7.512,7.512,0,1,0-7.512-7.513,7.513,7.513,0,0,0,7.512,7.513" transform="translate(-131.314 -42.021)" fill="#d2fcde"/><path d="M170.919,66.459a7.512,7.512,0,1,0-7.513-7.512,7.512,7.512,0,0,0,7.513,7.512" transform="translate(-131.108 -41.268)" fill="#d1fcde"/><path d="M170.647,65.526a7.512,7.512,0,1,0-7.513-7.512,7.512,7.512,0,0,0,7.513,7.512" transform="translate(-130.89 -40.519)" fill="#d0fcdd"/><path d="M170.358,64.6a7.512,7.512,0,1,0-7.512-7.512,7.512,7.512,0,0,0,7.512,7.512" transform="translate(-130.659 -39.775)" fill="#cffcdc"/><path d="M170.053,63.676a7.512,7.512,0,1,0-7.512-7.512,7.512,7.512,0,0,0,7.512,7.512" transform="translate(-130.414 -39.035)" fill="#cefcdb"/><path d="M169.731,62.758a7.512,7.512,0,1,0-7.512-7.513,7.512,7.512,0,0,0,7.512,7.513" transform="translate(-130.156 -38.298)" fill="#cdfbda"/><path d="M169.395,61.846a7.512,7.512,0,1,0-7.513-7.512,7.512,7.512,0,0,0,7.513,7.512" transform="translate(-129.886 -37.567)" fill="#ccfbd9"/><path d="M169.041,60.939a7.512,7.512,0,1,0-7.512-7.513,7.513,7.513,0,0,0,7.512,7.513" transform="translate(-129.602 -36.839)" fill="#cbfbd8"/><path d="M168.672,60.039a7.512,7.512,0,1,0-7.512-7.512,7.512,7.512,0,0,0,7.512,7.512" transform="translate(-129.306 -36.117)" fill="#cafbd7"/><path d="M168.287,59.143a7.512,7.512,0,1,0-7.512-7.513,7.512,7.512,0,0,0,7.512,7.513" transform="translate(-128.997 -35.398)" fill="#c9fbd6"/><path d="M167.887,58.254a7.512,7.512,0,1,0-7.512-7.512,7.512,7.512,0,0,0,7.512,7.512" transform="translate(-128.677 -34.685)" fill="#c8fbd5"/><path d="M167.471,57.371a7.512,7.512,0,1,0-7.512-7.512,7.512,7.512,0,0,0,7.512,7.512" transform="translate(-128.343 -33.976)" fill="#c7fad5"/><path d="M167.04,56.494a7.512,7.512,0,1,0-7.512-7.512,7.512,7.512,0,0,0,7.512,7.512" transform="translate(-127.997 -33.273)" fill="#c6fad4"/><path d="M166.594,55.623a7.512,7.512,0,1,0-7.512-7.512,7.512,7.512,0,0,0,7.512,7.512" transform="translate(-127.639 -32.574)" fill="#c5fad3"/><path d="M166.132,54.758a7.512,7.512,0,1,0-7.512-7.513,7.512,7.512,0,0,0,7.512,7.513" transform="translate(-127.268 -31.88)" fill="#c4fad2"/><path d="M165.656,53.9a7.512,7.512,0,1,0-7.512-7.512,7.512,7.512,0,0,0,7.512,7.512" transform="translate(-126.887 -31.19)" fill="#c3fad1"/><path d="M165.165,53.047a7.512,7.512,0,1,0-7.512-7.512,7.512,7.512,0,0,0,7.512,7.512" transform="translate(-126.493 -30.507)" fill="#c2f9d0"/><path d="M164.66,52.2a7.512,7.512,0,1,0-7.512-7.512A7.512,7.512,0,0,0,164.66,52.2" transform="translate(-126.087 -29.829)" fill="#c1f9cf"/><path d="M164.139,51.363a7.512,7.512,0,1,0-7.512-7.512,7.512,7.512,0,0,0,7.512,7.512" transform="translate(-125.669 -29.156)" fill="#c0f9ce"/><path d="M163.605,50.531a7.512,7.512,0,1,0-7.512-7.512,7.512,7.512,0,0,0,7.512,7.512" transform="translate(-125.241 -28.488)" fill="#bff9cd"/><path d="M163.056,49.706a7.512,7.512,0,1,0-7.512-7.512,7.512,7.512,0,0,0,7.512,7.512" transform="translate(-124.8 -27.826)" fill="#bef9cc"/><path d="M162.493,48.888a7.512,7.512,0,1,0-7.512-7.513,7.513,7.513,0,0,0,7.512,7.513" transform="translate(-124.349 -27.17)" fill="#bdf9cc"/><path d="M161.915,48.077a7.512,7.512,0,1,0-7.512-7.512,7.512,7.512,0,0,0,7.512,7.512" transform="translate(-123.885 -26.519)" fill="#bcf8cb"/><path d="M161.325,47.272a7.512,7.512,0,1,0-7.512-7.512,7.512,7.512,0,0,0,7.512,7.512" transform="translate(-123.412 -25.873)" fill="#bbf8ca"/><path d="M160.72,46.476a7.512,7.512,0,1,0-7.512-7.512,7.512,7.512,0,0,0,7.512,7.512" transform="translate(-122.926 -25.235)" fill="#baf8c9"/><path d="M160.1,45.687a7.512,7.512,0,1,0-7.512-7.512,7.512,7.512,0,0,0,7.512,7.512" transform="translate(-122.43 -24.602)" fill="#b9f8c8"/><path d="M159.47,44.9a7.512,7.512,0,1,0-7.512-7.512A7.512,7.512,0,0,0,159.47,44.9" transform="translate(-121.923 -23.974)" fill="#b8f8c7"/><path d="M158.825,44.132a7.512,7.512,0,1,0-7.512-7.512,7.512,7.512,0,0,0,7.512,7.512" transform="translate(-121.406 -23.354)" fill="#b7f7c6"/><path d="M158.167,43.365a7.512,7.512,0,1,0-7.513-7.513,7.513,7.513,0,0,0,7.513,7.513" transform="translate(-120.877 -22.739)" fill="#b6f7c5"/><path d="M157.5,42.606a7.512,7.512,0,1,0-7.512-7.512,7.512,7.512,0,0,0,7.512,7.512" transform="translate(-120.339 -22.13)" fill="#b5f7c4"/><path d="M156.811,41.856a7.512,7.512,0,1,0-7.512-7.512,7.512,7.512,0,0,0,7.512,7.512" transform="translate(-119.79 -21.528)" fill="#b4f7c3"/><path d="M156.113,41.113A7.512,7.512,0,1,0,148.6,33.6a7.512,7.512,0,0,0,7.512,7.512" transform="translate(-119.23 -20.932)" fill="#b3f7c3"/><path d="M155.4,40.379a7.512,7.512,0,1,0-7.512-7.512,7.512,7.512,0,0,0,7.512,7.512" transform="translate(-118.66 -20.343)" fill="#b2f7c2"/><path d="M154.681,39.653a7.512,7.512,0,1,0-7.512-7.512,7.512,7.512,0,0,0,7.512,7.512" transform="translate(-118.081 -19.76)" fill="#b1f6c1"/><path d="M153.945,38.935a7.512,7.512,0,1,0-7.512-7.512,7.512,7.512,0,0,0,7.512,7.512" transform="translate(-117.49 -19.184)" fill="#b0f6c0"/><path d="M153.2,38.225a7.512,7.512,0,1,0-7.512-7.513,7.513,7.513,0,0,0,7.512,7.513" transform="translate(-116.891 -18.614)" fill="#aff6bf"/><path d="M152.438,37.524a7.512,7.512,0,1,0-7.512-7.512,7.512,7.512,0,0,0,7.512,7.512" transform="translate(-116.281 -18.052)" fill="#aef6be"/><path d="M151.667,36.832a7.512,7.512,0,1,0-7.512-7.512,7.512,7.512,0,0,0,7.512,7.512" transform="translate(-115.662 -17.497)" fill="#adf6bd"/><path d="M150.883,36.149a7.512,7.512,0,1,0-7.512-7.512,7.512,7.512,0,0,0,7.512,7.512" transform="translate(-115.033 -16.949)" fill="#acf5bc"/><path d="M150.088,35.474a7.512,7.512,0,1,0-7.512-7.512,7.512,7.512,0,0,0,7.512,7.512" transform="translate(-114.396 -16.407)" fill="#abf5bb"/><path d="M149.281,34.808a7.512,7.512,0,1,0-7.512-7.513,7.513,7.513,0,0,0,7.512,7.513" transform="translate(-113.748 -15.873)" fill="#aaf5ba"/><path d="M148.462,34.152a7.512,7.512,0,1,0-7.512-7.512,7.512,7.512,0,0,0,7.512,7.512" transform="translate(-113.091 -15.347)" fill="#a9f5ba"/><path d="M147.632,33.5a7.512,7.512,0,1,0-7.512-7.512,7.512,7.512,0,0,0,7.512,7.512" transform="translate(-112.425 -14.827)" fill="#a8f5b9"/><path d="M146.791,32.866a7.512,7.512,0,1,0-7.512-7.513,7.512,7.512,0,0,0,7.512,7.513" transform="translate(-111.75 -14.315)" fill="#a7f4b8"/><path d="M145.939,32.237a7.512,7.512,0,1,0-7.512-7.512,7.512,7.512,0,0,0,7.512,7.512" transform="translate(-111.067 -13.81)" fill="#a6f4b7"/><path d="M145.075,31.618a7.512,7.512,0,1,0-7.512-7.513,7.512,7.512,0,0,0,7.512,7.513" transform="translate(-110.373 -13.313)" fill="#a5f4b6"/><path d="M144.2,31.009a7.512,7.512,0,1,0-7.512-7.512,7.512,7.512,0,0,0,7.512,7.512" transform="translate(-109.672 -12.825)" fill="#a4f4b5"/><path d="M143.316,30.408A7.512,7.512,0,1,0,135.8,22.9a7.512,7.512,0,0,0,7.512,7.513" transform="translate(-108.962 -12.343)" fill="#a3f4b4"/><path d="M142.42,29.818a7.512,7.512,0,1,0-7.512-7.512,7.512,7.512,0,0,0,7.512,7.512" transform="translate(-108.243 -11.869)" fill="#a2f4b3"/><path d="M141.514,29.237A7.512,7.512,0,1,0,134,21.725a7.512,7.512,0,0,0,7.512,7.512" transform="translate(-107.516 -11.403)" fill="#a1f3b2"/><path d="M140.6,28.667a7.512,7.512,0,1,0-7.512-7.512,7.512,7.512,0,0,0,7.512,7.512" transform="translate(-106.781 -10.946)" fill="#a0f3b1"/><path d="M139.67,28.106a7.512,7.512,0,1,0-7.512-7.512,7.512,7.512,0,0,0,7.512,7.512" transform="translate(-106.037 -10.496)" fill="#9ff3b1"/><path d="M138.734,27.556a7.512,7.512,0,1,0-7.512-7.513,7.512,7.512,0,0,0,7.512,7.513" transform="translate(-105.286 -10.054)" fill="#9ef3b0"/><path d="M137.787,27.016a7.512,7.512,0,1,0-7.512-7.512,7.512,7.512,0,0,0,7.512,7.512" transform="translate(-104.526 -9.621)" fill="#9df3af"/><path d="M136.83,26.487a7.512,7.512,0,1,0-7.512-7.512,7.512,7.512,0,0,0,7.512,7.512" transform="translate(-103.758 -9.197)" fill="#9cf2ae"/><path d="M135.864,25.969a7.512,7.512,0,1,0-7.512-7.513,7.513,7.513,0,0,0,7.512,7.513" transform="translate(-102.983 -8.781)" fill="#9bf2ad"/><path d="M134.888,25.46a7.512,7.512,0,1,0-7.512-7.512,7.512,7.512,0,0,0,7.512,7.512" transform="translate(-102.2 -8.373)" fill="#9af2ac"/><path d="M133.9,24.963a7.512,7.512,0,1,0-7.512-7.513,7.513,7.513,0,0,0,7.512,7.513" transform="translate(-101.409 -7.974)" fill="#99f2ab"/><path d="M132.907,24.476a7.512,7.512,0,1,0-7.512-7.512,7.512,7.512,0,0,0,7.512,7.512" transform="translate(-100.61 -7.583)" fill="#98f2aa"/><path d="M131.9,24a7.512,7.512,0,1,0-7.512-7.512A7.512,7.512,0,0,0,131.9,24" transform="translate(-99.805 -7.201)" fill="#97f2a9"/><path d="M130.89,23.535a7.512,7.512,0,1,0-7.512-7.512,7.512,7.512,0,0,0,7.512,7.512" transform="translate(-98.992 -6.828)" fill="#96f1a8"/><path d="M129.868,23.082a7.512,7.512,0,1,0-7.512-7.512,7.512,7.512,0,0,0,7.512,7.512" transform="translate(-98.172 -6.465)" fill="#95f1a8"/><path d="M128.837,22.64a7.512,7.512,0,1,0-7.512-7.512,7.512,7.512,0,0,0,7.512,7.512" transform="translate(-97.345 -6.11)" fill="#94f1a7"/><path d="M127.8,22.209a7.512,7.512,0,1,0-7.512-7.512,7.512,7.512,0,0,0,7.512,7.512" transform="translate(-96.51 -5.764)" fill="#93f1a6"/><path d="M126.749,21.789a7.512,7.512,0,1,0-7.512-7.512,7.512,7.512,0,0,0,7.512,7.512" transform="translate(-95.67 -5.427)" fill="#92f1a5"/><path d="M125.693,21.381a7.512,7.512,0,1,0-7.512-7.513,7.513,7.513,0,0,0,7.512,7.513" transform="translate(-94.822 -5.1)" fill="#91f0a4"/><path d="M124.628,20.984a7.512,7.512,0,1,0-7.512-7.513,7.513,7.513,0,0,0,7.512,7.513" transform="translate(-93.968 -4.781)" fill="#90f0a3"/><path d="M123.555,20.6a7.512,7.512,0,1,0-7.512-7.513,7.512,7.512,0,0,0,7.512,7.513" transform="translate(-93.107 -4.472)" fill="#8ff0a2"/><path d="M122.474,20.226a7.512,7.512,0,1,0-7.512-7.512,7.512,7.512,0,0,0,7.512,7.512" transform="translate(-92.24 -4.173)" fill="#8ef0a1"/><path d="M121.385,19.866a7.512,7.512,0,1,0-7.512-7.513,7.512,7.512,0,0,0,7.512,7.513" transform="translate(-91.366 -3.884)" fill="#8df0a0"/><path d="M120.288,19.517A7.512,7.512,0,1,0,112.776,12a7.512,7.512,0,0,0,7.512,7.512" transform="translate(-90.486 -3.604)" fill="#8cef9f"/><path d="M119.184,19.18a7.512,7.512,0,1,0-7.512-7.513,7.512,7.512,0,0,0,7.512,7.513" transform="translate(-89.6 -3.334)" fill="#8bef9f"/><path d="M118.072,18.856a7.512,7.512,0,1,0-7.512-7.513,7.513,7.513,0,0,0,7.512,7.513" transform="translate(-88.708 -3.074)" fill="#8aef9e"/><path d="M116.953,18.545a7.512,7.512,0,1,0-7.512-7.512,7.512,7.512,0,0,0,7.512,7.512" transform="translate(-87.81 -2.824)" fill="#89ef9d"/><path d="M115.827,18.245a7.512,7.512,0,1,0-7.512-7.513,7.513,7.513,0,0,0,7.512,7.513" transform="translate(-86.906 -2.584)" fill="#88ef9c"/><path d="M114.693,17.958a7.512,7.512,0,1,0-7.512-7.512,7.512,7.512,0,0,0,7.512,7.512" transform="translate(-85.996 -2.353)" fill="#87ef9b"/><path d="M113.552,17.684a7.512,7.512,0,1,0-7.512-7.512,7.512,7.512,0,0,0,7.512,7.512" transform="translate(-85.081 -2.133)" fill="#86ee9a"/><path d="M112.405,17.423a7.512,7.512,0,1,0-7.512-7.513,7.513,7.513,0,0,0,7.512,7.513" transform="translate(-84.161 -1.924)" fill="#85ee99"/><path d="M111.251,17.175a7.512,7.512,0,1,0-7.512-7.512,7.512,7.512,0,0,0,7.512,7.512" transform="translate(-83.235 -1.725)" fill="#84ee98"/><path d="M110.09,16.938a7.512,7.512,0,1,0-7.512-7.512,7.512,7.512,0,0,0,7.512,7.512" transform="translate(-82.303 -1.535)" fill="#83ee97"/><path d="M108.923,16.717A7.512,7.512,0,1,0,101.411,9.2a7.512,7.512,0,0,0,7.512,7.512" transform="translate(-81.367 -1.358)" fill="#82ee97"/><path d="M107.749,16.508A7.512,7.512,0,1,0,100.237,9a7.512,7.512,0,0,0,7.512,7.512" transform="translate(-80.425 -1.19)" fill="#81ed96"/><path d="M106.569,16.311A7.512,7.512,0,1,0,99.057,8.8a7.513,7.513,0,0,0,7.512,7.513" transform="translate(-79.478 -1.032)" fill="#80ed95"/><path d="M105.384,16.129a7.512,7.512,0,1,0-7.512-7.512,7.512,7.512,0,0,0,7.512,7.512" transform="translate(-78.527 -0.886)" fill="#7fed94"/><path d="M104.192,15.96A7.512,7.512,0,1,0,96.68,8.448a7.512,7.512,0,0,0,7.512,7.512" transform="translate(-77.571 -0.75)" fill="#7eed93"/><path d="M102.994,15.8a7.512,7.512,0,1,0-7.512-7.512,7.512,7.512,0,0,0,7.512,7.512" transform="translate(-76.61 -0.626)" fill="#7ded92"/><path d="M101.791,15.663a7.512,7.512,0,1,0-7.512-7.512,7.512,7.512,0,0,0,7.512,7.512" transform="translate(-75.645 -0.512)" fill="#7ced91"/><path d="M100.582,15.536A7.512,7.512,0,1,0,93.07,8.023a7.512,7.512,0,0,0,7.512,7.512" transform="translate(-74.675 -0.41)" fill="#7bec90"/><path d="M99.368,15.422a7.512,7.512,0,1,0-7.512-7.513,7.513,7.513,0,0,0,7.512,7.513" transform="translate(-73.7 -0.319)" fill="#7aec8f"/><path d="M98.148,15.322a7.512,7.512,0,1,0-7.512-7.513,7.512,7.512,0,0,0,7.512,7.513" transform="translate(-72.722 -0.238)" fill="#79ec8e"/><path d="M96.923,15.236a7.512,7.512,0,1,0-7.512-7.512,7.512,7.512,0,0,0,7.512,7.512" transform="translate(-71.739 -0.169)" fill="#78ec8e"/><path d="M95.693,15.165a7.512,7.512,0,1,0-7.512-7.512,7.512,7.512,0,0,0,7.512,7.512" transform="translate(-70.752 -0.112)" fill="#77ec8d"/><path d="M94.459,15.108A7.512,7.512,0,1,0,86.947,7.6a7.512,7.512,0,0,0,7.512,7.512" transform="translate(-69.762 -0.067)" fill="#76eb8c"/><path d="M93.219,15.065a7.512,7.512,0,1,0-7.512-7.512,7.512,7.512,0,0,0,7.512,7.512" transform="translate(-68.767 -0.032)" fill="#75eb8b"/><path d="M91.975,15.038a7.512,7.512,0,1,0-7.512-7.512,7.512,7.512,0,0,0,7.512,7.512" transform="translate(-67.769 -0.01)" fill="#74eb8a"/><path d="M90.727,15.024a7.512,7.512,0,1,0-7.512-7.513,7.513,7.513,0,0,0,7.512,7.513" transform="translate(-66.767 0.001)" fill="#73eb89"/><path d="M89.475,15.026a7.512,7.512,0,1,0-7.512-7.512,7.512,7.512,0,0,0,7.512,7.512" transform="translate(-65.763 -0.001)" fill="#72eb88"/><path d="M88.228,15.042a7.512,7.512,0,1,0-7.512-7.513,7.513,7.513,0,0,0,7.512,7.513" transform="translate(-64.762 -0.014)" fill="#71eb87"/><path d="M86.984,15.073A7.512,7.512,0,1,0,79.472,7.56a7.512,7.512,0,0,0,7.512,7.512" transform="translate(-63.764 -0.039)" fill="#70ea86"/><path d="M85.746,15.118a7.512,7.512,0,1,0-7.512-7.513,7.513,7.513,0,0,0,7.512,7.513" transform="translate(-62.771 -0.075)" fill="#6fea85"/><path d="M84.512,15.177A7.512,7.512,0,1,0,77,7.665a7.512,7.512,0,0,0,7.512,7.512" transform="translate(-61.781 -0.122)" fill="#6eea85"/><path d="M83.283,15.252A7.512,7.512,0,1,0,75.771,7.74a7.512,7.512,0,0,0,7.512,7.512" transform="translate(-60.795 -0.182)" fill="#6dea84"/><path d="M82.059,15.341a7.512,7.512,0,1,0-7.512-7.512,7.512,7.512,0,0,0,7.512,7.512" transform="translate(-59.813 -0.254)" fill="#6cea83"/><path d="M80.841,15.443A7.512,7.512,0,1,0,73.329,7.93a7.512,7.512,0,0,0,7.512,7.512" transform="translate(-58.835 -0.335)" fill="#6be982"/><path d="M79.627,15.559a7.512,7.512,0,1,0-7.512-7.513,7.513,7.513,0,0,0,7.512,7.513" transform="translate(-57.861 -0.428)" fill="#6ae981"/><path d="M78.419,15.69a7.512,7.512,0,1,0-7.512-7.512,7.512,7.512,0,0,0,7.512,7.512" transform="translate(-56.892 -0.534)" fill="#69e980"/><path d="M77.217,15.834a7.512,7.512,0,1,0-7.512-7.512,7.512,7.512,0,0,0,7.512,7.512" transform="translate(-55.928 -0.649)" fill="#68e97f"/><path d="M76.021,15.992a7.512,7.512,0,1,0-7.512-7.513,7.513,7.513,0,0,0,7.512,7.513" transform="translate(-54.968 -0.776)" fill="#67e97e"/><path d="M74.83,16.164a7.512,7.512,0,1,0-7.512-7.512,7.512,7.512,0,0,0,7.512,7.512" transform="translate(-54.012 -0.914)" fill="#66e87d"/><path d="M73.646,16.348a7.512,7.512,0,1,0-7.513-7.513,7.513,7.513,0,0,0,7.513,7.513" transform="translate(-53.062 -1.062)" fill="#65e87c"/><path d="M72.467,16.547a7.512,7.512,0,1,0-7.512-7.512,7.512,7.512,0,0,0,7.512,7.512" transform="translate(-52.117 -1.221)" fill="#64e87c"/><path d="M71.3,16.759a7.512,7.512,0,1,0-7.512-7.513A7.513,7.513,0,0,0,71.3,16.759" transform="translate(-51.176 -1.391)" fill="#63e87b"/><path d="M70.129,16.983a7.512,7.512,0,1,0-7.512-7.512,7.512,7.512,0,0,0,7.512,7.512" transform="translate(-50.241 -1.571)" fill="#62e87a"/><path d="M68.969,17.222a7.512,7.512,0,1,0-7.512-7.513,7.512,7.512,0,0,0,7.512,7.513" transform="translate(-49.31 -1.763)" fill="#61e879"/><path d="M67.816,17.472A7.512,7.512,0,1,0,60.3,9.959a7.512,7.512,0,0,0,7.512,7.513" transform="translate(-48.385 -1.963)" fill="#60e778"/><path d="M66.67,17.736a7.512,7.512,0,1,0-7.512-7.512,7.512,7.512,0,0,0,7.512,7.512" transform="translate(-47.465 -2.175)" fill="#5fe777"/><path d="M65.531,18.014A7.512,7.512,0,1,0,58.019,10.5a7.512,7.512,0,0,0,7.512,7.512" transform="translate(-46.551 -2.398)" fill="#5ee776"/><path d="M64.4,18.3a7.512,7.512,0,1,0-7.512-7.512A7.512,7.512,0,0,0,64.4,18.3" transform="translate(-45.643 -2.63)" fill="#5de775"/><path d="M63.274,18.6a7.512,7.512,0,1,0-7.512-7.513A7.513,7.513,0,0,0,63.274,18.6" transform="translate(-44.741 -2.872)" fill="#5ce774"/><path d="M62.156,18.919a7.512,7.512,0,1,0-7.512-7.513,7.513,7.513,0,0,0,7.512,7.513" transform="translate(-43.844 -3.124)" fill="#5be673"/><path d="M61.046,19.245a7.512,7.512,0,1,0-7.512-7.512,7.512,7.512,0,0,0,7.512,7.512" transform="translate(-42.953 -3.386)" fill="#5ae673"/><path d="M59.943,19.585a7.512,7.512,0,1,0-7.512-7.512,7.512,7.512,0,0,0,7.512,7.512" transform="translate(-42.068 -3.659)" fill="#59e672"/><path d="M58.848,19.935a7.512,7.512,0,1,0-7.512-7.513,7.513,7.513,0,0,0,7.512,7.513" transform="translate(-41.189 -3.94)" fill="#58e671"/><path d="M57.76,20.3a7.512,7.512,0,1,0-7.512-7.513A7.513,7.513,0,0,0,57.76,20.3" transform="translate(-40.316 -4.232)" fill="#57e670"/><path d="M56.681,20.674a7.512,7.512,0,1,0-7.512-7.513,7.512,7.512,0,0,0,7.512,7.513" transform="translate(-39.451 -4.532)" fill="#56e66f"/><path d="M55.609,21.06A7.512,7.512,0,1,0,48.1,13.548a7.512,7.512,0,0,0,7.512,7.512" transform="translate(-38.591 -4.842)" fill="#55e56e"/><path d="M54.546,21.46a7.512,7.512,0,1,0-7.512-7.512,7.512,7.512,0,0,0,7.512,7.512" transform="translate(-37.738 -5.163)" fill="#54e56d"/><path d="M53.491,21.87a7.512,7.512,0,1,0-7.512-7.512,7.512,7.512,0,0,0,7.512,7.512" transform="translate(-36.891 -5.492)" fill="#53e56c"/><path d="M52.445,22.292a7.512,7.512,0,1,0-7.512-7.512,7.512,7.512,0,0,0,7.512,7.512" transform="translate(-36.052 -5.831)" fill="#52e56b"/><path d="M51.407,22.724A7.512,7.512,0,1,0,43.9,15.212a7.512,7.512,0,0,0,7.512,7.512" transform="translate(-35.219 -6.177)" fill="#51e56a"/><path d="M50.378,23.17a7.512,7.512,0,1,0-7.512-7.512,7.512,7.512,0,0,0,7.512,7.512" transform="translate(-34.393 -6.535)" fill="#50e46a"/><path d="M49.357,23.625a7.512,7.512,0,1,0-7.512-7.512,7.512,7.512,0,0,0,7.512,7.512" transform="translate(-33.574 -6.9)" fill="#4fe469"/><path d="M48.346,24.093a7.512,7.512,0,1,0-7.512-7.512,7.512,7.512,0,0,0,7.512,7.512" transform="translate(-32.763 -7.276)" fill="#4ee468"/><path d="M47.344,24.57a7.512,7.512,0,1,0-7.512-7.513,7.513,7.513,0,0,0,7.512,7.513" transform="translate(-31.959 -7.658)" fill="#4de467"/><path d="M46.351,25.059a7.512,7.512,0,1,0-7.512-7.512,7.512,7.512,0,0,0,7.512,7.512" transform="translate(-31.162 -8.051)" fill="#4ce466"/><path d="M45.367,25.558a7.512,7.512,0,1,0-7.512-7.513,7.512,7.512,0,0,0,7.512,7.513" transform="translate(-30.373 -8.451)" fill="#4be465"/><path d="M44.393,26.069a7.512,7.512,0,1,0-7.512-7.512,7.512,7.512,0,0,0,7.512,7.512" transform="translate(-29.591 -8.861)" fill="#4ae364"/><path d="M43.428,26.59a7.512,7.512,0,1,0-7.512-7.512,7.512,7.512,0,0,0,7.512,7.512" transform="translate(-28.817 -9.279)" fill="#49e363"/><path d="M42.474,27.121a7.512,7.512,0,1,0-7.512-7.512,7.512,7.512,0,0,0,7.512,7.512" transform="translate(-28.052 -9.705)" fill="#48e362"/><path d="M41.528,27.663a7.512,7.512,0,1,0-7.512-7.512,7.512,7.512,0,0,0,7.512,7.512" transform="translate(-27.293 -10.14)" fill="#47e361"/><path d="M40.593,28.216A7.512,7.512,0,1,0,33.081,20.7a7.512,7.512,0,0,0,7.512,7.512" transform="translate(-26.542 -10.584)" fill="#46e361"/><path d="M39.668,28.777a7.512,7.512,0,1,0-7.512-7.512,7.512,7.512,0,0,0,7.512,7.512" transform="translate(-25.8 -11.034)" fill="#45e260"/><path d="M38.754,29.35a7.512,7.512,0,1,0-7.512-7.512,7.512,7.512,0,0,0,7.512,7.512" transform="translate(-25.067 -11.494)" fill="#44e25f"/><path d="M37.85,29.932a7.512,7.512,0,1,0-7.512-7.512,7.512,7.512,0,0,0,7.512,7.512" transform="translate(-24.342 -11.961)" fill="#43e25e"/><path d="M36.956,30.524a7.512,7.512,0,1,0-7.512-7.512,7.512,7.512,0,0,0,7.512,7.512" transform="translate(-23.624 -12.436)" fill="#42e25d"/><path d="M36.073,31.127a7.512,7.512,0,1,0-7.512-7.512,7.512,7.512,0,0,0,7.512,7.512" transform="translate(-22.916 -12.919)" fill="#41e25c"/><path d="M35.2,31.738a7.512,7.512,0,1,0-7.512-7.513A7.513,7.513,0,0,0,35.2,31.738" transform="translate(-22.216 -13.41)" fill="#40e15b"/><path d="M34.34,32.359a7.512,7.512,0,1,0-7.512-7.513,7.512,7.512,0,0,0,7.512,7.513" transform="translate(-21.525 -13.908)" fill="#3fe15a"/><path d="M33.489,32.99a7.512,7.512,0,1,0-7.512-7.513,7.512,7.512,0,0,0,7.512,7.513" transform="translate(-20.843 -14.414)" fill="#3ee159"/><path d="M32.65,33.63a7.512,7.512,0,1,0-7.512-7.512A7.512,7.512,0,0,0,32.65,33.63" transform="translate(-20.169 -14.928)" fill="#3de158"/><path d="M31.823,34.279a7.512,7.512,0,1,0-7.512-7.513,7.512,7.512,0,0,0,7.512,7.513" transform="translate(-19.506 -15.448)" fill="#3ce158"/><path d="M31.006,34.937a7.512,7.512,0,1,0-7.512-7.512,7.512,7.512,0,0,0,7.512,7.512" transform="translate(-18.85 -15.976)" fill="#3be157"/><path d="M30.2,35.6a7.512,7.512,0,1,0-7.512-7.512A7.512,7.512,0,0,0,30.2,35.6" transform="translate(-18.205 -16.512)" fill="#3ae056"/><path d="M29.409,36.281A7.512,7.512,0,1,0,21.9,28.769a7.512,7.512,0,0,0,7.512,7.512" transform="translate(-17.569 -17.055)" fill="#39e055"/><path d="M31.737,34.348a7.512,7.512,0,1,0-7.512-7.512,7.512,7.512,0,0,0,7.512,7.512" transform="translate(-19.437 -15.504)" fill="#38e054"/><path d="M27.862,37.657a7.512,7.512,0,1,0-7.512-7.513,7.512,7.512,0,0,0,7.512,7.513" transform="translate(-16.328 -18.159)" fill="#39e053"/><path d="M27.108,38.356A7.512,7.512,0,1,0,19.6,30.843a7.513,7.513,0,0,0,7.512,7.513" transform="translate(-15.723 -18.72)" fill="#3ae053"/><path d="M26.367,39.063a7.512,7.512,0,1,0-7.512-7.512,7.512,7.512,0,0,0,7.512,7.512" transform="translate(-15.128 -19.287)" fill="#3be152"/><path d="M25.638,39.779a7.512,7.512,0,1,0-7.512-7.512,7.512,7.512,0,0,0,7.512,7.512" transform="translate(-14.543 -19.861)" fill="#3ce152"/><path d="M24.92,40.5a7.512,7.512,0,1,0-7.512-7.512A7.512,7.512,0,0,0,24.92,40.5" transform="translate(-13.967 -20.443)" fill="#3de151"/><path d="M24.216,41.236A7.512,7.512,0,1,0,16.7,33.723a7.512,7.512,0,0,0,7.512,7.512" transform="translate(-13.402 -21.03)" fill="#3ee151"/><path d="M23.524,41.976a7.512,7.512,0,1,0-7.512-7.512,7.512,7.512,0,0,0,7.512,7.512" transform="translate(-12.847 -21.624)" fill="#3fe150"/><path d="M22.845,42.724a7.512,7.512,0,1,0-7.512-7.512,7.512,7.512,0,0,0,7.512,7.512" transform="translate(-12.302 -22.224)" fill="#40e250"/><path d="M22.179,43.48a7.512,7.512,0,1,0-7.512-7.512,7.512,7.512,0,0,0,7.512,7.512" transform="translate(-11.768 -22.831)" fill="#41e24f"/><path d="M21.526,44.244a7.512,7.512,0,1,0-7.512-7.512,7.512,7.512,0,0,0,7.512,7.512" transform="translate(-11.244 -23.444)" fill="#42e24f"/><path d="M20.886,45.015A7.512,7.512,0,1,0,13.374,37.5a7.512,7.512,0,0,0,7.512,7.512" transform="translate(-10.731 -24.062)" fill="#43e24e"/><path d="M20.259,45.794a7.512,7.512,0,1,0-7.512-7.512,7.512,7.512,0,0,0,7.512,7.512" transform="translate(-10.228 -24.687)" fill="#44e24e"/><path d="M19.645,46.58a7.512,7.512,0,1,0-7.512-7.512,7.512,7.512,0,0,0,7.512,7.512" transform="translate(-9.735 -25.318)" fill="#45e34d"/><path d="M19.045,47.374a7.512,7.512,0,1,0-7.512-7.513,7.512,7.512,0,0,0,7.512,7.513" transform="translate(-9.253 -25.955)" fill="#46e34d"/><path d="M18.46,48.175a7.512,7.512,0,1,0-7.512-7.513,7.513,7.513,0,0,0,7.512,7.513" transform="translate(-8.784 -26.598)" fill="#47e34c"/><path d="M17.887,48.982a7.512,7.512,0,1,0-7.512-7.512,7.512,7.512,0,0,0,7.512,7.512" transform="translate(-8.324 -27.245)" fill="#48e34c"/><path d="M17.328,49.8a7.512,7.512,0,1,0-7.512-7.512A7.512,7.512,0,0,0,17.328,49.8" transform="translate(-7.876 -27.9)" fill="#49e34b"/><path d="M16.783,50.619a7.512,7.512,0,1,0-7.512-7.513,7.512,7.512,0,0,0,7.512,7.513" transform="translate(-7.439 -28.559)" fill="#4ae34b"/><path d="M16.253,51.448a7.512,7.512,0,1,0-7.512-7.512,7.512,7.512,0,0,0,7.512,7.512" transform="translate(-7.013 -29.224)" fill="#4be44a"/><path d="M15.737,52.283A7.512,7.512,0,1,0,8.225,44.77a7.513,7.513,0,0,0,7.512,7.513" transform="translate(-6.599 -29.894)" fill="#4ce44a"/><path d="M15.235,53.125a7.512,7.512,0,1,0-7.512-7.513,7.512,7.512,0,0,0,7.512,7.513" transform="translate(-6.197 -30.569)" fill="#4de449"/><path d="M14.748,53.973A7.512,7.512,0,1,0,7.236,46.46a7.512,7.512,0,0,0,7.512,7.512" transform="translate(-5.806 -31.25)" fill="#4ee449"/><path d="M14.275,54.828a7.512,7.512,0,1,0-7.512-7.512,7.512,7.512,0,0,0,7.512,7.512" transform="translate(-5.426 -31.936)" fill="#4fe448"/><path d="M13.817,55.689A7.512,7.512,0,1,0,6.3,48.176a7.513,7.513,0,0,0,7.512,7.513" transform="translate(-5.059 -32.627)" fill="#50e547"/><path d="M13.374,56.556a7.512,7.512,0,1,0-7.512-7.513,7.513,7.513,0,0,0,7.512,7.513" transform="translate(-4.703 -33.322)" fill="#51e547"/><path d="M12.946,57.43a7.512,7.512,0,1,0-7.512-7.512,7.512,7.512,0,0,0,7.512,7.512" transform="translate(-4.36 -34.024)" fill="#52e546"/><path d="M12.533,58.309A7.512,7.512,0,1,0,5.021,50.8a7.512,7.512,0,0,0,7.512,7.512" transform="translate(-4.029 -34.729)" fill="#53e546"/><path d="M12.136,59.194a7.512,7.512,0,1,0-7.512-7.512,7.512,7.512,0,0,0,7.512,7.512" transform="translate(-3.71 -35.439)" fill="#54e545"/><path d="M11.754,60.086a7.512,7.512,0,1,0-7.512-7.512,7.512,7.512,0,0,0,7.512,7.512" transform="translate(-3.404 -36.155)" fill="#55e645"/><path d="M11.388,60.982a7.512,7.512,0,1,0-7.512-7.513,7.513,7.513,0,0,0,7.512,7.513" transform="translate(-3.11 -36.874)" fill="#56e644"/><path d="M11.037,61.885a7.512,7.512,0,1,0-7.512-7.512,7.512,7.512,0,0,0,7.512,7.512" transform="translate(-2.828 -37.598)" fill="#57e644"/><path d="M10.7,62.792A7.512,7.512,0,1,0,3.19,55.28,7.512,7.512,0,0,0,10.7,62.792" transform="translate(-2.559 -38.326)" fill="#58e643"/><path d="M10.383,63.7a7.512,7.512,0,1,0-7.512-7.512A7.512,7.512,0,0,0,10.383,63.7" transform="translate(-2.304 -39.058)" fill="#59e643"/><path d="M10.08,64.624a7.512,7.512,0,1,0-7.512-7.512,7.512,7.512,0,0,0,7.512,7.512" transform="translate(-2.06 -39.796)" fill="#5ae742"/><path d="M9.793,65.548a7.512,7.512,0,1,0-7.512-7.512,7.512,7.512,0,0,0,7.512,7.512" transform="translate(-1.83 -40.537)" fill="#5be742"/><path d="M9.523,66.475a7.512,7.512,0,1,0-7.512-7.512,7.512,7.512,0,0,0,7.512,7.512" transform="translate(-1.614 -41.281)" fill="#5ce741"/><path d="M9.269,67.409A7.512,7.512,0,1,0,1.757,59.9a7.512,7.512,0,0,0,7.512,7.512" transform="translate(-1.41 -42.03)" fill="#5de741"/><path d="M9.031,68.347a7.512,7.512,0,1,0-7.512-7.512,7.512,7.512,0,0,0,7.512,7.512" transform="translate(-1.219 -42.783)" fill="#5ee740"/><path d="M8.811,69.291A7.512,7.512,0,1,0,1.3,61.779a7.512,7.512,0,0,0,7.512,7.512" transform="translate(-1.042 -43.54)" fill="#5fe840"/><path d="M8.607,70.239A7.512,7.512,0,1,0,1.1,62.726a7.512,7.512,0,0,0,7.512,7.512" transform="translate(-0.879 -44.301)" fill="#60e83f"/><path d="M8.42,71.191A7.512,7.512,0,1,0,.908,63.678,7.512,7.512,0,0,0,8.42,71.191" transform="translate(-0.729 -45.065)" fill="#61e83f"/><path d="M8.25,72.148A7.512,7.512,0,1,0,.738,64.635,7.513,7.513,0,0,0,8.25,72.148" transform="translate(-0.592 -45.833)" fill="#62e83e"/><path d="M8.1,73.109A7.512,7.512,0,1,0,.586,65.6,7.512,7.512,0,0,0,8.1,73.109" transform="translate(-0.47 -46.604)" fill="#63e83e"/><path d="M7.962,74.075A7.512,7.512,0,1,0,.45,66.562a7.512,7.512,0,0,0,7.512,7.512" transform="translate(-0.361 -47.379)" fill="#64e83d"/><path d="M7.844,75.045A7.512,7.512,0,1,0,.332,67.532a7.512,7.512,0,0,0,7.512,7.512" transform="translate(-0.266 -48.157)" fill="#65e93d"/><path d="M7.744,76.018A7.512,7.512,0,1,0,.232,68.505a7.512,7.512,0,0,0,7.512,7.512" transform="translate(-0.186 -48.938)" fill="#66e93c"/><path d="M7.662,77A7.512,7.512,0,1,0,.15,69.483,7.512,7.512,0,0,0,7.662,77" transform="translate(-0.12 -49.722)" fill="#67e93b"/><path d="M7.6,77.977A7.512,7.512,0,1,0,.085,70.464,7.512,7.512,0,0,0,7.6,77.977" transform="translate(-0.068 -50.509)" fill="#68e93b"/><path d="M7.551,78.963A7.512,7.512,0,1,0,.039,71.45a7.512,7.512,0,0,0,7.512,7.512" transform="translate(-0.031 -51.301)" fill="#69e93a"/><path d="M7.523,79.951A7.512,7.512,0,1,0,.011,72.439a7.512,7.512,0,0,0,7.512,7.512" transform="translate(-0.009 -52.093)" fill="#6aea3a"/><path d="M7.512,80.943A7.512,7.512,0,1,0,0,73.431a7.512,7.512,0,0,0,7.512,7.512" transform="translate(0 -52.889)" fill="#6bea39"/><path d="M7.52,81.936A7.512,7.512,0,1,0,.008,74.423,7.512,7.512,0,0,0,7.52,81.936" transform="translate(-0.006 -53.686)" fill="#6cea39"/><path d="M7.547,82.926A7.512,7.512,0,1,0,.035,75.413a7.512,7.512,0,0,0,7.512,7.512" transform="translate(-0.028 -54.48)" fill="#6dea38"/><path d="M7.591,83.911A7.512,7.512,0,1,0,.079,76.4a7.513,7.513,0,0,0,7.512,7.513" transform="translate(-0.063 -55.271)" fill="#6eea38"/><path d="M7.654,84.893A7.512,7.512,0,1,0,.142,77.38a7.512,7.512,0,0,0,7.512,7.512" transform="translate(-0.114 -56.058)" fill="#6feb37"/><path d="M7.734,85.871A7.512,7.512,0,1,0,.222,78.358a7.512,7.512,0,0,0,7.512,7.513" transform="translate(-0.178 -56.843)" fill="#70eb37"/><path d="M7.832,86.846A7.512,7.512,0,1,0,.32,79.333a7.512,7.512,0,0,0,7.512,7.512" transform="translate(-0.257 -57.625)" fill="#71eb36"/><path d="M7.948,87.815A7.512,7.512,0,1,0,.436,80.3a7.512,7.512,0,0,0,7.512,7.512" transform="translate(-0.35 -58.403)" fill="#72eb36"/><path d="M8.082,88.781A7.512,7.512,0,1,0,.57,81.268a7.513,7.513,0,0,0,7.512,7.513" transform="translate(-0.457 -59.178)" fill="#73eb35"/><path d="M8.232,89.743A7.512,7.512,0,1,0,.72,82.23a7.512,7.512,0,0,0,7.512,7.512" transform="translate(-0.578 -59.95)" fill="#74ec35"/><path d="M8.4,90.7A7.512,7.512,0,1,0,.888,83.187,7.512,7.512,0,0,0,8.4,90.7" transform="translate(-0.712 -60.718)" fill="#75ec34"/><path d="M8.585,91.653A7.512,7.512,0,1,0,1.073,84.14a7.513,7.513,0,0,0,7.512,7.513" transform="translate(-0.861 -61.482)" fill="#76ec34"/><path d="M8.787,92.6a7.512,7.512,0,1,0-7.512-7.513A7.513,7.513,0,0,0,8.787,92.6" transform="translate(-1.023 -62.243)" fill="#77ec33"/><path d="M9.005,93.545a7.512,7.512,0,1,0-7.512-7.512,7.512,7.512,0,0,0,7.512,7.512" transform="translate(-1.198 -63)" fill="#78ec33"/><path d="M9.241,94.484a7.512,7.512,0,1,0-7.512-7.513,7.513,7.513,0,0,0,7.512,7.513" transform="translate(-1.387 -63.754)" fill="#79ed32"/><path d="M9.493,95.419a7.512,7.512,0,1,0-7.512-7.512,7.512,7.512,0,0,0,7.512,7.512" transform="translate(-1.589 -64.504)" fill="#7aed32"/><path d="M9.762,96.347A7.512,7.512,0,1,0,2.25,88.834a7.513,7.513,0,0,0,7.512,7.513" transform="translate(-1.805 -65.249)" fill="#7bed31"/><path d="M10.047,97.271a7.512,7.512,0,1,0-7.512-7.512,7.512,7.512,0,0,0,7.512,7.512" transform="translate(-2.034 -65.99)" fill="#7ced31"/><path d="M10.348,98.19a7.512,7.512,0,1,0-7.512-7.512,7.512,7.512,0,0,0,7.512,7.512" transform="translate(-2.275 -66.727)" fill="#7ded30"/><path d="M10.665,99.1a7.512,7.512,0,1,0-7.512-7.513A7.513,7.513,0,0,0,10.665,99.1" transform="translate(-2.53 -67.461)" fill="#7eed2f"/><path d="M11,100.013A7.512,7.512,0,1,0,3.486,92.5,7.512,7.512,0,0,0,11,100.013" transform="translate(-2.797 -68.19)" fill="#7fee2f"/><path d="M11.347,100.916A7.512,7.512,0,1,0,3.835,93.4a7.512,7.512,0,0,0,7.512,7.512" transform="translate(-3.077 -68.914)" fill="#80ee2e"/><path d="M11.712,101.813A7.512,7.512,0,1,0,4.2,94.3a7.512,7.512,0,0,0,7.512,7.512" transform="translate(-3.37 -69.634)" fill="#81ee2e"/><path d="M12.092,102.7A7.512,7.512,0,1,0,4.58,95.192a7.512,7.512,0,0,0,7.512,7.512" transform="translate(-3.675 -70.35)" fill="#82ee2d"/><path d="M12.488,103.591a7.512,7.512,0,1,0-7.512-7.512,7.512,7.512,0,0,0,7.512,7.512" transform="translate(-3.992 -71.061)" fill="#83ee2d"/><path d="M12.9,104.471a7.512,7.512,0,1,0-7.512-7.512,7.512,7.512,0,0,0,7.512,7.512" transform="translate(-4.322 -71.767)" fill="#84ef2c"/><path d="M13.325,105.345a7.512,7.512,0,1,0-7.512-7.513,7.513,7.513,0,0,0,7.512,7.513" transform="translate(-4.664 -72.468)" fill="#85ef2c"/><path d="M13.767,106.213A7.512,7.512,0,1,0,6.255,98.7a7.512,7.512,0,0,0,7.512,7.512" transform="translate(-5.019 -73.165)" fill="#86ef2b"/><path d="M14.223,107.074a7.512,7.512,0,1,0-7.512-7.513,7.512,7.512,0,0,0,7.512,7.513" transform="translate(-5.385 -73.855)" fill="#87ef2b"/><path d="M14.693,107.93a7.512,7.512,0,1,0-7.512-7.512,7.512,7.512,0,0,0,7.512,7.512" transform="translate(-5.762 -74.542)" fill="#88ef2a"/><path d="M15.179,108.779a7.512,7.512,0,1,0-7.512-7.512,7.512,7.512,0,0,0,7.512,7.512" transform="translate(-6.152 -75.223)" fill="#89f02a"/><path d="M15.68,109.622a7.512,7.512,0,1,0-7.512-7.512,7.512,7.512,0,0,0,7.512,7.512" transform="translate(-6.554 -75.9)" fill="#8af029"/><path d="M16.194,110.458a7.512,7.512,0,1,0-7.512-7.512,7.512,7.512,0,0,0,7.512,7.512" transform="translate(-6.966 -76.57)" fill="#8bf029"/><path d="M16.723,111.287a7.512,7.512,0,1,0-7.512-7.513,7.513,7.513,0,0,0,7.512,7.513" transform="translate(-7.39 -77.236)" fill="#8cf028"/><path d="M17.266,112.109A7.512,7.512,0,1,0,9.754,104.6a7.512,7.512,0,0,0,7.512,7.512" transform="translate(-7.826 -77.895)" fill="#8df028"/><path d="M17.823,112.926a7.512,7.512,0,1,0-7.512-7.512,7.512,7.512,0,0,0,7.512,7.512" transform="translate(-8.273 -78.551)" fill="#8ef127"/><path d="M18.394,113.734a7.512,7.512,0,1,0-7.512-7.512,7.512,7.512,0,0,0,7.512,7.512" transform="translate(-8.731 -79.199)" fill="#8ff127"/><path d="M18.979,114.535a7.512,7.512,0,1,0-7.512-7.512,7.512,7.512,0,0,0,7.512,7.512" transform="translate(-9.201 -79.842)" fill="#90f126"/><path d="M19.577,115.33a7.512,7.512,0,1,0-7.512-7.512,7.512,7.512,0,0,0,7.512,7.512" transform="translate(-9.68 -80.48)" fill="#91f126"/><path d="M20.19,116.117a7.512,7.512,0,1,0-7.512-7.512,7.512,7.512,0,0,0,7.512,7.512" transform="translate(-10.172 -81.111)" fill="#92f125"/><path d="M20.815,116.9a7.512,7.512,0,1,0-7.512-7.512,7.512,7.512,0,0,0,7.512,7.512" transform="translate(-10.674 -81.736)" fill="#93f225"/><path d="M21.453,117.669a7.512,7.512,0,1,0-7.512-7.513,7.513,7.513,0,0,0,7.512,7.513" transform="translate(-11.186 -82.356)" fill="#94f224"/><path d="M22.105,118.433a7.512,7.512,0,1,0-7.512-7.512,7.512,7.512,0,0,0,7.512,7.512" transform="translate(-11.709 -82.969)" fill="#95f223"/><path d="M22.769,119.19a7.512,7.512,0,1,0-7.512-7.512,7.512,7.512,0,0,0,7.512,7.512" transform="translate(-12.241 -83.577)" fill="#96f223"/><path d="M23.447,119.939a7.512,7.512,0,1,0-7.512-7.512,7.512,7.512,0,0,0,7.512,7.512" transform="translate(-12.785 -84.178)" fill="#97f222"/><path d="M24.138,120.681a7.512,7.512,0,1,0-7.512-7.512,7.512,7.512,0,0,0,7.512,7.512" transform="translate(-13.34 -84.773)" fill="#98f222"/><path d="M24.841,121.413a7.512,7.512,0,1,0-7.512-7.512,7.512,7.512,0,0,0,7.512,7.512" transform="translate(-13.904 -85.36)" fill="#99f321"/><path d="M25.556,122.139a7.512,7.512,0,1,0-7.512-7.512,7.512,7.512,0,0,0,7.512,7.512" transform="translate(-14.478 -85.943)" fill="#9af321"/><path d="M26.284,122.855a7.512,7.512,0,1,0-7.512-7.512,7.512,7.512,0,0,0,7.512,7.512" transform="translate(-15.062 -86.517)" fill="#9bf320"/><path d="M27.024,123.563a7.512,7.512,0,1,0-7.512-7.513,7.512,7.512,0,0,0,7.512,7.513" transform="translate(-15.655 -87.085)" fill="#9cf320"/><path d="M27.776,124.264a7.512,7.512,0,1,0-7.512-7.513,7.513,7.513,0,0,0,7.512,7.513" transform="translate(-16.259 -87.648)" fill="#9df31f"/><path d="M28.54,124.955a7.512,7.512,0,1,0-7.512-7.513,7.513,7.513,0,0,0,7.512,7.513" transform="translate(-16.872 -88.202)" fill="#9ef41f"/><path d="M29.316,125.638a7.512,7.512,0,1,0-7.512-7.512,7.512,7.512,0,0,0,7.512,7.512" transform="translate(-17.494 -88.75)" fill="#9ff41e"/><path d="M30.1,126.312a7.512,7.512,0,1,0-7.512-7.512,7.512,7.512,0,0,0,7.512,7.512" transform="translate(-18.127 -89.291)" fill="#a0f41e"/><path d="M30.9,126.977a7.512,7.512,0,1,0-7.512-7.512,7.512,7.512,0,0,0,7.512,7.512" transform="translate(-18.769 -89.824)" fill="#a1f41d"/><path d="M31.714,127.634a7.512,7.512,0,1,0-7.512-7.512,7.512,7.512,0,0,0,7.512,7.512" transform="translate(-19.418 -90.352)" fill="#a2f41d"/><path d="M32.537,128.281a7.512,7.512,0,1,0-7.512-7.512,7.512,7.512,0,0,0,7.512,7.512" transform="translate(-20.079 -90.871)" fill="#a3f51c"/><path d="M33.37,128.919a7.512,7.512,0,1,0-7.512-7.513,7.512,7.512,0,0,0,7.512,7.513" transform="translate(-20.747 -91.383)" fill="#a4f51c"/><path d="M34.214,129.548a7.512,7.512,0,1,0-7.512-7.513,7.512,7.512,0,0,0,7.512,7.513" transform="translate(-21.424 -91.887)" fill="#a5f51b"/><path d="M35.07,130.168a7.512,7.512,0,1,0-7.512-7.512,7.512,7.512,0,0,0,7.512,7.512" transform="translate(-22.111 -92.385)" fill="#a6f51b"/><path d="M35.936,130.777a7.512,7.512,0,1,0-7.512-7.512,7.512,7.512,0,0,0,7.512,7.512" transform="translate(-22.806 -92.873)" fill="#a7f51a"/><path d="M36.813,131.378a7.512,7.512,0,1,0-7.512-7.512,7.512,7.512,0,0,0,7.512,7.512" transform="translate(-23.51 -93.356)" fill="#a8f61a"/><path d="M37.7,131.969a7.512,7.512,0,1,0-7.512-7.512,7.512,7.512,0,0,0,7.512,7.512" transform="translate(-24.222 -93.83)" fill="#a9f619"/><path d="M38.6,132.55a7.512,7.512,0,1,0-7.512-7.512A7.512,7.512,0,0,0,38.6,132.55" transform="translate(-24.943 -94.296)" fill="#aaf619"/><path d="M39.507,133.121A7.512,7.512,0,1,0,32,125.609a7.512,7.512,0,0,0,7.512,7.512" transform="translate(-25.671 -94.754)" fill="#abf618"/><path d="M40.425,133.682a7.512,7.512,0,1,0-7.512-7.512,7.512,7.512,0,0,0,7.512,7.512" transform="translate(-26.408 -95.204)" fill="#acf617"/><path d="M41.354,134.234a7.512,7.512,0,1,0-7.512-7.512,7.512,7.512,0,0,0,7.512,7.512" transform="translate(-27.153 -95.647)" fill="#adf717"/><path d="M42.292,134.775a7.512,7.512,0,1,0-7.512-7.512,7.512,7.512,0,0,0,7.512,7.512" transform="translate(-27.906 -96.081)" fill="#aef716"/><path d="M43.241,135.3a7.512,7.512,0,1,0-7.512-7.512,7.512,7.512,0,0,0,7.512,7.512" transform="translate(-28.667 -96.506)" fill="#aff716"/><path d="M44.2,135.826a7.512,7.512,0,1,0-7.512-7.512,7.512,7.512,0,0,0,7.512,7.512" transform="translate(-29.436 -96.924)" fill="#b0f715"/><path d="M45.166,136.337a7.512,7.512,0,1,0-7.512-7.512,7.512,7.512,0,0,0,7.512,7.512" transform="translate(-30.212 -97.334)" fill="#b1f715"/><path d="M46.143,136.836a7.512,7.512,0,1,0-7.512-7.513,7.513,7.513,0,0,0,7.512,7.513" transform="translate(-30.996 -97.735)" fill="#b2f714"/><path d="M47.129,137.324a7.512,7.512,0,1,0-7.512-7.512,7.512,7.512,0,0,0,7.512,7.512" transform="translate(-31.787 -98.126)" fill="#b3f814"/><path d="M48.124,137.8a7.512,7.512,0,1,0-7.512-7.512,7.512,7.512,0,0,0,7.512,7.512" transform="translate(-32.585 -98.511)" fill="#b4f813"/><path d="M49.129,138.269a7.512,7.512,0,1,0-7.512-7.513,7.512,7.512,0,0,0,7.512,7.513" transform="translate(-33.391 -98.885)" fill="#b5f813"/><path d="M50.142,138.725a7.512,7.512,0,1,0-7.512-7.512,7.512,7.512,0,0,0,7.512,7.512" transform="translate(-34.204 -99.25)" fill="#b6f812"/><path d="M51.165,139.171a7.512,7.512,0,1,0-7.512-7.513,7.513,7.513,0,0,0,7.512,7.513" transform="translate(-35.025 -99.608)" fill="#b7f812"/><path d="M52.2,139.6a7.512,7.512,0,1,0-7.512-7.513A7.512,7.512,0,0,0,52.2,139.6" transform="translate(-35.851 -99.956)" fill="#b8f911"/><path d="M53.234,140.027a7.512,7.512,0,1,0-7.512-7.512,7.512,7.512,0,0,0,7.512,7.512" transform="translate(-36.685 -100.295)" fill="#b9f911"/><path d="M54.282,140.438a7.512,7.512,0,1,0-7.512-7.512,7.512,7.512,0,0,0,7.512,7.512" transform="translate(-37.526 -100.625)" fill="#baf910"/><path d="M55.338,140.838a7.512,7.512,0,1,0-7.512-7.513,7.513,7.513,0,0,0,7.512,7.513" transform="translate(-38.373 -100.946)" fill="#bbf910"/><path d="M56.4,141.225a7.512,7.512,0,1,0-7.512-7.512,7.512,7.512,0,0,0,7.512,7.512" transform="translate(-39.227 -101.256)" fill="#bcf90f"/><path d="M57.474,141.6a7.512,7.512,0,1,0-7.512-7.512,7.512,7.512,0,0,0,7.512,7.512" transform="translate(-40.087 -101.559)" fill="#bdfa0f"/><path d="M58.554,141.967a7.512,7.512,0,1,0-7.512-7.513,7.512,7.512,0,0,0,7.512,7.513" transform="translate(-40.953 -101.852)" fill="#befa0e"/><path d="M59.642,142.319a7.512,7.512,0,1,0-7.512-7.512,7.512,7.512,0,0,0,7.512,7.512" transform="translate(-41.826 -102.134)" fill="#bffa0e"/><path d="M60.737,142.66a7.512,7.512,0,1,0-7.512-7.513,7.513,7.513,0,0,0,7.512,7.513" transform="translate(-42.705 -102.408)" fill="#c0fa0d"/><path d="M61.84,142.989a7.512,7.512,0,1,0-7.512-7.512,7.512,7.512,0,0,0,7.512,7.512" transform="translate(-43.59 -102.672)" fill="#c1fa0d"/><path d="M62.95,143.3a7.512,7.512,0,1,0-7.512-7.512A7.512,7.512,0,0,0,62.95,143.3" transform="translate(-44.481 -102.925)" fill="#c2fb0c"/><path d="M64.067,143.609a7.512,7.512,0,1,0-7.512-7.512,7.512,7.512,0,0,0,7.512,7.512" transform="translate(-45.377 -103.169)" fill="#c3fb0b"/><path d="M65.192,143.9a7.512,7.512,0,1,0-7.512-7.512,7.512,7.512,0,0,0,7.512,7.512" transform="translate(-46.279 -103.403)" fill="#c4fb0b"/><path d="M66.323,144.18a7.512,7.512,0,1,0-7.512-7.513,7.512,7.512,0,0,0,7.512,7.513" transform="translate(-47.187 -103.627)" fill="#c5fb0a"/><path d="M67.461,144.446a7.512,7.512,0,1,0-7.512-7.513,7.512,7.512,0,0,0,7.512,7.513" transform="translate(-48.1 -103.841)" fill="#c6fb0a"/><path d="M68.607,144.7a7.512,7.512,0,1,0-7.512-7.512,7.512,7.512,0,0,0,7.512,7.512" transform="translate(-49.019 -104.044)" fill="#c7fc09"/><path d="M69.758,144.941a7.512,7.512,0,1,0-7.512-7.512,7.512,7.512,0,0,0,7.512,7.512" transform="translate(-49.943 -104.238)" fill="#c8fc09"/><path d="M70.916,145.169a7.512,7.512,0,1,0-7.512-7.513,7.513,7.513,0,0,0,7.512,7.513" transform="translate(-50.872 -104.421)" fill="#c9fc08"/><path d="M72.081,145.384a7.512,7.512,0,1,0-7.512-7.512,7.512,7.512,0,0,0,7.512,7.512" transform="translate(-51.807 -104.593)" fill="#cafc08"/><path d="M73.252,145.586a7.512,7.512,0,1,0-7.512-7.513,7.513,7.513,0,0,0,7.512,7.513" transform="translate(-52.746 -104.755)" fill="#cbfc07"/><path d="M74.429,145.774a7.512,7.512,0,1,0-7.512-7.513,7.513,7.513,0,0,0,7.512,7.513" transform="translate(-53.691 -104.906)" fill="#ccfc07"/><path d="M75.611,145.95a7.512,7.512,0,1,0-7.512-7.512,7.512,7.512,0,0,0,7.512,7.512" transform="translate(-54.639 -105.047)" fill="#cdfd06"/><path d="M76.8,146.111a7.512,7.512,0,1,0-7.512-7.512,7.512,7.512,0,0,0,7.512,7.512" transform="translate(-55.593 -105.177)" fill="#cefd06"/><path d="M77.994,146.26a7.512,7.512,0,1,0-7.512-7.513,7.512,7.512,0,0,0,7.512,7.513" transform="translate(-56.551 -105.296)" fill="#cffd05"/><path d="M79.194,146.394a7.512,7.512,0,1,0-7.512-7.513,7.513,7.513,0,0,0,7.512,7.513" transform="translate(-57.514 -105.404)" fill="#d0fd05"/><path d="M80.4,146.515A7.512,7.512,0,1,0,72.887,139a7.513,7.513,0,0,0,7.512,7.513" transform="translate(-58.481 -105.501)" fill="#d1fd04"/><path d="M81.61,146.623A7.512,7.512,0,1,0,74.1,139.11a7.512,7.512,0,0,0,7.512,7.512" transform="translate(-59.452 -105.587)" fill="#d2fe04"/><path d="M82.826,146.716a7.512,7.512,0,1,0-7.512-7.513,7.513,7.513,0,0,0,7.512,7.513" transform="translate(-60.428 -105.662)" fill="#d3fe03"/><path d="M84.047,146.795a7.512,7.512,0,1,0-7.512-7.513,7.513,7.513,0,0,0,7.512,7.513" transform="translate(-61.408 -105.725)" fill="#d4fe03"/><path d="M85.273,146.859a7.512,7.512,0,1,0-7.512-7.512,7.512,7.512,0,0,0,7.512,7.512" transform="translate(-62.391 -105.777)" fill="#d5fe02"/><path d="M86.5,146.91a7.512,7.512,0,1,0-7.512-7.512A7.512,7.512,0,0,0,86.5,146.91" transform="translate(-63.378 -105.818)" fill="#d6fe02"/><path d="M87.739,146.947a7.512,7.512,0,1,0-7.512-7.512,7.512,7.512,0,0,0,7.512,7.512" transform="translate(-64.37 -105.847)" fill="#d7ff01"/><path d="M88.979,146.969a7.512,7.512,0,1,0-7.513-7.513,7.513,7.513,0,0,0,7.513,7.513" transform="translate(-65.364 -105.865)" fill="#d8ff01"/><path d="M90.223,146.975a7.512,7.512,0,1,0-7.512-7.512,7.512,7.512,0,0,0,7.512,7.512" transform="translate(-66.363 -105.87)" fill="#d9ff00"/></g></g></g></svg>