<svg xmlns="http://www.w3.org/2000/svg" width="232.855" height="51.738" viewBox="0 0 232.855 51.738"><g transform="translate(-100.5 -38.163)"><g transform="translate(-2868.795 -1157.858)"><g transform="translate(2969.295 1196.022)"><g transform="translate(31.227 12.934)"><circle cx="12.935" cy="12.935" r="12.935" transform="translate(0 0)" fill="#00a099"/><circle cx="12.935" cy="12.935" r="12.935" transform="translate(0.353 0.353)" fill="#01a199"/><circle cx="12.935" cy="12.935" r="12.935" transform="translate(0.706 0.706)" fill="#02a199"/><circle cx="12.935" cy="12.935" r="12.935" transform="translate(1.059 1.059)" fill="#03a298"/><circle cx="12.935" cy="12.935" r="12.935" transform="translate(1.411 1.411)" fill="#04a398"/><circle cx="12.935" cy="12.935" r="12.935" transform="translate(1.764 1.764)" fill="#05a498"/><circle cx="12.935" cy="12.935" r="12.935" transform="translate(2.117 2.117)" fill="#06a498"/><circle cx="12.935" cy="12.935" r="12.935" transform="translate(2.47 2.47)" fill="#07a597"/><circle cx="12.935" cy="12.935" r="12.935" transform="translate(2.823 2.823)" fill="#08a697"/><circle cx="12.935" cy="12.935" r="12.935" transform="translate(3.176 3.176)" fill="#09a797"/><circle cx="12.935" cy="12.935" r="12.935" transform="translate(3.529 3.529)" fill="#0aa797"/><circle cx="12.935" cy="12.935" r="12.935" transform="translate(3.882 3.882)" fill="#0ba897"/><circle cx="12.935" cy="12.935" r="12.935" transform="translate(4.234 4.234)" fill="#0ca996"/><circle cx="12.935" cy="12.935" r="12.935" transform="translate(4.587 4.587)" fill="#0daa96"/><circle cx="12.935" cy="12.935" r="12.935" transform="translate(4.94 4.94)" fill="#0eaa96"/><circle cx="12.935" cy="12.935" r="12.935" transform="translate(5.293 5.293)" fill="#0fab96"/><circle cx="12.935" cy="12.935" r="12.935" transform="translate(5.646 5.646)" fill="#10ac96"/><circle cx="12.935" cy="12.935" r="12.935" transform="translate(5.999 5.999)" fill="#11ad95"/><circle cx="12.935" cy="12.935" r="12.935" transform="translate(6.352 6.352)" fill="#12ad95"/><circle cx="12.935" cy="12.935" r="12.935" transform="translate(6.705 6.705)" fill="#13ae95"/><circle cx="12.935" cy="12.935" r="12.935" transform="translate(7.057 7.057)" fill="#14af95"/><circle cx="12.935" cy="12.935" r="12.935" transform="translate(7.41 7.41)" fill="#15af94"/><circle cx="12.935" cy="12.935" r="12.935" transform="translate(7.763 7.763)" fill="#16b094"/><circle cx="12.935" cy="12.935" r="12.935" transform="translate(8.116 8.116)" fill="#17b194"/><circle cx="12.935" cy="12.935" r="12.935" transform="translate(8.469 8.469)" fill="#18b294"/><circle cx="12.935" cy="12.935" r="12.935" transform="translate(8.822 8.822)" fill="#19b294"/><circle cx="12.935" cy="12.935" r="12.935" transform="translate(9.176 9.176)" fill="#1ab393"/><circle cx="12.935" cy="12.935" r="12.935" transform="translate(9.555 9.538)" fill="#1bb493"/><circle cx="12.935" cy="12.935" r="12.935" transform="translate(9.944 9.881)" fill="#1cb593"/><circle cx="12.935" cy="12.935" r="12.935" transform="translate(10.344 10.206)" fill="#1db593"/><circle cx="12.935" cy="12.935" r="12.935" transform="translate(10.753 10.513)" fill="#1eb692"/><circle cx="12.935" cy="12.935" r="12.935" transform="translate(11.171 10.801)" fill="#1fb792"/><circle cx="12.935" cy="12.935" r="12.935" transform="translate(11.598 11.071)" fill="#20b892"/><circle cx="12.935" cy="12.935" r="12.935" transform="translate(12.033 11.323)" fill="#21b892"/><circle cx="12.935" cy="12.935" r="12.935" transform="translate(12.475 11.557)" fill="#22b992"/><circle cx="12.935" cy="12.935" r="12.935" transform="translate(12.924 11.772)" fill="#23ba91"/><circle cx="12.935" cy="12.935" r="12.935" transform="translate(13.379 11.969)" fill="#24ba91"/><circle cx="12.935" cy="12.935" r="12.935" transform="translate(13.84 12.148)" fill="#25bb91"/><circle cx="12.935" cy="12.935" r="12.935" transform="translate(14.307 12.308)" fill="#26bc91"/><circle cx="12.935" cy="12.935" r="12.935" transform="translate(14.778 12.45)" fill="#27bd90"/><circle cx="12.935" cy="12.935" r="12.935" transform="translate(15.252 12.574)" fill="#28bd90"/><circle cx="12.935" cy="12.935" r="12.935" transform="translate(15.731 12.68)" fill="#29be90"/><circle cx="12.935" cy="12.935" r="12.935" transform="translate(16.212 12.767)" fill="#2abf90"/><circle cx="12.935" cy="12.935" r="12.935" transform="translate(16.696 12.836)" fill="#2bc090"/><circle cx="12.935" cy="12.935" r="12.935" transform="translate(17.182 12.887)" fill="#2bc08f"/><circle cx="12.935" cy="12.935" r="12.935" transform="translate(17.668 12.92)" fill="#2cc18f"/><circle cx="12.935" cy="12.935" r="12.935" transform="translate(18.156 12.934)" fill="#2dc28f"/><circle cx="12.935" cy="12.935" r="12.935" transform="translate(18.644 12.93)" fill="#2ec38f"/><circle cx="12.935" cy="12.935" r="12.935" transform="translate(19.131 12.908)" fill="#2fc38f"/><circle cx="12.935" cy="12.935" r="12.935" transform="translate(19.617 12.867)" fill="#30c48e"/><circle cx="12.935" cy="12.935" r="12.935" transform="translate(20.102 12.808)" fill="#31c58e"/><circle cx="12.935" cy="12.935" r="12.935" transform="translate(20.585 12.731)" fill="#32c68e"/><circle cx="12.935" cy="12.935" r="12.935" transform="translate(21.065 12.636)" fill="#33c68e"/><circle cx="12.935" cy="12.935" r="12.935" transform="translate(21.542 12.522)" fill="#34c78d"/><circle cx="12.935" cy="12.935" r="12.935" transform="translate(22.015 12.39)" fill="#35c88d"/><circle cx="12.935" cy="12.935" r="12.935" transform="translate(22.484 12.24)" fill="#36c88d"/><circle cx="12.935" cy="12.935" r="12.935" transform="translate(22.948 12.071)" fill="#37c98d"/><circle cx="12.935" cy="12.935" r="12.935" transform="translate(23.407 11.884)" fill="#38ca8d"/><circle cx="12.935" cy="12.935" r="12.935" transform="translate(23.859 11.679)" fill="#39cb8c"/><circle cx="12.935" cy="12.935" r="12.935" transform="translate(24.306 11.456)" fill="#3acb8c"/><circle cx="12.935" cy="12.935" r="12.935" transform="translate(24.745 11.214)" fill="#3bcc8c"/><circle cx="12.935" cy="12.935" r="12.935" transform="translate(25.176 10.954)" fill="#3ccd8c"/><circle cx="12.935" cy="12.935" r="12.935" transform="translate(25.599 10.676)" fill="#3dce8b"/><circle cx="12.935" cy="12.935" r="12.935" transform="translate(26.013 10.38)" fill="#3ece8b"/><circle cx="12.935" cy="12.935" r="12.935" transform="translate(26.418 10.065)" fill="#3fcf8b"/><circle cx="12.935" cy="12.935" r="12.935" transform="translate(26.814 9.732)" fill="#40d08b"/><circle cx="12.935" cy="12.935" r="12.935" transform="translate(27.198 9.381)" fill="#41d18b"/><circle cx="12.935" cy="12.935" r="12.935" transform="translate(27.572 9.011)" fill="#42d18a"/><circle cx="12.935" cy="12.935" r="12.935" transform="translate(27.928 8.63)" fill="#43d28a"/><circle cx="12.935" cy="12.935" r="12.935" transform="translate(28.266 8.238)" fill="#44d38a"/><circle cx="12.935" cy="12.935" r="12.935" transform="translate(28.586 7.835)" fill="#45d38a"/><circle cx="12.935" cy="12.935" r="12.935" transform="translate(28.888 7.423)" fill="#46d489"/><circle cx="12.935" cy="12.935" r="12.935" transform="translate(29.171 7.003)" fill="#47d589"/><circle cx="12.935" cy="12.935" r="12.935" transform="translate(29.436 6.574)" fill="#48d689"/><circle cx="12.935" cy="12.935" r="12.935" transform="translate(29.683 6.137)" fill="#49d689"/><circle cx="12.935" cy="12.935" r="12.935" transform="translate(29.911 5.692)" fill="#4ad789"/><circle cx="12.935" cy="12.935" r="12.935" transform="translate(30.121 5.242)" fill="#4bd888"/><circle cx="12.935" cy="12.935" r="12.935" transform="translate(30.313 4.785)" fill="#4cd988"/><circle cx="12.935" cy="12.935" r="12.935" transform="translate(30.487 4.322)" fill="#4dd988"/><circle cx="12.935" cy="12.935" r="12.935" transform="translate(30.642 3.854)" fill="#4eda88"/><circle cx="12.935" cy="12.935" r="12.935" transform="translate(30.779 3.382)" fill="#4fdb88"/><circle cx="12.935" cy="12.935" r="12.935" transform="translate(30.898 2.906)" fill="#50dc87"/><circle cx="12.935" cy="12.935" r="12.935" transform="translate(30.999 2.427)" fill="#51dc87"/><circle cx="12.935" cy="12.935" r="12.935" transform="translate(31.081 1.945)" fill="#52dd87"/><circle cx="12.935" cy="12.935" r="12.935" transform="translate(31.145 1.461)" fill="#53de87"/><circle cx="12.935" cy="12.935" r="12.935" transform="translate(31.191 0.975)" fill="#54df86"/><circle cx="12.935" cy="12.935" r="12.935" transform="translate(31.218 0.488)" fill="#55df86"/><circle cx="12.935" cy="12.935" r="12.935" transform="translate(31.227)" fill="#56e086"/></g><g transform="translate(0 0)"><circle cx="12.935" cy="12.935" r="12.935" transform="translate(31.227 12.934)" fill="#00a099"/><circle cx="12.935" cy="12.935" r="12.935" transform="translate(30.874 12.581)" fill="#01a199"/><circle cx="12.935" cy="12.935" r="12.935" transform="translate(30.522 12.228)" fill="#02a199"/><circle cx="12.935" cy="12.935" r="12.935" transform="translate(30.169 11.875)" fill="#03a298"/><circle cx="12.935" cy="12.935" r="12.935" transform="translate(29.816 11.523)" fill="#04a398"/><circle cx="12.935" cy="12.935" r="12.935" transform="translate(29.463 11.17)" fill="#05a498"/><circle cx="12.935" cy="12.935" r="12.935" transform="translate(29.11 10.817)" fill="#06a498"/><circle cx="12.935" cy="12.935" r="12.935" transform="translate(28.757 10.464)" fill="#07a597"/><circle cx="12.935" cy="12.935" r="12.935" transform="translate(28.404 10.111)" fill="#08a697"/><circle cx="12.935" cy="12.935" r="12.935" transform="translate(28.051 9.758)" fill="#09a797"/><circle cx="12.935" cy="12.935" r="12.935" transform="translate(27.699 9.405)" fill="#0aa797"/><circle cx="12.935" cy="12.935" r="12.935" transform="translate(27.346 9.052)" fill="#0ba897"/><circle cx="12.935" cy="12.935" r="12.935" transform="translate(26.993 8.7)" fill="#0ca996"/><circle cx="12.935" cy="12.935" r="12.935" transform="translate(26.64 8.347)" fill="#0daa96"/><circle cx="12.935" cy="12.935" r="12.935" transform="translate(26.287 7.994)" fill="#0eaa96"/><circle cx="12.935" cy="12.935" r="12.935" transform="translate(25.934 7.641)" fill="#0fab96"/><circle cx="12.935" cy="12.935" r="12.935" transform="translate(25.581 7.288)" fill="#10ac96"/><circle cx="12.935" cy="12.935" r="12.935" transform="translate(25.228 6.935)" fill="#11ad95"/><circle cx="12.935" cy="12.935" r="12.935" transform="translate(24.876 6.582)" fill="#12ad95"/><circle cx="12.935" cy="12.935" r="12.935" transform="translate(24.523 6.23)" fill="#13ae95"/><circle cx="12.935" cy="12.935" r="12.935" transform="translate(24.17 5.877)" fill="#14af95"/><circle cx="12.935" cy="12.935" r="12.935" transform="translate(23.817 5.524)" fill="#15af94"/><circle cx="12.935" cy="12.935" r="12.935" transform="translate(23.464 5.171)" fill="#16b094"/><circle cx="12.935" cy="12.935" r="12.935" transform="translate(23.111 4.818)" fill="#17b194"/><circle cx="12.935" cy="12.935" r="12.935" transform="translate(22.758 4.465)" fill="#18b294"/><circle cx="12.935" cy="12.935" r="12.935" transform="translate(22.406 4.112)" fill="#19b294"/><circle cx="12.935" cy="12.935" r="12.935" transform="translate(22.051 3.758)" fill="#1ab393"/><circle cx="12.935" cy="12.935" r="12.935" transform="translate(21.672 3.396)" fill="#1bb493"/><circle cx="12.935" cy="12.935" r="12.935" transform="translate(21.283 3.053)" fill="#1cb593"/><circle cx="12.935" cy="12.935" r="12.935" transform="translate(20.883 2.728)" fill="#1db593"/><circle cx="12.935" cy="12.935" r="12.935" transform="translate(20.474 2.421)" fill="#1eb692"/><circle cx="12.935" cy="12.935" r="12.935" transform="translate(20.056 2.133)" fill="#1fb792"/><circle cx="12.935" cy="12.935" r="12.935" transform="translate(19.629 1.863)" fill="#20b892"/><circle cx="12.935" cy="12.935" r="12.935" transform="translate(19.194 1.611)" fill="#21b892"/><circle cx="12.935" cy="12.935" r="12.935" transform="translate(18.752 1.377)" fill="#22b992"/><circle cx="12.935" cy="12.935" r="12.935" transform="translate(18.303 1.162)" fill="#23ba91"/><circle cx="12.935" cy="12.935" r="12.935" transform="translate(17.848 0.965)" fill="#24ba91"/><circle cx="12.935" cy="12.935" r="12.935" transform="translate(17.387 0.786)" fill="#25bb91"/><circle cx="12.935" cy="12.935" r="12.935" transform="translate(16.921 0.626)" fill="#26bc91"/><circle cx="12.935" cy="12.935" r="12.935" transform="translate(16.45 0.484)" fill="#27bd90"/><circle cx="12.935" cy="12.935" r="12.935" transform="translate(15.975 0.36)" fill="#28bd90"/><circle cx="12.935" cy="12.935" r="12.935" transform="translate(15.496 0.254)" fill="#29be90"/><circle cx="12.935" cy="12.935" r="12.935" transform="translate(15.015 0.167)" fill="#2abf90"/><circle cx="12.935" cy="12.935" r="12.935" transform="translate(14.531 0.098)" fill="#2bc090"/><circle cx="12.935" cy="12.935" r="12.935" transform="translate(14.046 0.047)" fill="#2bc08f"/><circle cx="12.935" cy="12.935" r="12.935" transform="translate(13.559 0.014)" fill="#2cc18f"/><circle cx="12.935" cy="12.935" r="12.935" transform="translate(13.071)" fill="#2dc28f"/><circle cx="12.935" cy="12.935" r="12.935" transform="translate(12.583 0.004)" fill="#2ec38f"/><circle cx="12.935" cy="12.935" r="12.935" transform="translate(12.096 0.026)" fill="#2fc38f"/><circle cx="12.935" cy="12.935" r="12.935" transform="translate(11.61 0.067)" fill="#30c48e"/><circle cx="12.935" cy="12.935" r="12.935" transform="translate(11.125 0.126)" fill="#31c58e"/><circle cx="12.935" cy="12.935" r="12.935" transform="translate(10.642 0.203)" fill="#32c68e"/><circle cx="12.935" cy="12.935" r="12.935" transform="translate(10.162 0.298)" fill="#33c68e"/><circle cx="12.935" cy="12.935" r="12.935" transform="translate(9.685 0.412)" fill="#34c78d"/><circle cx="12.935" cy="12.935" r="12.935" transform="translate(9.212 0.544)" fill="#35c88d"/><circle cx="12.935" cy="12.935" r="12.935" transform="translate(8.743 0.694)" fill="#36c88d"/><circle cx="12.935" cy="12.935" r="12.935" transform="translate(8.279 0.863)" fill="#37c98d"/><circle cx="12.935" cy="12.935" r="12.935" transform="translate(7.82 1.05)" fill="#38ca8d"/><circle cx="12.935" cy="12.935" r="12.935" transform="translate(7.368 1.255)" fill="#39cb8c"/><circle cx="12.935" cy="12.935" r="12.935" transform="translate(6.922 1.478)" fill="#3acb8c"/><circle cx="12.935" cy="12.935" r="12.935" transform="translate(6.483 1.72)" fill="#3bcc8c"/><circle cx="12.935" cy="12.935" r="12.935" transform="translate(6.051 1.98)" fill="#3ccd8c"/><circle cx="12.935" cy="12.935" r="12.935" transform="translate(5.628 2.258)" fill="#3dce8b"/><circle cx="12.935" cy="12.935" r="12.935" transform="translate(5.214 2.554)" fill="#3ece8b"/><circle cx="12.935" cy="12.935" r="12.935" transform="translate(4.809 2.869)" fill="#3fcf8b"/><circle cx="12.935" cy="12.935" r="12.935" transform="translate(4.414 3.202)" fill="#40d08b"/><circle cx="12.935" cy="12.935" r="12.935" transform="translate(4.029 3.553)" fill="#41d18b"/><circle cx="12.935" cy="12.935" r="12.935" transform="translate(3.656 3.923)" fill="#42d18a"/><circle cx="12.935" cy="12.935" r="12.935" transform="translate(3.299 4.304)" fill="#43d28a"/><circle cx="12.935" cy="12.935" r="12.935" transform="translate(2.961 4.697)" fill="#44d38a"/><circle cx="12.935" cy="12.935" r="12.935" transform="translate(2.641 5.099)" fill="#45d38a"/><circle cx="12.935" cy="12.935" r="12.935" transform="translate(2.34 5.511)" fill="#46d489"/><circle cx="12.935" cy="12.935" r="12.935" transform="translate(2.056 5.931)" fill="#47d589"/><circle cx="12.935" cy="12.935" r="12.935" transform="translate(1.791 6.36)" fill="#48d689"/><circle cx="12.935" cy="12.935" r="12.935" transform="translate(1.545 6.797)" fill="#49d689"/><circle cx="12.935" cy="12.935" r="12.935" transform="translate(1.316 7.242)" fill="#4ad789"/><circle cx="12.935" cy="12.935" r="12.935" transform="translate(1.106 7.692)" fill="#4bd888"/><circle cx="12.935" cy="12.935" r="12.935" transform="translate(0.914 8.149)" fill="#4cd988"/><circle cx="12.935" cy="12.935" r="12.935" transform="translate(0.74 8.612)" fill="#4dd988"/><circle cx="12.935" cy="12.935" r="12.935" transform="translate(0.585 9.08)" fill="#4eda88"/><circle cx="12.935" cy="12.935" r="12.935" transform="translate(0.448 9.552)" fill="#4fdb88"/><circle cx="12.935" cy="12.935" r="12.935" transform="translate(0.329 10.028)" fill="#50dc87"/><circle cx="12.935" cy="12.935" r="12.935" transform="translate(0.228 10.507)" fill="#51dc87"/><circle cx="12.935" cy="12.935" r="12.935" transform="translate(0.146 10.989)" fill="#52dd87"/><circle cx="12.935" cy="12.935" r="12.935" transform="translate(0.082 11.473)" fill="#53de87"/><circle cx="12.935" cy="12.935" r="12.935" transform="translate(0.037 11.959)" fill="#54df86"/><circle cx="12.935" cy="12.935" r="12.935" transform="translate(0.009 12.446)" fill="#55df86"/><circle cx="12.935" cy="12.935" r="12.935" transform="translate(0 12.934)" fill="#56e086"/></g><g transform="translate(0 0)"><circle cx="12.935" cy="12.935" r="12.935" transform="translate(62.454 12.934)" fill="#56e086"/><circle cx="12.935" cy="12.935" r="12.935" transform="translate(62.45 12.594)" fill="#57e085"/><circle cx="12.935" cy="12.935" r="12.935" transform="translate(62.437 12.254)" fill="#58e084"/><circle cx="12.935" cy="12.935" r="12.935" transform="translate(62.414 11.914)" fill="#59e083"/><circle cx="12.935" cy="12.935" r="12.935" transform="translate(62.383 11.575)" fill="#5ae082"/><circle cx="12.935" cy="12.935" r="12.935" transform="translate(62.343 11.237)" fill="#5be081"/><circle cx="12.935" cy="12.935" r="12.935" transform="translate(62.294 10.899)" fill="#5ce080"/><circle cx="12.935" cy="12.935" r="12.935" transform="translate(62.237 10.563)" fill="#5de07f"/><circle cx="12.935" cy="12.935" r="12.935" transform="translate(62.17 10.228)" fill="#5ee07e"/><circle cx="12.935" cy="12.935" r="12.935" transform="translate(62.094 9.895)" fill="#5fe07d"/><circle cx="12.935" cy="12.935" r="12.935" transform="translate(62.01 9.563)" fill="#60e07c"/><circle cx="12.935" cy="12.935" r="12.935" transform="translate(61.916 9.233)" fill="#61e07b"/><circle cx="12.935" cy="12.935" r="12.935" transform="translate(61.814 8.906)" fill="#62e07a"/><circle cx="12.935" cy="12.935" r="12.935" transform="translate(61.703 8.58)" fill="#63e079"/><circle cx="12.935" cy="12.935" r="12.935" transform="translate(61.583 8.257)" fill="#64df78"/><circle cx="12.935" cy="12.935" r="12.935" transform="translate(61.454 7.937)" fill="#65df77"/><circle cx="12.935" cy="12.935" r="12.935" transform="translate(61.316 7.619)" fill="#66df76"/><circle cx="12.935" cy="12.935" r="12.935" transform="translate(61.169 7.305)" fill="#67df75"/><circle cx="12.935" cy="12.935" r="12.935" transform="translate(61.014 6.994)" fill="#68df74"/><circle cx="12.935" cy="12.935" r="12.935" transform="translate(60.849 6.686)" fill="#69df73"/><circle cx="12.935" cy="12.935" r="12.935" transform="translate(60.676 6.382)" fill="#6adf72"/><circle cx="12.935" cy="12.935" r="12.935" transform="translate(60.493 6.081)" fill="#6bdf71"/><circle cx="12.935" cy="12.935" r="12.935" transform="translate(60.302 5.785)" fill="#6cdf70"/><circle cx="12.935" cy="12.935" r="12.935" transform="translate(60.102 5.492)" fill="#6ddf6f"/><circle cx="12.935" cy="12.935" r="12.935" transform="translate(59.893 5.205)" fill="#6edf6e"/><circle cx="12.935" cy="12.935" r="12.935" transform="translate(59.675 4.921)" fill="#6fdf6d"/><circle cx="12.935" cy="12.935" r="12.935" transform="translate(59.448 4.642)" fill="#70df6c"/><circle cx="12.935" cy="12.935" r="12.935" transform="translate(59.213 4.369)" fill="#71df6b"/><circle cx="12.935" cy="12.935" r="12.935" transform="translate(58.968 4.1)" fill="#72df6a"/><circle cx="12.935" cy="12.935" r="12.935" transform="translate(58.715 3.837)" fill="#73df69"/><circle cx="12.935" cy="12.935" r="12.935" transform="translate(58.453 3.58)" fill="#74df68"/><circle cx="12.935" cy="12.935" r="12.935" transform="translate(58.187 3.332)" fill="#75df67"/><circle cx="12.935" cy="12.935" r="12.935" transform="translate(57.915 3.093)" fill="#76df66"/><circle cx="12.935" cy="12.935" r="12.935" transform="translate(57.638 2.863)" fill="#77df65"/><circle cx="12.935" cy="12.935" r="12.935" transform="translate(57.356 2.642)" fill="#78df64"/><circle cx="12.935" cy="12.935" r="12.935" transform="translate(57.07 2.429)" fill="#79df63"/><circle cx="12.935" cy="12.935" r="12.935" transform="translate(56.779 2.226)" fill="#7adf62"/><circle cx="12.935" cy="12.935" r="12.935" transform="translate(56.484 2.031)" fill="#7bdf61"/><circle cx="12.935" cy="12.935" r="12.935" transform="translate(56.185 1.846)" fill="#7cdf60"/><circle cx="12.935" cy="12.935" r="12.935" transform="translate(55.883 1.669)" fill="#7ddf5f"/><circle cx="12.935" cy="12.935" r="12.935" transform="translate(55.576 1.501)" fill="#7edf5e"/><circle cx="12.935" cy="12.935" r="12.935" transform="translate(55.266 1.342)" fill="#7fde5d"/><circle cx="12.935" cy="12.935" r="12.935" transform="translate(54.953 1.192)" fill="#80de5c"/><circle cx="12.935" cy="12.935" r="12.935" transform="translate(54.636 1.051)" fill="#81de5b"/><circle cx="12.935" cy="12.935" r="12.935" transform="translate(54.317 0.918)" fill="#82de5a"/><circle cx="12.935" cy="12.935" r="12.935" transform="translate(53.995 0.795)" fill="#83de59"/><circle cx="12.935" cy="12.935" r="12.935" transform="translate(53.671 0.68)" fill="#84de58"/><circle cx="12.935" cy="12.935" r="12.935" transform="translate(53.344 0.575)" fill="#85de57"/><circle cx="12.935" cy="12.935" r="12.935" transform="translate(53.015 0.478)" fill="#86de56"/><circle cx="12.935" cy="12.935" r="12.935" transform="translate(52.684 0.39)" fill="#87de55"/><circle cx="12.935" cy="12.935" r="12.935" transform="translate(52.351 0.311)" fill="#88de54"/><circle cx="12.935" cy="12.935" r="12.935" transform="translate(52.016 0.241)" fill="#89de53"/><circle cx="12.935" cy="12.935" r="12.935" transform="translate(51.681 0.18)" fill="#8ade52"/><circle cx="12.935" cy="12.935" r="12.935" transform="translate(51.344 0.128)" fill="#8bde51"/><circle cx="12.935" cy="12.935" r="12.935" transform="translate(51.006 0.085)" fill="#8cde50"/><circle cx="12.935" cy="12.935" r="12.935" transform="translate(50.667 0.05)" fill="#8dde4f"/><circle cx="12.935" cy="12.935" r="12.935" transform="translate(50.328 0.024)" fill="#8ede4e"/><circle cx="12.935" cy="12.935" r="12.935" transform="translate(49.988 0.008)" fill="#8fde4d"/><circle cx="12.935" cy="12.935" r="12.935" transform="translate(49.647)" fill="#90de4c"/><circle cx="12.935" cy="12.935" r="12.935" transform="translate(49.307 0.001)" fill="#91de4b"/><circle cx="12.935" cy="12.935" r="12.935" transform="translate(48.967 0.011)" fill="#92de4a"/><circle cx="12.935" cy="12.935" r="12.935" transform="translate(48.627 0.03)" fill="#93de49"/><circle cx="12.935" cy="12.935" r="12.935" transform="translate(48.288 0.058)" fill="#94de48"/><circle cx="12.935" cy="12.935" r="12.935" transform="translate(47.949 0.094)" fill="#95de47"/><circle cx="12.935" cy="12.935" r="12.935" transform="translate(47.612 0.14)" fill="#96de46"/><circle cx="12.935" cy="12.935" r="12.935" transform="translate(47.275 0.195)" fill="#97de45"/><circle cx="12.935" cy="12.935" r="12.935" transform="translate(46.94 0.258)" fill="#98de44"/><circle cx="12.935" cy="12.935" r="12.935" transform="translate(46.606 0.33)" fill="#99de43"/><circle cx="12.935" cy="12.935" r="12.935" transform="translate(46.273 0.411)" fill="#9add43"/><circle cx="12.935" cy="12.935" r="12.935" transform="translate(45.943 0.501)" fill="#9bdd42"/><circle cx="12.935" cy="12.935" r="12.935" transform="translate(45.614 0.6)" fill="#9cdd41"/><circle cx="12.935" cy="12.935" r="12.935" transform="translate(45.288 0.708)" fill="#9ddd40"/><circle cx="12.935" cy="12.935" r="12.935" transform="translate(44.964 0.825)" fill="#9edd3f"/><circle cx="12.935" cy="12.935" r="12.935" transform="translate(44.643 0.95)" fill="#9fdd3e"/><circle cx="12.935" cy="12.935" r="12.935" transform="translate(44.324 1.085)" fill="#a0dd3d"/><circle cx="12.935" cy="12.935" r="12.935" transform="translate(44.008 1.228)" fill="#a1dd3c"/><circle cx="12.935" cy="12.935" r="12.935" transform="translate(43.696 1.381)" fill="#a2dd3b"/><circle cx="12.935" cy="12.935" r="12.935" transform="translate(43.387 1.542)" fill="#a3dd3a"/><circle cx="12.935" cy="12.935" r="12.935" transform="translate(43.081 1.712)" fill="#a4dd39"/><circle cx="12.935" cy="12.935" r="12.935" transform="translate(42.779 1.891)" fill="#a5dd38"/><circle cx="12.935" cy="12.935" r="12.935" transform="translate(42.481 2.079)" fill="#a6dd37"/><circle cx="12.935" cy="12.935" r="12.935" transform="translate(42.187 2.276)" fill="#a7dd36"/><circle cx="12.935" cy="12.935" r="12.935" transform="translate(41.898 2.481)" fill="#a8dd35"/><circle cx="12.935" cy="12.935" r="12.935" transform="translate(41.613 2.696)" fill="#a9dd34"/><circle cx="12.935" cy="12.935" r="12.935" transform="translate(41.332 2.919)" fill="#ad3"/><circle cx="12.935" cy="12.935" r="12.935" transform="translate(41.056 3.152)" fill="#abdd32"/><circle cx="12.935" cy="12.935" r="12.935" transform="translate(40.786 3.393)" fill="#acdd31"/><circle cx="12.935" cy="12.935" r="12.935" transform="translate(40.521 3.643)" fill="#addd30"/><circle cx="12.935" cy="12.935" r="12.935" transform="translate(40.266 3.895)" fill="#aedd2f"/><circle cx="12.935" cy="12.935" r="12.935" transform="translate(40.02 4.142)" fill="#afdd2e"/><circle cx="12.935" cy="12.935" r="12.935" transform="translate(39.774 4.388)" fill="#b0dd2d"/><circle cx="12.935" cy="12.935" r="12.935" transform="translate(39.528 4.634)" fill="#b1dd2c"/><circle cx="12.935" cy="12.935" r="12.935" transform="translate(39.281 4.88)" fill="#b2dd2b"/><circle cx="12.935" cy="12.935" r="12.935" transform="translate(39.035 5.126)" fill="#b3dd2a"/><circle cx="12.935" cy="12.935" r="12.935" transform="translate(38.789 5.372)" fill="#b4dd29"/><circle cx="12.935" cy="12.935" r="12.935" transform="translate(38.543 5.618)" fill="#b5dc28"/><circle cx="12.935" cy="12.935" r="12.935" transform="translate(38.297 5.865)" fill="#b6dc27"/><circle cx="12.935" cy="12.935" r="12.935" transform="translate(38.051 6.111)" fill="#b7dc26"/><circle cx="12.935" cy="12.935" r="12.935" transform="translate(37.804 6.357)" fill="#b8dc25"/><circle cx="12.935" cy="12.935" r="12.935" transform="translate(37.558 6.603)" fill="#b9dc24"/><circle cx="12.935" cy="12.935" r="12.935" transform="translate(37.312 6.849)" fill="#badc23"/><circle cx="12.935" cy="12.935" r="12.935" transform="translate(37.066 7.095)" fill="#bbdc22"/><circle cx="12.935" cy="12.935" r="12.935" transform="translate(36.82 7.341)" fill="#bcdc21"/><circle cx="12.935" cy="12.935" r="12.935" transform="translate(36.574 7.588)" fill="#bddc20"/><circle cx="12.935" cy="12.935" r="12.935" transform="translate(36.328 7.834)" fill="#bedc1f"/><circle cx="12.935" cy="12.935" r="12.935" transform="translate(36.081 8.08)" fill="#bfdc1e"/><circle cx="12.935" cy="12.935" r="12.935" transform="translate(35.835 8.326)" fill="#c0dc1d"/><circle cx="12.935" cy="12.935" r="12.935" transform="translate(35.589 8.572)" fill="#c1dc1c"/><circle cx="12.935" cy="12.935" r="12.935" transform="translate(35.343 8.818)" fill="#c2dc1b"/><circle cx="12.935" cy="12.935" r="12.935" transform="translate(35.097 9.064)" fill="#c3dc1a"/><circle cx="12.935" cy="12.935" r="12.935" transform="translate(34.851 9.311)" fill="#c4dc19"/><circle cx="12.935" cy="12.935" r="12.935" transform="translate(34.605 9.557)" fill="#c5dc18"/><circle cx="12.935" cy="12.935" r="12.935" transform="translate(34.358 9.803)" fill="#c6dc17"/><circle cx="12.935" cy="12.935" r="12.935" transform="translate(34.112 10.049)" fill="#c7dc16"/><circle cx="12.935" cy="12.935" r="12.935" transform="translate(33.866 10.295)" fill="#c8dc15"/><circle cx="12.935" cy="12.935" r="12.935" transform="translate(33.62 10.541)" fill="#c9dc14"/><circle cx="12.935" cy="12.935" r="12.935" transform="translate(33.374 10.788)" fill="#cadc13"/><circle cx="12.935" cy="12.935" r="12.935" transform="translate(33.128 11.034)" fill="#cbdc12"/><circle cx="12.935" cy="12.935" r="12.935" transform="translate(32.882 11.28)" fill="#ccdc11"/><circle cx="12.935" cy="12.935" r="12.935" transform="translate(32.635 11.526)" fill="#cddc10"/><circle cx="12.935" cy="12.935" r="12.935" transform="translate(32.389 11.772)" fill="#cedc0f"/><circle cx="12.935" cy="12.935" r="12.935" transform="translate(32.143 12.018)" fill="#cfdc0e"/><circle cx="12.935" cy="12.935" r="12.935" transform="translate(31.897 12.264)" fill="#d0db0d"/><circle cx="12.935" cy="12.935" r="12.935" transform="translate(31.651 12.511)" fill="#d1db0c"/><circle cx="12.935" cy="12.935" r="12.935" transform="translate(31.405 12.757)" fill="#d2db0b"/><circle cx="12.935" cy="12.935" r="12.935" transform="translate(31.159 13.003)" fill="#d3db0a"/><circle cx="12.935" cy="12.935" r="12.935" transform="translate(30.912 13.249)" fill="#d4db09"/><circle cx="12.935" cy="12.935" r="12.935" transform="translate(30.666 13.495)" fill="#d5db08"/><circle cx="12.935" cy="12.935" r="12.935" transform="translate(30.42 13.741)" fill="#d6db07"/><circle cx="12.935" cy="12.935" r="12.935" transform="translate(30.174 13.987)" fill="#d7db06"/><circle cx="12.935" cy="12.935" r="12.935" transform="translate(29.928 14.234)" fill="#d8db05"/><circle cx="12.935" cy="12.935" r="12.935" transform="translate(29.682 14.48)" fill="#d9db04"/><circle cx="12.935" cy="12.935" r="12.935" transform="translate(29.435 14.726)" fill="#dadb03"/><circle cx="12.935" cy="12.935" r="12.935" transform="translate(29.189 14.972)" fill="#dbdb02"/><circle cx="12.935" cy="12.935" r="12.935" transform="translate(28.943 15.218)" fill="#dcdb01"/><circle cx="12.935" cy="12.935" r="12.935" transform="translate(28.697 15.464)" fill="#dddb00"/><circle cx="12.935" cy="12.935" r="12.935" transform="translate(28.488 15.673)" fill="#dcdb01"/><circle cx="12.935" cy="12.935" r="12.935" transform="translate(28.28 15.882)" fill="#dbdb02"/><circle cx="12.935" cy="12.935" r="12.935" transform="translate(28.071 16.09)" fill="#dadb03"/><circle cx="12.935" cy="12.935" r="12.935" transform="translate(27.862 16.299)" fill="#d9db04"/><circle cx="12.935" cy="12.935" r="12.935" transform="translate(27.654 16.508)" fill="#d8db05"/><circle cx="12.935" cy="12.935" r="12.935" transform="translate(27.445 16.716)" fill="#d7db06"/><circle cx="12.935" cy="12.935" r="12.935" transform="translate(27.236 16.925)" fill="#d6db07"/><circle cx="12.935" cy="12.935" r="12.935" transform="translate(27.028 17.134)" fill="#d5db08"/><circle cx="12.935" cy="12.935" r="12.935" transform="translate(26.819 17.342)" fill="#d4db09"/><circle cx="12.935" cy="12.935" r="12.935" transform="translate(26.61 17.551)" fill="#d3db0a"/><circle cx="12.935" cy="12.935" r="12.935" transform="translate(26.402 17.76)" fill="#d2db0b"/><circle cx="12.935" cy="12.935" r="12.935" transform="translate(26.193 17.968)" fill="#d1db0c"/><circle cx="12.935" cy="12.935" r="12.935" transform="translate(25.984 18.177)" fill="#d0db0d"/><circle cx="12.935" cy="12.935" r="12.935" transform="translate(25.776 18.386)" fill="#cfdc0e"/><circle cx="12.935" cy="12.935" r="12.935" transform="translate(25.567 18.594)" fill="#cedc0f"/><circle cx="12.935" cy="12.935" r="12.935" transform="translate(25.358 18.803)" fill="#cddc10"/><circle cx="12.935" cy="12.935" r="12.935" transform="translate(25.15 19.012)" fill="#ccdc11"/><circle cx="12.935" cy="12.935" r="12.935" transform="translate(24.941 19.22)" fill="#cbdc12"/><circle cx="12.935" cy="12.935" r="12.935" transform="translate(24.732 19.429)" fill="#cadc13"/><circle cx="12.935" cy="12.935" r="12.935" transform="translate(24.524 19.638)" fill="#c9dc14"/><circle cx="12.935" cy="12.935" r="12.935" transform="translate(24.315 19.846)" fill="#c8dc15"/><circle cx="12.935" cy="12.935" r="12.935" transform="translate(24.106 20.055)" fill="#c7dc16"/><circle cx="12.935" cy="12.935" r="12.935" transform="translate(23.898 20.264)" fill="#c6dc17"/><circle cx="12.935" cy="12.935" r="12.935" transform="translate(23.689 20.472)" fill="#c5dc18"/><circle cx="12.935" cy="12.935" r="12.935" transform="translate(23.48 20.681)" fill="#c4dc19"/><circle cx="12.935" cy="12.935" r="12.935" transform="translate(23.272 20.89)" fill="#c3dc1a"/><circle cx="12.935" cy="12.935" r="12.935" transform="translate(23.063 21.098)" fill="#c2dc1b"/><circle cx="12.935" cy="12.935" r="12.935" transform="translate(22.855 21.307)" fill="#c1dc1c"/><circle cx="12.935" cy="12.935" r="12.935" transform="translate(22.646 21.516)" fill="#c0dc1d"/><circle cx="12.935" cy="12.935" r="12.935" transform="translate(22.437 21.724)" fill="#bfdc1e"/><circle cx="12.935" cy="12.935" r="12.935" transform="translate(22.229 21.933)" fill="#bedc1f"/><circle cx="12.935" cy="12.935" r="12.935" transform="translate(22.016 22.145)" fill="#bddc20"/><circle cx="12.935" cy="12.935" r="12.935" transform="translate(21.793 22.36)" fill="#bcdc21"/><circle cx="12.935" cy="12.935" r="12.935" transform="translate(21.566 22.568)" fill="#bbdc22"/><circle cx="12.935" cy="12.935" r="12.935" transform="translate(21.335 22.77)" fill="#badc23"/><circle cx="12.935" cy="12.935" r="12.935" transform="translate(21.101 22.966)" fill="#b9dc24"/><circle cx="12.935" cy="12.935" r="12.935" transform="translate(20.863 23.156)" fill="#b8dc25"/><circle cx="12.935" cy="12.935" r="12.935" transform="translate(20.622 23.339)" fill="#b7dc26"/><circle cx="12.935" cy="12.935" r="12.935" transform="translate(20.378 23.515)" fill="#b6dc27"/><circle cx="12.935" cy="12.935" r="12.935" transform="translate(20.13 23.686)" fill="#b5dc28"/><circle cx="12.935" cy="12.935" r="12.935" transform="translate(19.88 23.849)" fill="#b4dd29"/><circle cx="12.935" cy="12.935" r="12.935" transform="translate(19.626 24.007)" fill="#b3dd2a"/><circle cx="12.935" cy="12.935" r="12.935" transform="translate(19.37 24.158)" fill="#b2dd2b"/><circle cx="12.935" cy="12.935" r="12.935" transform="translate(19.111 24.303)" fill="#b1dd2c"/><circle cx="12.935" cy="12.935" r="12.935" transform="translate(18.85 24.441)" fill="#b0dd2d"/><circle cx="12.935" cy="12.935" r="12.935" transform="translate(18.586 24.573)" fill="#afdd2e"/><circle cx="12.935" cy="12.935" r="12.935" transform="translate(18.32 24.698)" fill="#aedd2f"/><circle cx="12.935" cy="12.935" r="12.935" transform="translate(18.052 24.818)" fill="#addd30"/><circle cx="12.935" cy="12.935" r="12.935" transform="translate(17.781 24.93)" fill="#acdd31"/><circle cx="12.935" cy="12.935" r="12.935" transform="translate(17.509 25.037)" fill="#abdd32"/><circle cx="12.935" cy="12.935" r="12.935" transform="translate(17.234 25.137)" fill="#ad3"/><circle cx="12.935" cy="12.935" r="12.935" transform="translate(16.958 25.23)" fill="#a9dd34"/><circle cx="12.935" cy="12.935" r="12.935" transform="translate(16.681 25.317)" fill="#a8dd35"/><circle cx="12.935" cy="12.935" r="12.935" transform="translate(16.401 25.398)" fill="#a7dd36"/><circle cx="12.935" cy="12.935" r="12.935" transform="translate(16.121 25.472)" fill="#a6dd37"/><circle cx="12.935" cy="12.935" r="12.935" transform="translate(15.839 25.54)" fill="#a5dd38"/><circle cx="12.935" cy="12.935" r="12.935" transform="translate(15.556 25.602)" fill="#a4dd39"/><circle cx="12.935" cy="12.935" r="12.935" transform="translate(15.272 25.657)" fill="#a3dd3a"/><circle cx="12.935" cy="12.935" r="12.935" transform="translate(14.987 25.706)" fill="#a2dd3b"/><circle cx="12.935" cy="12.935" r="12.935" transform="translate(14.701 25.748)" fill="#a1dd3c"/><circle cx="12.935" cy="12.935" r="12.935" transform="translate(14.414 25.785)" fill="#a0dd3d"/><circle cx="12.935" cy="12.935" r="12.935" transform="translate(14.127 25.814)" fill="#9fdd3e"/><circle cx="12.935" cy="12.935" r="12.935" transform="translate(13.839 25.837)" fill="#9edd3f"/><circle cx="12.935" cy="12.935" r="12.935" transform="translate(13.551 25.854)" fill="#9ddd40"/><circle cx="12.935" cy="12.935" r="12.935" transform="translate(13.263 25.865)" fill="#9cdd41"/><circle cx="12.935" cy="12.935" r="12.935" transform="translate(12.975 25.869)" fill="#9bdd42"/><circle cx="12.935" cy="12.935" r="12.935" transform="translate(12.686 25.866)" fill="#9add43"/><circle cx="12.935" cy="12.935" r="12.935" transform="translate(12.398 25.858)" fill="#99de43"/><circle cx="12.935" cy="12.935" r="12.935" transform="translate(12.11 25.843)" fill="#98de44"/><circle cx="12.935" cy="12.935" r="12.935" transform="translate(11.822 25.821)" fill="#97de45"/><circle cx="12.935" cy="12.935" r="12.935" transform="translate(11.535 25.793)" fill="#96de46"/><circle cx="12.935" cy="12.935" r="12.935" transform="translate(11.248 25.759)" fill="#95de47"/><circle cx="12.935" cy="12.935" r="12.935" transform="translate(10.962 25.718)" fill="#94de48"/><circle cx="12.935" cy="12.935" r="12.935" transform="translate(10.676 25.671)" fill="#93de49"/><circle cx="12.935" cy="12.935" r="12.935" transform="translate(10.392 25.618)" fill="#92de4a"/><circle cx="12.935" cy="12.935" r="12.935" transform="translate(10.109 25.558)" fill="#91de4b"/><circle cx="12.935" cy="12.935" r="12.935" transform="translate(9.826 25.492)" fill="#90de4c"/><circle cx="12.935" cy="12.935" r="12.935" transform="translate(9.546 25.419)" fill="#8fde4d"/><circle cx="12.935" cy="12.935" r="12.935" transform="translate(9.266 25.34)" fill="#8ede4e"/><circle cx="12.935" cy="12.935" r="12.935" transform="translate(8.988 25.255)" fill="#8dde4f"/><circle cx="12.935" cy="12.935" r="12.935" transform="translate(8.711 25.163)" fill="#8cde50"/><circle cx="12.935" cy="12.935" r="12.935" transform="translate(8.436 25.065)" fill="#8bde51"/><circle cx="12.935" cy="12.935" r="12.935" transform="translate(8.163 24.96)" fill="#8ade52"/><circle cx="12.935" cy="12.935" r="12.935" transform="translate(7.892 24.849)" fill="#89de53"/><circle cx="12.935" cy="12.935" r="12.935" transform="translate(7.623 24.732)" fill="#88de54"/><circle cx="12.935" cy="12.935" r="12.935" transform="translate(7.357 24.608)" fill="#87de55"/><circle cx="12.935" cy="12.935" r="12.935" transform="translate(7.092 24.478)" fill="#86de56"/><circle cx="12.935" cy="12.935" r="12.935" transform="translate(6.83 24.341)" fill="#85de57"/><circle cx="12.935" cy="12.935" r="12.935" transform="translate(6.57 24.199)" fill="#84de58"/><circle cx="12.935" cy="12.935" r="12.935" transform="translate(6.313 24.049)" fill="#83de59"/><circle cx="12.935" cy="12.935" r="12.935" transform="translate(6.059 23.894)" fill="#82de5a"/><circle cx="12.935" cy="12.935" r="12.935" transform="translate(5.808 23.731)" fill="#81de5b"/><circle cx="12.935" cy="12.935" r="12.935" transform="translate(5.56 23.563)" fill="#80de5c"/><circle cx="12.935" cy="12.935" r="12.935" transform="translate(5.314 23.388)" fill="#7fde5d"/><circle cx="12.935" cy="12.935" r="12.935" transform="translate(5.072 23.207)" fill="#7edf5e"/><circle cx="12.935" cy="12.935" r="12.935" transform="translate(4.834 23.019)" fill="#7ddf5f"/><circle cx="12.935" cy="12.935" r="12.935" transform="translate(4.598 22.825)" fill="#7cdf60"/><circle cx="12.935" cy="12.935" r="12.935" transform="translate(4.367 22.625)" fill="#7bdf61"/><circle cx="12.935" cy="12.935" r="12.935" transform="translate(4.139 22.418)" fill="#7adf62"/><circle cx="12.935" cy="12.935" r="12.935" transform="translate(3.914 22.205)" fill="#79df63"/><circle cx="12.935" cy="12.935" r="12.935" transform="translate(3.694 21.985)" fill="#78df64"/><circle cx="12.935" cy="12.935" r="12.935" transform="translate(3.48 21.761)" fill="#77df65"/><circle cx="12.935" cy="12.935" r="12.935" transform="translate(3.272 21.534)" fill="#76df66"/><circle cx="12.935" cy="12.935" r="12.935" transform="translate(3.071 21.303)" fill="#75df67"/><circle cx="12.935" cy="12.935" r="12.935" transform="translate(2.876 21.068)" fill="#74df68"/><circle cx="12.935" cy="12.935" r="12.935" transform="translate(2.688 20.83)" fill="#73df69"/><circle cx="12.935" cy="12.935" r="12.935" transform="translate(2.505 20.588)" fill="#72df6a"/><circle cx="12.935" cy="12.935" r="12.935" transform="translate(2.33 20.343)" fill="#71df6b"/><circle cx="12.935" cy="12.935" r="12.935" transform="translate(2.16 20.095)" fill="#70df6c"/><circle cx="12.935" cy="12.935" r="12.935" transform="translate(1.997 19.844)" fill="#6fdf6d"/><circle cx="12.935" cy="12.935" r="12.935" transform="translate(1.841 19.591)" fill="#6edf6e"/><circle cx="12.935" cy="12.935" r="12.935" transform="translate(1.691 19.334)" fill="#6ddf6f"/><circle cx="12.935" cy="12.935" r="12.935" transform="translate(1.547 19.075)" fill="#6cdf70"/><circle cx="12.935" cy="12.935" r="12.935" transform="translate(1.409 18.813)" fill="#6bdf71"/><circle cx="12.935" cy="12.935" r="12.935" transform="translate(1.278 18.549)" fill="#6adf72"/><circle cx="12.935" cy="12.935" r="12.935" transform="translate(1.154 18.282)" fill="#69df73"/><circle cx="12.935" cy="12.935" r="12.935" transform="translate(1.035 18.014)" fill="#68df74"/><circle cx="12.935" cy="12.935" r="12.935" transform="translate(0.924 17.743)" fill="#67df75"/><circle cx="12.935" cy="12.935" r="12.935" transform="translate(0.818 17.47)" fill="#66df76"/><circle cx="12.935" cy="12.935" r="12.935" transform="translate(0.719 17.196)" fill="#65df77"/><circle cx="12.935" cy="12.935" r="12.935" transform="translate(0.626 16.919)" fill="#64df78"/><circle cx="12.935" cy="12.935" r="12.935" transform="translate(0.54 16.641)" fill="#63e079"/><circle cx="12.935" cy="12.935" r="12.935" transform="translate(0.46 16.362)" fill="#62e07a"/><circle cx="12.935" cy="12.935" r="12.935" transform="translate(0.387 16.081)" fill="#61e07b"/><circle cx="12.935" cy="12.935" r="12.935" transform="translate(0.32 15.799)" fill="#60e07c"/><circle cx="12.935" cy="12.935" r="12.935" transform="translate(0.259 15.516)" fill="#5fe07d"/><circle cx="12.935" cy="12.935" r="12.935" transform="translate(0.205 15.232)" fill="#5ee07e"/><circle cx="12.935" cy="12.935" r="12.935" transform="translate(0.157 14.947)" fill="#5de07f"/><circle cx="12.935" cy="12.935" r="12.935" transform="translate(0.115 14.661)" fill="#5ce080"/><circle cx="12.935" cy="12.935" r="12.935" transform="translate(0.08 14.374)" fill="#5be081"/><circle cx="12.935" cy="12.935" r="12.935" transform="translate(0.051 14.087)" fill="#5ae082"/><circle cx="12.935" cy="12.935" r="12.935" transform="translate(0.029 13.799)" fill="#59e083"/><circle cx="12.935" cy="12.935" r="12.935" transform="translate(0.013 13.511)" fill="#58e084"/><circle cx="12.935" cy="12.935" r="12.935" transform="translate(0.003 13.223)" fill="#57e085"/><circle cx="12.935" cy="12.935" r="12.935" transform="translate(0 12.934)" fill="#56e086"/></g></g><path d="M4.564-19.636H.662L7.575,0h4.391l6.923-19.636H14.977L9.876-4.18h-.2ZM24.171.3a4.549,4.549,0,0,0,4.324-2.32h.115V0h3.337V-9.857c0-3.893-3.174-5.062-5.983-5.062-3.1,0-5.475,1.381-6.242,4.065l3.241.46a2.94,2.94,0,0,1,3.02-1.87c1.611,0,2.493.825,2.493,2.272v.058c0,1-1.045,1.045-3.643,1.323-2.857.307-5.59,1.16-5.59,4.478C19.242-1.237,21.361.3,24.171.3Zm.9-2.55c-1.448,0-2.483-.662-2.483-1.937,0-1.333,1.16-1.889,2.713-2.109a10.566,10.566,0,0,0,3.183-.719v1.735A3.136,3.136,0,0,1,25.072-2.253ZM39.079-19.636H35.608V0h3.471ZM49.328.288c3.433,0,5.791-1.678,6.4-4.238l-3.241-.364a3.072,3.072,0,0,1-3.116,1.9c-2.244,0-3.73-1.477-3.759-4H55.876V-7.479c0-5.168-3.107-7.44-6.731-7.44-4.219,0-6.971,3.1-6.971,7.642C42.175-2.656,44.888.288,49.328.288Zm-3.7-9.042a3.539,3.539,0,0,1,3.567-3.461,3.281,3.281,0,0,1,3.356,3.461Zm2.148-7.91h2.6l-2.138-4.382h-3.4ZM62.443-8.629a3.024,3.024,0,0,1,3.116-3.356c1.793,0,2.867,1.179,2.867,3.145V0H71.9V-9.377c.01-3.528-2-5.542-5.043-5.542a4.42,4.42,0,0,0-4.391,2.694H62.29v-2.5H58.972V0h3.471ZM82.021.288c3.7,0,6.06-2.2,6.309-5.321H85.012A2.873,2.873,0,0,1,82.05-2.541c-2.167,0-3.567-1.812-3.567-4.823,0-2.972,1.429-4.756,3.567-4.756a2.886,2.886,0,0,1,2.963,2.493H88.33C88.09-12.819,85.6-14.919,82-14.919c-4.315,0-7.038,3.116-7.038,7.613C74.964-2.848,77.62.288,82.021.288ZM91.349,0H94.82V-14.727H91.349Zm1.745-16.817a1.949,1.949,0,0,0,2-1.879,1.95,1.95,0,0,0-2-1.889A1.953,1.953,0,0,0,91.081-18.7,1.951,1.951,0,0,0,93.094-16.817ZM102.787.3a4.549,4.549,0,0,0,4.324-2.32h.115V0h3.337V-9.857c0-3.893-3.174-5.062-5.983-5.062-3.1,0-5.475,1.381-6.242,4.065l3.241.46a2.94,2.94,0,0,1,3.02-1.87c1.611,0,2.493.825,2.493,2.272v.058c0,1-1.045,1.045-3.643,1.323-2.857.307-5.59,1.16-5.59,4.478C97.858-1.237,99.977.3,102.787.3Zm.9-2.55c-1.448,0-2.483-.662-2.483-1.937,0-1.333,1.16-1.889,2.713-2.109a10.566,10.566,0,0,0,3.183-.719v1.735A3.136,3.136,0,0,1,103.688-2.253ZM12.608,11.762h3.423C15.964,8.444,13.136,6.1,8.955,6.1c-4.123,0-7.22,2.32-7.21,5.791,0,2.819,2,4.439,5.235,5.273l2.234.575c2.119.537,3.519,1.2,3.528,2.723-.01,1.678-1.6,2.8-3.922,2.8-2.224,0-3.95-1-4.094-3.059h-3.5c.144,3.9,3.049,6.1,7.623,6.1,4.708,0,7.44-2.349,7.45-5.81-.01-3.4-2.819-4.957-5.772-5.657l-1.841-.46c-1.611-.384-3.356-1.064-3.337-2.7.01-1.477,1.333-2.56,3.557-2.56C11.026,9.106,12.426,10.093,12.608,11.762ZM25.653,26.288c4.315,0,7.057-3.039,7.057-7.594s-2.742-7.613-7.057-7.613S18.6,14.13,18.6,18.694,21.339,26.288,25.653,26.288Zm.019-2.781c-2.387,0-3.557-2.129-3.557-4.823s1.17-4.852,3.557-4.852c2.349,0,3.519,2.157,3.519,4.852S28.022,23.507,25.673,23.507ZM47.2,15.165c-.479-2.493-2.474-4.085-5.925-4.085-3.548,0-5.964,1.745-5.954,4.468-.01,2.148,1.314,3.567,4.142,4.152l2.512.527c1.352.3,1.985.844,1.985,1.678,0,1.007-1.093,1.764-2.742,1.764-1.592,0-2.627-.69-2.924-2.013l-3.385.326c.431,2.7,2.7,4.305,6.319,4.305,3.682,0,6.28-1.908,6.29-4.7-.01-2.1-1.362-3.385-4.142-3.989l-2.512-.537c-1.5-.336-2.09-.853-2.081-1.707-.01-1,1.093-1.687,2.541-1.687a2.574,2.574,0,0,1,2.713,1.841Zm10.456-3.893H54.754V7.744H51.283v3.528h-2.09v2.685h2.09v8.188c-.019,2.771,1.994,4.132,4.6,4.056a6.976,6.976,0,0,0,2.042-.345l-.585-2.713a4.328,4.328,0,0,1-1.016.134c-.873,0-1.572-.307-1.572-1.707V13.957h2.905ZM66.85,26.288c3.433,0,5.791-1.678,6.4-4.238l-3.241-.364a3.072,3.072,0,0,1-3.116,1.9c-2.244,0-3.73-1.477-3.759-4H73.4V18.521c0-5.168-3.107-7.44-6.731-7.44-4.219,0-6.971,3.1-6.971,7.642C59.7,23.344,62.411,26.288,66.85,26.288Zm-3.7-9.042a3.539,3.539,0,0,1,3.567-3.461,3.281,3.281,0,0,1,3.356,3.461Zm16.573.125a3.024,3.024,0,0,1,3.116-3.356c1.793,0,2.867,1.179,2.867,3.145V26h3.471V16.623c.01-3.528-2-5.542-5.043-5.542a4.42,4.42,0,0,0-4.391,2.694h-.173v-2.5H76.252V26h3.471ZM92.633,26H96.1V11.273H92.633ZM94.378,9.183a1.949,1.949,0,0,0,2-1.879,2.012,2.012,0,0,0-4.017,0A1.951,1.951,0,0,0,94.378,9.183ZM99.743,26h3.413V23.68h.2a4.439,4.439,0,0,0,4.219,2.579c3.471,0,6.069-2.752,6.069-7.6,0-4.909-2.675-7.575-6.079-7.575a4.369,4.369,0,0,0-4.209,2.627h-.144V6.364H99.743Zm3.4-7.364c0-2.857,1.227-4.708,3.461-4.708,2.311,0,3.5,1.966,3.5,4.708,0,2.761-1.208,4.775-3.5,4.775C104.394,23.411,103.147,21.494,103.147,18.636ZM120,6.364h-3.471V26H120ZM130,26.288c3.433,0,5.791-1.678,6.4-4.238l-3.241-.364a3.072,3.072,0,0,1-3.116,1.9c-2.244,0-3.73-1.477-3.759-4h10.259V18.521c0-5.168-3.107-7.44-6.731-7.44-4.219,0-6.971,3.1-6.971,7.642C122.852,23.344,125.565,26.288,130,26.288Zm-3.7-9.042a3.539,3.539,0,0,1,3.567-3.461,3.281,3.281,0,0,1,3.356,3.461Z" transform="translate(3065.597 1218.098)"/></g></g></svg>