<svg xmlns="http://www.w3.org/2000/svg" viewBox="0 0 53.32 50.4"><defs><style>.cls-1,.cls-2{fill:none;stroke:#155a7d;stroke-linecap:round;stroke-width:2px}.cls-2{stroke-linejoin:round}</style></defs><title>stormy</title><g id="Capa_2" data-name="Capa 2"><g id="Capa_1-2" data-name="Capa 1"><path class="cls-1" d="M28.77 1.53A13.57 13.57 0 0 0 25 1a13.74 13.74 0 0 0-13 9.7 8.78 8.78 0 0 0-1.93-.21A9.15 9.15 0 0 0 1 19.74 9.16 9.16 0 0 0 10.06 29h33.21a9.16 9.16 0 0 0 9-9.26 9.3 9.3 0 0 0-2.55-6.43m-21-11.78A13.91 13.91 0 0 1 38.4 12a8.83 8.83 0 0 1 4.87-1.46 8.93 8.93 0 0 1 6.5 2.82"/><path class="cls-2" d="M12.43 49.4l8.2-8.19h-7.52l8.29-8.3m5.77 12.83l8.19-8.2h-7.52l8.29-8.29"/></g></g></svg>