<svg id="Set_Iconos" data-name="Set Iconos" xmlns="http://www.w3.org/2000/svg" viewBox="0 0 70 70"><path fill="#fff" d="M35,25A10,10,0,1,0,45,35,10,10,0,0,0,35,25Zm0,18a8,8,0,1,1,8-8A8,8,0,0,1,35,43Z"/><path fill="#fff" d="M60,34H50a1,1,0,0,0,0,2H60a1,1,0,0,0,0-2Z"/><path fill="#fff" d="M21,35a1,1,0,0,0-1-1H10a1,1,0,0,0,0,2H20A1,1,0,0,0,21,35Z"/><path fill="#fff" d="M35,21a1,1,0,0,0,1-1V10a1,1,0,0,0-2,0V20A1,1,0,0,0,35,21Z"/><path fill="#fff" d="M35,49a1,1,0,0,0-1,1V60a1,1,0,0,0,2,0V50A1,1,0,0,0,35,49Z"/><path fill="#fff" d="M45.61,25.39a1,1,0,0,0,.7-.29L53.38,18a1,1,0,0,0-.7-1.71,1,1,0,0,0-.71.3L44.9,23.69a1,1,0,0,0,0,1.41A1,1,0,0,0,45.61,25.39Z"/><path fill="#fff" d="M24.39,44.61a1,1,0,0,0-.7.29L16.62,52a1,1,0,0,0,.7,1.71,1,1,0,0,0,.71-.3l7.07-7.07a1,1,0,0,0,0-1.41A1,1,0,0,0,24.39,44.61Z"/><path fill="#fff" d="M23.69,25.1a1,1,0,0,0,1.41,0,1,1,0,0,0,0-1.41L18,16.62a1,1,0,0,0-.71-.3,1,1,0,0,0-.7,1.71Z"/><path fill="#fff" d="M46.31,44.9a1,1,0,0,0-1.41,0,1,1,0,0,0,0,1.41L52,53.38a1,1,0,0,0,.71.3,1,1,0,0,0,.7-1.71Z"/></svg>