<?xml version="1.0" encoding="utf-8"?>
<!-- Generator: Adobe Illustrator 25.2.3, SVG Export Plug-In . SVG Version: 6.00 Build 0)  -->
<svg version="1.1" id="Set_Iconos" xmlns="http://www.w3.org/2000/svg" xmlns:xlink="http://www.w3.org/1999/xlink" x="0px" y="0px"
	 viewBox="0 0 70 70" style="enable-background:new 0 0 70 70;" xml:space="preserve">
<g>
	<path d="M35,24c-6.1,0-11,4.9-11,11s4.9,11,11,11s11-4.9,11-11S41.1,24,35,24z M35,42c-3.9,0-7-3.1-7-7s3.1-7,7-7s7,3.1,7,7
		S38.9,42,35,42z"/>
	<path d="M61,33H51c-1.1,0-2,0.9-2,2s0.9,2,2,2h10c1.1,0,2-0.9,2-2S62.1,33,61,33z"/>
	<path d="M21,35c0-1.1-0.9-2-2-2H9c-1.1,0-2,0.9-2,2s0.9,2,2,2h10C20.1,37,21,36.1,21,35z"/>
	<path d="M35,21c1.1,0,2-0.9,2-2V9c0-1.1-0.9-2-2-2c-1.1,0-2,0.9-2,2v10C33,20.1,33.9,21,35,21z"/>
	<path d="M35,49c-1.1,0-2,0.9-2,2v10c0,1.1,0.9,2,2,2c1.1,0,2-0.9,2-2V51C37,49.9,36.1,49,35,49z"/>
	<path d="M46.6,25.4c0.5,0,1-0.2,1.4-0.6l7.1-7.1c0.4-0.4,0.6-0.9,0.6-1.4s-0.2-1-0.6-1.4c-0.4-0.4-0.9-0.6-1.4-0.6
		c-0.5,0-1,0.2-1.4,0.6L45.2,22c-0.8,0.8-0.8,2,0,2.8C45.6,25.2,46.1,25.4,46.6,25.4z"/>
	<path d="M23.4,44.6c-0.5,0-1,0.2-1.4,0.6l-7.1,7.1c-0.8,0.8-0.8,2,0,2.8c0.4,0.4,0.9,0.6,1.4,0.6c0.5,0,1-0.2,1.4-0.6l7.1-7.1
		c0.8-0.8,0.8-2,0-2.8C24.4,44.8,23.9,44.6,23.4,44.6z"/>
	<path d="M22,24.8c0.4,0.4,0.9,0.6,1.4,0.6c0.5,0,1-0.2,1.4-0.6c0.8-0.8,0.8-2,0-2.8l-7.1-7.1c-0.4-0.4-0.9-0.6-1.4-0.6
		c-0.5,0-1,0.2-1.4,0.6c-0.8,0.8-0.8,2,0,2.8L22,24.8z"/>
	<path d="M48,45.2c-0.4-0.4-0.9-0.6-1.4-0.6s-1,0.2-1.4,0.6c-0.8,0.8-0.8,2,0,2.8l7.1,7.1c0.4,0.4,0.9,0.6,1.4,0.6
		c0.5,0,1-0.2,1.4-0.6c0.4-0.4,0.6-0.9,0.6-1.4s-0.2-1-0.6-1.4L48,45.2z"/>
</g>
</svg>
