<?xml version="1.0" encoding="UTF-8"?>
<svg width="56px" height="56px" viewBox="0 0 56 56" version="1.1" xmlns="http://www.w3.org/2000/svg" xmlns:xlink="http://www.w3.org/1999/xlink">
    <title>01d</title>
    <g id="Page-1" stroke="none" stroke-width="1" fill="none" fill-rule="evenodd">
        <g id="01d" fill="#FFFFFF" fill-rule="nonzero">
            <path d="M28,17 C21.9,17 17,21.9 17,28 C17,34.1 21.9,39 28,39 C34.1,39 39,34.1 39,28 C39,21.9 34.1,17 28,17 Z M28,35 C24.1,35 21,31.9 21,28 C21,24.1 24.1,21 28,21 C31.9,21 35,24.1 35,28 C35,31.9 31.9,35 28,35 Z" id="Shape"></path>
            <path d="M54,26 L44,26 C42.9,26 42,26.9 42,28 C42,29.1 42.9,30 44,30 L54,30 C55.1,30 56,29.1 56,28 C56,26.9 55.1,26 54,26 Z" id="Path"></path>
            <path d="M14,28 C14,26.9 13.1,26 12,26 L2,26 C0.9,26 0,26.9 0,28 C0,29.1 0.9,30 2,30 L12,30 C13.1,30 14,29.1 14,28 Z" id="Path"></path>
            <path d="M28,14 C29.1,14 30,13.1 30,12 L30,2 C30,0.9 29.1,0 28,0 C26.9,0 26,0.9 26,2 L26,12 C26,13.1 26.9,14 28,14 Z" id="Path"></path>
            <path d="M28,42 C26.9,42 26,42.9 26,44 L26,54 C26,55.1 26.9,56 28,56 C29.1,56 30,55.1 30,54 L30,44 C30,42.9 29.1,42 28,42 Z" id="Path"></path>
            <path d="M39.6,18.4 C40.1,18.4 40.6,18.2 41,17.8 L48.1,10.7 C48.5,10.3 48.7,9.8 48.7,9.3 C48.7,8.8 48.5,8.3 48.1,7.9 C47.7,7.5 47.2,7.3 46.7,7.3 C46.2,7.3 45.7,7.5 45.3,7.9 L38.2,15 C37.4,15.8 37.4,17 38.2,17.8 C38.6,18.2 39.1,18.4 39.6,18.4 Z" id="Path"></path>
            <path d="M16.4,37.6 C15.9,37.6 15.4,37.8 15,38.2 L7.9,45.3 C7.1,46.1 7.1,47.3 7.9,48.1 C8.3,48.5 8.8,48.7 9.3,48.7 C9.8,48.7 10.3,48.5 10.7,48.1 L17.8,41 C18.6,40.2 18.6,39 17.8,38.2 C17.4,37.8 16.9,37.6 16.4,37.6 Z" id="Path"></path>
            <path d="M15,17.8 C15.4,18.2 15.9,18.4 16.4,18.4 C16.9,18.4 17.4,18.2 17.8,17.8 C18.6,17 18.6,15.8 17.8,15 L10.7,7.9 C10.3,7.5 9.8,7.3 9.3,7.3 C8.8,7.3 8.3,7.5 7.9,7.9 C7.1,8.7 7.1,9.9 7.9,10.7 L15,17.8 Z" id="Path"></path>
            <path d="M41,38.2 C40.6,37.8 40.1,37.6 39.6,37.6 C39.1,37.6 38.6,37.8 38.2,38.2 C37.4,39 37.4,40.2 38.2,41 L45.3,48.1 C45.7,48.5 46.2,48.7 46.7,48.7 C47.2,48.7 47.7,48.5 48.1,48.1 C48.5,47.7 48.7,47.2 48.7,46.7 C48.7,46.2 48.5,45.7 48.1,45.3 L41,38.2 Z" id="Path"></path>
        </g>
    </g>
</svg>