<?xml version="1.0" encoding="utf-8"?>
<!-- Generator: Adobe Illustrator 25.2.3, SVG Export Plug-In . SVG Version: 6.00 Build 0)  -->
<svg version="1.1" id="Set_Iconos" xmlns="http://www.w3.org/2000/svg" xmlns:xlink="http://www.w3.org/1999/xlink" x="0px" y="0px"
	 viewBox="0 0 70 70" style="enable-background:new 0 0 70 70;" xml:space="preserve">
<path d="M57.1,39.4c-0.4-0.6-1-0.9-1.7-0.9c-0.3,0-0.6,0.1-0.8,0.2c-0.1,0-0.2,0.1-0.3,0.1c-2,0.8-4.2,1.2-6.4,1.2
	c-4.5,0-8.8-1.8-12-5c-4.8-4.8-6.3-12.1-3.7-18.4c0-0.1,0.1-0.2,0.1-0.3c0.3-0.6,0.2-1.3-0.1-1.9c-0.4-0.6-1-0.9-1.7-0.9
	c-0.3,0-0.5,0.1-0.8,0.2c-0.1,0.1-0.3,0.1-0.4,0.2c-4.1,1.9-7.4,4.9-9.6,8.9C15.6,30,16.2,39,21.2,45.6c4,5.4,10.2,8.4,16.8,8.4
	c5.6,0,10.9-2.2,14.8-6.2c1.8-1.8,3.2-3.8,4.2-6.2c0.1-0.1,0.1-0.3,0.2-0.4C57.5,40.7,57.5,40,57.1,39.4z M50,45
	c-3.2,3.2-7.5,5-12,5c-4.5,0-8.8-1.8-12-5c-6.6-6.6-6.6-17.4,0-24c0.4-0.4,0.8-0.7,1.2-1.1c-1,6.6,1.1,13.3,5.9,18
	c4,4,9.2,6.1,14.8,6.1c1.1,0,2.1-0.1,3.2-0.2C50.7,44.3,50.4,44.7,50,45z"/>
</svg>
