<?xml version="1.0" encoding="UTF-8"?>
<svg width="42px" height="41px" viewBox="0 0 42 41" version="1.1" xmlns="http://www.w3.org/2000/svg" xmlns:xlink="http://www.w3.org/1999/xlink">
    <title>01n</title>
    <g id="Page-1" stroke="none" stroke-width="1" fill="none" fill-rule="evenodd">
        <g id="01n" fill="#FFFFFF" fill-rule="nonzero">
            <path d="M41.1,26.4 C40.7,25.8 40.1,25.5 39.4,25.5 C39.1,25.5 38.8,25.6 38.6,25.7 C38.5,25.7 38.4,25.8 38.3,25.8 C36.3,26.6 34.1,27 31.9,27 C27.4,27 23.1,25.2 19.9,22 C15.1,17.2 13.6,9.9 16.2,3.6 C16.2,3.5 16.3,3.4 16.3,3.3 C16.6,2.7 16.5,2 16.2,1.4 C15.8,0.8 15.2,0.5 14.5,0.5 C14.2,0.5 14,0.6 13.7,0.7 C13.6,0.8 13.4,0.8 13.3,0.9 C9.2,2.8 5.9,5.8 3.7,9.8 C-0.4,17 0.2,26 5.2,32.6 C9.2,38 15.4,41 22,41 C27.6,41 32.9,38.8 36.8,34.8 C38.6,33 40,31 41,28.6 C41.1,28.5 41.1,28.3 41.2,28.2 C41.5,27.7 41.5,27 41.1,26.4 Z M34,32 C30.8,35.2 26.5,37 22,37 C17.5,37 13.2,35.2 10,32 C3.4,25.4 3.4,14.6 10,8 C10.4,7.6 10.8,7.3 11.2,6.9 C10.2,13.5 12.3,20.2 17.1,24.9 C21.1,28.9 26.3,31 31.9,31 C33,31 34,30.9 35.1,30.8 C34.7,31.3 34.4,31.7 34,32 Z" id="Shape"></path>
        </g>
    </g>
</svg>