<?xml version="1.0" encoding="utf-8"?>
<!-- Generator: Adobe Illustrator 25.2.3, SVG Export Plug-In . SVG Version: 6.00 Build 0)  -->
<svg version="1.1" id="Set_Iconos" xmlns="http://www.w3.org/2000/svg" xmlns:xlink="http://www.w3.org/1999/xlink" x="0px" y="0px"
	 viewBox="0 0 70 70" style="enable-background:new 0 0 70 70;" xml:space="preserve">
<g>
	<path d="M64,21h-6c-1.1,0-2,0.9-2,2s0.9,2,2,2h6c1.1,0,2-0.9,2-2S65.1,21,64,21z"/>
	<path d="M59.8,8.2c0-0.5-0.2-1-0.6-1.4c-0.4-0.4-0.9-0.6-1.4-0.6s-1,0.2-1.4,0.6L52.2,11c-0.8,0.8-0.8,2,0,2.8
		c0.4,0.4,0.9,0.6,1.4,0.6s1-0.2,1.4-0.6l4.2-4.2C59.6,9.2,59.8,8.7,59.8,8.2z"/>
	<path d="M42,10c1.1,0,2-0.9,2-2V2c0-1.1-0.9-2-2-2c-1.1,0-2,0.9-2,2v6C40,9.1,40.9,10,42,10z"/>
	<path d="M29,13.8c0.4,0.4,0.9,0.6,1.4,0.6c0.5,0,1-0.2,1.4-0.6c0.4-0.4,0.6-0.9,0.6-1.4s-0.2-1-0.6-1.4l-4.2-4.2
		c-0.4-0.4-0.9-0.6-1.4-0.6s-1,0.2-1.4,0.6c-0.4,0.4-0.6,0.9-0.6,1.4c0,0.5,0.2,1,0.6,1.4L29,13.8z"/>
	<path d="M36.9,19.2c1.3-1.4,3.2-2.2,5.1-2.2c3.9,0,7,3.1,7,7c0,1.7-0.6,3.3-1.8,4.6l-0.1,0.1c0.6,1.2,1.1,2.6,1.4,3.9
		c0.1,0,0.1,0,0.2,0.1l0.6-0.5c2.4-2.1,3.7-5.1,3.7-8.2c0-6.1-4.9-11-11-11c-3.5,0-6.8,1.7-8.9,4.5l-0.5,0.7
		C34.1,18.4,35.5,18.8,36.9,19.2L36.9,19.2z"/>
	<path d="M45.9,35.1C45,27.1,38.2,21,30,21c-8.2,0-15,6.1-15.9,14.1C8.8,36,5,40.6,5,46c0,6.1,4.9,11,11,11h28c6.1,0,11-4.9,11-11
		C55,40.6,51.2,36,45.9,35.1z M51,46.5c-0.3,3.6-3.5,6.5-7.3,6.5H16.3c-3.8,0-7-2.9-7.3-6.5c-0.1-2,0.5-3.8,1.9-5.3
		c1.3-1.4,3.2-2.2,5.1-2.2c2.1,0,4.1,1,5.4,2.6c0.4,0.5,0.9,0.7,1.5,0.7c0.4,0,0.8-0.1,1.1-0.3c0.5-0.3,0.8-0.8,0.9-1.4
		c0.1-0.6-0.1-1.1-0.4-1.6c-1.6-2-3.9-3.4-6.4-3.9C19,29.4,24,25,30,25c6.3,0,11.5,4.9,12,11.1c0,0.1,0,0.5,0,0.9
		c0,1.1,0.9,1.9,1.9,2c0.7,0,0.9,0,0.9,0C48.6,39.5,51.3,42.8,51,46.5z"/>
</g>
</svg>
