<svg id="Set_Iconos" data-name="Set Iconos" xmlns="http://www.w3.org/2000/svg" viewBox="0 0 70 70"><path d="M63,26H57a1,1,0,0,0,0,2h6a1,1,0,0,0,0-2Z"/><path d="M53.31,17.1l4.25-4.24a1,1,0,1,0-1.42-1.42L51.9,15.69a1,1,0,0,0,1.41,1.41Z"/><path d="M42,13a1,1,0,0,0,1-1V6a1,1,0,0,0-2,0v6A1,1,0,0,0,42,13Z"/><path d="M30.69,17.1a1,1,0,1,0,1.41-1.41l-4.24-4.25a1,1,0,1,0-1.42,1.42Z"/><path d="M42,19a8,8,0,0,1,6,13.28,16.21,16.21,0,0,1,.64,2.19,10,10,0,1,0-14.7-13.35,15.26,15.26,0,0,1,2.24.42A8,8,0,0,1,42,19Z"/><path d="M47,37a15,15,0,0,0-30,0,10,10,0,0,0,1,20H46a10,10,0,0,0,1-20Zm7,10.61A8.2,8.2,0,0,1,45.7,55H18.28A8.18,8.18,0,0,1,10,47.55,8,8,0,0,1,24.22,42a1,1,0,0,0,1.3.21h0a1,1,0,0,0,.25-1.47A10.13,10.13,0,0,0,19,37a13,13,0,0,1,26,.06c0,.14,0,.57,0,1a1,1,0,0,0,1,1c.41,0,.84,0,1,0A8,8,0,0,1,54,47.61Z"/></svg>