<svg id="Set_Iconos" data-name="Set Iconos" xmlns="http://www.w3.org/2000/svg" viewBox="0 0 70 70"><path fill="#fff" d="M62.4,25.55l-.33.14A13,13,0,0,1,45.26,8.89c0-.11.09-.22.14-.34A1,1,0,0,0,44.14,7.2l-.4.16a14.82,14.82,0,0,0-8.63,11.79,15.44,15.44,0,0,1,1.94.36,13,13,0,0,1,3.71-7.7,13.27,13.27,0,0,1,2-1.66,15,15,0,0,0,18,18,12.64,12.64,0,0,1-1.65,2,13,13,0,0,1-7.63,3.7,12,12,0,0,1,2.65,1.51,14.89,14.89,0,0,0,9.42-8.19l.17-.39A1,1,0,0,0,62.4,25.55Z"/><path fill="#fff" d="M48,35a15,15,0,0,0-30,0,10,10,0,0,0,1,20H47a10,10,0,0,0,1-20Zm7,10.61A8.2,8.2,0,0,1,46.7,53H19.28A8.18,8.18,0,0,1,11,45.55,8,8,0,0,1,25.22,40a1,1,0,0,0,1.3.21h0a1,1,0,0,0,.25-1.47A10.13,10.13,0,0,0,20,35a13,13,0,0,1,26,.06c0,.14,0,.57,0,1a1,1,0,0,0,1,1c.41,0,.84,0,1,0A8,8,0,0,1,55,45.61Z"/></svg>