<?xml version="1.0" encoding="utf-8"?>
<!-- Generator: Adobe Illustrator 25.2.3, SVG Export Plug-In . SVG Version: 6.00 Build 0)  -->
<svg version="1.1" id="Set_Iconos" xmlns="http://www.w3.org/2000/svg" xmlns:xlink="http://www.w3.org/1999/xlink" x="0px" y="0px"
	 viewBox="0 0 70 70" style="enable-background:new 0 0 70 70;" xml:space="preserve">
<path d="M53,34.2C52.3,25,44.8,18,35.5,18c-9.2,0-16.7,7-17.5,16.1c-5.7,0.7-10,5.6-10,11.4C8,51.8,13.2,57,19.5,57h31
	C56.8,57,62,51.8,62,45.5C62,40,58.2,35.3,53,34.2z M25.5,40.1c0.5,0,1-0.2,1.4-0.6c0.4-0.4,0.6-1,0.6-1.5c0-0.6-0.3-1.1-0.7-1.4
	c-1.4-1.2-3-2-4.7-2.4C22.7,27.3,28.4,22,35.5,22c7.3,0,13.2,5.7,13.5,13.1c0,0.1,0,0.5,0,1c0,1.1,0.9,1.9,1.9,2
	c0.4,0,0.5,0,0.8,0.1c3.8,0.6,6.6,4.2,6.2,8.1C57.6,50,54.2,53,50.2,53H19.8c-4.1,0-7.5-3.1-7.8-7c-0.1-2.1,0.6-4.1,2-5.6
	c1.4-1.5,3.4-2.4,5.5-2.4c1.7,0,3.4,0.6,4.7,1.7C24.6,40,25,40.1,25.5,40.1z"/>
</svg>
