<?xml version="1.0" encoding="UTF-8"?>
<svg width="54px" height="39px" viewBox="0 0 54 39" version="1.1" xmlns="http://www.w3.org/2000/svg" xmlns:xlink="http://www.w3.org/1999/xlink">
    <title>03d</title>
    <g id="Page-1" stroke="none" stroke-width="1" fill="none" fill-rule="evenodd">
        <g id="03d" fill="#FFFFFF" fill-rule="nonzero">
            <path d="M45,16.2 C44.3,7 36.8,0 27.5,0 C18.3,0 10.8,7 10,16.1 C4.3,16.8 0,21.7 0,27.5 C0,33.8 5.2,39 11.5,39 L42.5,39 C48.8,39 54,33.8 54,27.5 C54,22 50.2,17.3 45,16.2 Z M17.5,22.1 C18,22.1 18.5,21.9 18.9,21.5 C19.3,21.1 19.5,20.5 19.5,20 C19.5,19.4 19.2,18.9 18.8,18.6 C17.4,17.4 15.8,16.6 14.1,16.2 C14.7,9.3 20.4,4 27.5,4 C34.8,4 40.7,9.7 41,17.1 C41,17.2 41,17.6 41,18.1 C41,19.2 41.9,20 42.9,20.1 C43.3,20.1 43.4,20.1 43.7,20.2 C47.5,20.8 50.3,24.4 49.9,28.3 C49.6,32 46.2,35 42.2,35 L11.8,35 C7.7,35 4.3,31.9 4,28 C3.9,25.9 4.6,23.9 6,22.4 C7.4,20.9 9.4,20 11.5,20 C13.2,20 14.9,20.6 16.2,21.7 C16.6,22 17,22.1 17.5,22.1 Z" id="Shape"></path>
        </g>
    </g>
</svg>