<?xml version="1.0" encoding="UTF-8"?>
<svg width="62px" height="39px" viewBox="0 0 62 39" version="1.1" xmlns="http://www.w3.org/2000/svg" xmlns:xlink="http://www.w3.org/1999/xlink">
    <title>04n</title>
    <g id="Page-1" stroke="none" stroke-width="1" fill="none" fill-rule="evenodd">
        <g id="04n" fill="#FFFFFF" fill-rule="nonzero">
            <path d="M19.8,35 L11.8,35 C7.7,35 4.3,31.9 4,28 C3.9,25.9 4.6,23.9 6,22.4 C7.4,20.9 9.4,20 11.5,20 C13.2,20 14.9,20.6 16.2,21.7 C16.6,22 17,22.1 17.5,22.1 C18,22.1 18.5,21.9 18.9,21.5 C19.3,21.1 19.5,20.5 19.5,20 C19.5,19.4 19.2,18.9 18.8,18.6 C17.4,17.4 15.8,16.6 14.1,16.2 C14.7,9.3 20.4,4 27.5,4 C31,4 34.4,5.4 36.9,7.9 C37.3,7.8 37.6,7.7 38,7.6 C38.8,7.4 39.6,7.3 40.4,7.2 C40.8,7.2 41.2,7.1 41.6,7.1 C38.3,2.7 33.2,0.1 27.6,0.1 C18.4,0.1 10.9,7.1 10.1,16.2 C4.3,16.8 0,21.6 0,27.5 C0,33.8 5.2,39 11.5,39 L21.7,39 L22.8,39 C21.6,37.9 20.6,36.5 19.9,35 L19.8,35 Z" id="Path"></path>
            <path d="M55,22.1 C54.5,15.4 49,10.1 42.1,10 C42.1,10 42,10 42,10 C41.9,10 41.9,10 41.8,10 L41.7,10 C41.3,10 40.9,10 40.5,10.1 C34.3,10.8 29.4,15.9 29,22.1 C25,22.8 22,26.3 22,30.5 C22,35.2 25.8,39 30.5,39 L53.5,39 C58.2,39 62,35.2 62,30.5 C62,26.3 59,22.8 55,22.1 Z M34.3,27.3 C34.8,27.3 35.3,27.1 35.7,26.7 C36.1,26.3 36.3,25.7 36.3,25.1 C36.3,24.5 36,24 35.6,23.7 C34.8,23 33.9,22.6 33,22.3 C33.1,20.2 34,18.2 35.5,16.7 C37.2,15 39.5,14 42,14 C42.2,14 42.4,14 42.6,14 C47.2,14.3 51,18.6 51,23.3 L51,23.8 C51,25 51.9,25.9 53,25.9 C53.4,25.9 53.7,25.9 53.8,25.9 C55,26 56.2,26.6 57,27.5 C57.8,28.5 58.2,29.7 58,30.9 C57.7,33.1 55.7,34.9 53.3,34.9 L30.7,34.9 C28.3,34.9 26.2,33.1 26,30.9 C25.9,29.6 26.3,28.4 27.1,27.4 C28,26.5 29.2,25.9 30.4,25.9 C31.4,25.9 32.3,26.2 33,26.8 C33.5,27.1 33.9,27.3 34.3,27.3 Z" id="Shape"></path>
        </g>
    </g>
</svg>