<?xml version="1.0" encoding="UTF-8"?>
<svg width="54px" height="28px" viewBox="0 0 54 28" version="1.1" xmlns="http://www.w3.org/2000/svg" xmlns:xlink="http://www.w3.org/1999/xlink">
    <title>050n</title>
    <g id="Page-1" stroke="none" stroke-width="1" fill="none" fill-rule="evenodd">
        <g id="050n" fill="#FFFFFF" fill-rule="nonzero">
            <path d="M4,4 L18,4 C19.1,4 20,3.1 20,2 C20,0.9 19.1,0 18,0 L4,0 C2.9,0 2,0.9 2,2 C2,3.1 2.9,4 4,4 Z" id="Path"></path>
            <path d="M24,4 L50,4 C51.1,4 52,3.1 52,2 C52,0.9 51.1,0 50,0 L24,0 C22.9,0 22,0.9 22,2 C22,3.1 22.9,4 24,4 Z" id="Path"></path>
            <path d="M6,16 C4.9,16 4,16.9 4,18 C4,19.1 4.9,20 6,20 L20,20 C21.1,20 22,19.1 22,18 C22,16.9 21.1,16 20,16 L6,16 Z" id="Path"></path>
            <path d="M52,16 L26,16 C24.9,16 24,16.9 24,18 C24,19.1 24.9,20 26,20 L52,20 C53.1,20 54,19.1 54,18 C54,16.9 53.1,16 52,16 Z" id="Path"></path>
            <path d="M34,8 C32.9,8 32,8.9 32,10 C32,11.1 32.9,12 34,12 L48,12 C49.1,12 50,11.1 50,10 C50,8.9 49.1,8 48,8 L34,8 Z" id="Path"></path>
            <path d="M28,12 C29.1,12 30,11.1 30,10 C30,8.9 29.1,8 28,8 L2,8 C0.9,8 0,8.9 0,10 C0,11.1 0.9,12 2,12 L28,12 Z" id="Path"></path>
            <path d="M50,24 L36,24 C34.9,24 34,24.9 34,26 C34,27.1 34.9,28 36,28 L50,28 C51.1,28 52,27.1 52,26 C52,24.9 51.1,24 50,24 Z" id="Path"></path>
            <path d="M30,24 L4,24 C2.9,24 2,24.9 2,26 C2,27.1 2.9,28 4,28 L30,28 C31.1,28 32,27.1 32,26 C32,24.9 31.1,24 30,24 Z" id="Path"></path>
        </g>
    </g>
</svg>