<?xml version="1.0" encoding="utf-8"?>
<!-- Generator: Adobe Illustrator 25.2.3, SVG Export Plug-In . SVG Version: 6.00 Build 0)  -->
<svg version="1.1" id="Set_Iconos" xmlns="http://www.w3.org/2000/svg" xmlns:xlink="http://www.w3.org/1999/xlink" x="0px" y="0px"
	 viewBox="0 0 70 70" style="enable-background:new 0 0 70 70;" xml:space="preserve">
<g>
	<path d="M12,26h14c1.1,0,2-0.9,2-2s-0.9-2-2-2H12c-1.1,0-2,0.9-2,2S10.9,26,12,26z"/>
	<path d="M32,26h26c1.1,0,2-0.9,2-2s-0.9-2-2-2H32c-1.1,0-2,0.9-2,2S30.9,26,32,26z"/>
	<path d="M14,38c-1.1,0-2,0.9-2,2s0.9,2,2,2h14c1.1,0,2-0.9,2-2s-0.9-2-2-2H14z"/>
	<path d="M60,38H34c-1.1,0-2,0.9-2,2s0.9,2,2,2h26c1.1,0,2-0.9,2-2S61.1,38,60,38z"/>
	<path d="M42,30c-1.1,0-2,0.9-2,2s0.9,2,2,2h14c1.1,0,2-0.9,2-2s-0.9-2-2-2H42z"/>
	<path d="M36,34c1.1,0,2-0.9,2-2s-0.9-2-2-2H10c-1.1,0-2,0.9-2,2s0.9,2,2,2H36z"/>
	<path d="M58,46H44c-1.1,0-2,0.9-2,2s0.9,2,2,2h14c1.1,0,2-0.9,2-2S59.1,46,58,46z"/>
	<path d="M38,46H12c-1.1,0-2,0.9-2,2s0.9,2,2,2h26c1.1,0,2-0.9,2-2S39.1,46,38,46z"/>
</g>
</svg>
