<svg id="Set_Iconos" data-name="Set Iconos" xmlns="http://www.w3.org/2000/svg" viewBox="0 0 70 70"><path d="M26.76,51h-11A8.7,8.7,0,0,1,7,43.08,8.5,8.5,0,0,1,20.85,35.9a1,1,0,0,0,1.32-.07h0a1,1,0,0,0-.07-1.48A10.48,10.48,0,0,0,17,32a14.49,14.49,0,0,1,26.4-7.76A14.33,14.33,0,0,1,45.69,24,16.53,16.53,0,0,0,15,32a10.51,10.51,0,0,0,.5,21H28.68A9.59,9.59,0,0,1,26.76,51Z"/><path d="M58,38a12,12,0,0,0-24,0,7.51,7.51,0,0,0,.5,15h23A7.51,7.51,0,0,0,58,38Zm-.72,13H34.74a5.66,5.66,0,0,1-5.71-5,5.51,5.51,0,0,1,5.47-6,5.45,5.45,0,0,1,3.23,1A1,1,0,0,0,39,41h0A1,1,0,0,0,39,39.46,7.06,7.06,0,0,0,36,38,9.89,9.89,0,0,1,46.66,28c5.15.34,9.34,5.15,9.34,10.31v.55A1,1,0,0,0,57,40h.83A5.49,5.49,0,0,1,63,46.16,5.66,5.66,0,0,1,57.28,51Z"/><path d="M24.71,55.29h0a1,1,0,0,0-1.41,0l-6,6a1,1,0,0,0,0,1.41h0a1,1,0,0,0,1.41,0l6-6A1,1,0,0,0,24.71,55.29Z"/><path d="M32.71,55.29h0a1,1,0,0,0-1.41,0l-6,6a1,1,0,0,0,0,1.41h0a1,1,0,0,0,1.41,0l6-6A1,1,0,0,0,32.71,55.29Z"/><path d="M40.71,55.29h0a1,1,0,0,0-1.41,0l-6,6a1,1,0,0,0,0,1.41h0a1,1,0,0,0,1.41,0l6-6A1,1,0,0,0,40.71,55.29Z"/><path d="M48.71,55.29a1,1,0,0,0-1.41,0l-6,6a1,1,0,0,0,0,1.41h0a1,1,0,0,0,1.41,0l6-6a1,1,0,0,0,0-1.41Z"/></svg>