<?xml version="1.0" encoding="utf-8"?>
<!-- Generator: Adobe Illustrator 25.2.3, SVG Export Plug-In . SVG Version: 6.00 Build 0)  -->
<svg version="1.1" id="Set_Iconos" xmlns="http://www.w3.org/2000/svg" xmlns:xlink="http://www.w3.org/1999/xlink" x="0px" y="0px"
	 viewBox="0 0 70 70" style="enable-background:new 0 0 70 70;" xml:space="preserve">
<g>
	<path d="M19.4,60.6C19,60.2,18.5,60,18,60s-1,0.2-1.4,0.6l-6,6C10.2,67,10,67.5,10,68s0.2,1,0.6,1.4C11,69.8,11.5,70,12,70
		c0.5,0,1-0.2,1.4-0.6l6-6C20.2,62.6,20.2,61.4,19.4,60.6z"/>
	<path d="M29.4,60.6C29,60.2,28.5,60,28,60s-1,0.2-1.4,0.6l-6,6C20.2,67,20,67.5,20,68s0.2,1,0.6,1.4C21,69.8,21.5,70,22,70
		c0.5,0,1-0.2,1.4-0.6l6-6C30.2,62.6,30.2,61.4,29.4,60.6z"/>
	<path d="M39.4,60.6C39,60.2,38.5,60,38,60s-1,0.2-1.4,0.6l-6,6C30.2,67,30,67.5,30,68s0.2,1,0.6,1.4C31,69.8,31.5,70,32,70
		c0.5,0,1-0.2,1.4-0.6l6-6C40.2,62.6,40.2,61.4,39.4,60.6z"/>
	<path d="M49.4,60.6C49,60.2,48.5,60,48,60s-1,0.2-1.4,0.6l-6,6C40.2,67,40,67.5,40,68s0.2,1,0.6,1.4C41,69.8,41.5,70,42,70
		c0.5,0,1-0.2,1.4-0.6l6-6C50.2,62.6,50.2,61.4,49.4,60.6z"/>
</g>
<g>
	<g>
		<path d="M23.8,53h-8c-4.1,0-7.5-3.1-7.8-7c-0.1-2.1,0.6-4.1,2-5.6c1.4-1.5,3.4-2.4,5.5-2.4c1.7,0,3.4,0.6,4.7,1.7
			c0.4,0.3,0.8,0.4,1.3,0.4c0.5,0,1-0.2,1.4-0.6c0.4-0.4,0.6-1,0.6-1.5c0-0.6-0.3-1.1-0.7-1.4c-1.4-1.2-3-2-4.7-2.4
			C18.7,27.3,24.4,22,31.5,22c3.5,0,6.9,1.4,9.4,3.9c0.4-0.1,0.7-0.2,1.1-0.3c0.8-0.2,1.6-0.3,2.4-0.4c0.4,0,0.8-0.1,1.2-0.1
			c-3.3-4.4-8.4-7-14-7c-9.2,0-16.7,7-17.5,16.1C8.3,34.8,4,39.6,4,45.5C4,51.8,9.2,57,15.5,57h10.2h1.1c-1.2-1.1-2.2-2.5-2.9-4
			H23.8z"/>
		<path d="M59,40.1c-0.5-6.7-6-12-12.9-12.1c0,0-0.1,0-0.1,0c-0.1,0-0.1,0-0.2,0l-0.1,0c-0.4,0-0.8,0-1.2,0.1
			c-6.2,0.7-11.1,5.8-11.5,12c-4,0.7-7,4.2-7,8.4c0,4.7,3.8,8.5,8.5,8.5h23c4.7,0,8.5-3.8,8.5-8.5C66,44.3,63,40.8,59,40.1z
			 M38.3,45.3c0.5,0,1-0.2,1.4-0.6c0.4-0.4,0.6-1,0.6-1.6c0-0.6-0.3-1.1-0.7-1.4c-0.8-0.7-1.7-1.1-2.6-1.4c0.1-2.1,1-4.1,2.5-5.6
			c1.7-1.7,4-2.7,6.5-2.7c0.2,0,0.4,0,0.6,0c4.6,0.3,8.4,4.6,8.4,9.3v0.5c0,1.2,0.9,2.1,2,2.1c0.4,0,0.7,0,0.8,0
			c1.2,0.1,2.4,0.7,3.2,1.6c0.8,1,1.2,2.2,1,3.4c-0.3,2.2-2.3,4-4.7,4H34.7c-2.4,0-4.5-1.8-4.7-4c-0.1-1.3,0.3-2.5,1.1-3.5
			c0.9-0.9,2.1-1.5,3.3-1.5c1,0,1.9,0.3,2.6,0.9C37.5,45.1,37.9,45.3,38.3,45.3z"/>
	</g>
</g>
</svg>
