<?xml version="1.0" encoding="UTF-8"?>
<svg width="61px" height="70px" viewBox="0 0 61 70" version="1.1" xmlns="http://www.w3.org/2000/svg" xmlns:xlink="http://www.w3.org/1999/xlink">
    <title>10d</title>
    <g id="Page-1" stroke="none" stroke-width="1" fill="none" fill-rule="evenodd">
        <g id="10d" fill="#FFFFFF" fill-rule="nonzero">
            <g id="Group" transform="translate(5.000000, 60.000000)">
                <path d="M9.4,0.6 C9,0.2 8.5,0 8,0 C7.5,0 7,0.2 6.6,0.6 L0.6,6.6 C0.2,7 0,7.5 0,8 C0,8.5 0.2,9 0.6,9.4 C1,9.8 1.5,10 2,10 C2.5,10 3,9.8 3.4,9.4 L9.4,3.4 C10.2,2.6 10.2,1.4 9.4,0.6 Z" id="Path"></path>
                <path d="M19.4,0.6 C19,0.2 18.5,0 18,0 C17.5,0 17,0.2 16.6,0.6 L10.6,6.6 C10.2,7 10,7.5 10,8 C10,8.5 10.2,9 10.6,9.4 C11,9.8 11.5,10 12,10 C12.5,10 13,9.8 13.4,9.4 L19.4,3.4 C20.2,2.6 20.2,1.4 19.4,0.6 Z" id="Path"></path>
                <path d="M29.4,0.6 C29,0.2 28.5,0 28,0 C27.5,0 27,0.2 26.6,0.6 L20.6,6.6 C20.2,7 20,7.5 20,8 C20,8.5 20.2,9 20.6,9.4 C21,9.8 21.5,10 22,10 C22.5,10 23,9.8 23.4,9.4 L29.4,3.4 C30.2,2.6 30.2,1.4 29.4,0.6 Z" id="Path"></path>
            </g>
            <g id="Group">
                <path d="M59,21 L53,21 C51.9,21 51,21.9 51,23 C51,24.1 51.9,25 53,25 L59,25 C60.1,25 61,24.1 61,23 C61,21.9 60.1,21 59,21 Z" id="Path"></path>
                <path d="M54.8,8.2 C54.8,7.7 54.6,7.2 54.2,6.8 C53.8,6.4 53.3,6.2 52.8,6.2 C52.3,6.2 51.8,6.4 51.4,6.8 L47.2,11 C46.4,11.8 46.4,13 47.2,13.8 C47.6,14.2 48.1,14.4 48.6,14.4 C49.1,14.4 49.6,14.2 50,13.8 L54.2,9.6 C54.6,9.2 54.8,8.7 54.8,8.2 Z" id="Path"></path>
                <path d="M37,10 C38.1,10 39,9.1 39,8 L39,2 C39,0.9 38.1,0 37,0 C35.9,0 35,0.9 35,2 L35,8 C35,9.1 35.9,10 37,10 Z" id="Path"></path>
                <path d="M24,13.8 C24.4,14.2 24.9,14.4 25.4,14.4 C25.9,14.4 26.4,14.2 26.8,13.8 C27.2,13.4 27.4,12.9 27.4,12.4 C27.4,11.9 27.2,11.4 26.8,11 L22.6,6.8 C22.2,6.4 21.7,6.2 21.2,6.2 C20.7,6.2 20.2,6.4 19.8,6.8 C19.4,7.2 19.2,7.7 19.2,8.2 C19.2,8.7 19.4,9.2 19.8,9.6 L24,13.8 Z" id="Path"></path>
                <path d="M31.9,19.2 C33.2,17.8 35.1,17 37,17 C40.9,17 44,20.1 44,24 C44,25.7 43.4,27.3 42.2,28.6 L42.1,28.7 C42.7,29.9 43.2,31.3 43.5,32.6 C43.6,32.6 43.6,32.6 43.7,32.7 L44.3,32.2 C46.7,30.1 48,27.1 48,24 C48,17.9 43.1,13 37,13 C33.5,13 30.2,14.7 28.1,17.5 L27.6,18.2 C29.1,18.4 30.5,18.8 31.9,19.2 L31.9,19.2 Z" id="Path"></path>
                <path d="M40.9,35.1 C40,27.1 33.2,21 25,21 C16.8,21 10,27.1 9.1,35.1 C3.8,36 0,40.6 0,46 C0,52.1 4.9,57 11,57 L39,57 C45.1,57 50,52.1 50,46 C50,40.6 46.2,36 40.9,35.1 Z M46,46.5 C45.7,50.1 42.5,53 38.7,53 L11.3,53 C7.5,53 4.3,50.1 4,46.5 C3.9,44.5 4.5,42.7 5.9,41.2 C7.2,39.8 9.1,39 11,39 C13.1,39 15.1,40 16.4,41.6 C16.8,42.1 17.3,42.3 17.9,42.3 C18.3,42.3 18.7,42.2 19,42 C19.5,41.7 19.8,41.2 19.9,40.6 C20,40 19.8,39.5 19.5,39 C17.9,37 15.6,35.6 13.1,35.1 C14,29.4 19,25 25,25 C31.3,25 36.5,29.9 37,36.1 C37,36.2 37,36.6 37,37 C37,38.1 37.9,38.9 38.9,39 C39.6,39 39.8,39 39.8,39 C43.6,39.5 46.3,42.8 46,46.5 Z" id="Shape"></path>
            </g>
        </g>
    </g>
</svg>