<?xml version="1.0" encoding="UTF-8"?>
<svg width="60px" height="66px" viewBox="0 0 60 66" version="1.1" xmlns="http://www.w3.org/2000/svg" xmlns:xlink="http://www.w3.org/1999/xlink">
    <title>10n</title>
    <g id="Page-1" stroke="none" stroke-width="1" fill="none" fill-rule="evenodd">
        <g id="10n" fill="#FFFFFF" fill-rule="nonzero">
            <g id="Group" transform="translate(5.000000, 56.000000)">
                <path d="M9.4,0.6 C9,0.2 8.5,0 8,0 C7.5,0 7,0.2 6.6,0.6 L0.6,6.6 C0.2,7 0,7.5 0,8 C0,8.5 0.2,9 0.6,9.4 C1,9.8 1.5,10 2,10 C2.5,10 3,9.8 3.4,9.4 L9.4,3.4 C10.2,2.6 10.2,1.4 9.4,0.6 Z" id="Path"></path>
                <path d="M19.4,0.6 C19,0.2 18.5,0 18,0 C17.5,0 17,0.2 16.6,0.6 L10.6,6.6 C10.2,7 10,7.5 10,8 C10,8.5 10.2,9 10.6,9.4 C11,9.8 11.5,10 12,10 C12.5,10 13,9.8 13.4,9.4 L19.4,3.4 C20.2,2.6 20.2,1.4 19.4,0.6 Z" id="Path"></path>
                <path d="M29.4,0.6 C29,0.2 28.5,0 28,0 C27.5,0 27,0.2 26.6,0.6 L20.6,6.6 C20.2,7 20,7.5 20,8 C20,8.5 20.2,9 20.6,9.4 C21,9.8 21.5,10 22,10 C22.5,10 23,9.8 23.4,9.4 L29.4,3.4 C30.2,2.6 30.2,1.4 29.4,0.6 Z" id="Path"></path>
            </g>
            <g id="Group">
                <path d="M59.6,21 C59.2,20.4 58.6,20.1 57.9,20.1 C57.6,20.1 57.3,20.2 57.1,20.3 C57,20.3 56.9,20.4 56.8,20.4 C55.4,21 53.8,21.2 52.3,21.2 C49,21.2 45.8,19.9 43.5,17.5 C40,14 38.9,8.8 40.7,4.1 C40.7,4 40.8,3.9 40.8,3.8 C41.1,3.2 41,2.4 40.7,1.8 C40.3,1.2 39.7,0.9 39,0.9 C38.7,0.9 38.5,0.9 38.3,1 C38.1,1.1 38,1.1 37.8,1.2 C35.3,2.3 33.3,3.9 31.6,6 C29.8,8.3 28.6,11.1 28.2,14.1 C28.5,14.2 28.9,14.2 29.2,14.3 C29.4,14.3 29.5,14.4 29.7,14.4 C30.5,14.6 31.4,14.9 32.1,15.2 L32.1,14.8 C32.4,12 33.7,9.4 35.7,7.4 C35.7,7.4 35.7,7.4 35.7,7.4 C35.4,12.2 37.1,16.8 40.5,20.3 C43.6,23.4 47.8,25.1 52.2,25.1 C52.6,25.1 53,25.1 53.4,25.1 C53.4,25.1 53.4,25.1 53.4,25.1 C51.4,27.1 48.9,28.3 46.1,28.7 L44.4,29 C46.2,29.8 47.9,30.9 49.2,32.3 C51.9,31.5 54.3,30.1 56.3,28.1 C57.7,26.7 58.8,25.1 59.7,23.2 C59.8,23.1 59.8,22.9 59.9,22.7 C60.1,22.2 60,21.5 59.6,21 Z" id="Path"></path>
                <path d="M40.9,31.1 C40,23.1 33.2,17 25,17 C16.8,17 10,23.1 9.1,31.1 C3.8,32 0,36.6 0,42 C0,48.1 4.9,53 11,53 L39,53 C45.1,53 50,48.1 50,42 C50,36.6 46.2,32 40.9,31.1 Z M16.4,37.6 C16.8,38.1 17.3,38.3 17.9,38.3 C18.3,38.3 18.7,38.2 19,38 C19.5,37.7 19.8,37.2 19.9,36.6 C20,36 19.8,35.5 19.5,35 C17.9,33 15.6,31.6 13.1,31.1 C14,25.4 19,21 25,21 C31.3,21 36.5,25.9 37,32.1 C37,32.2 37,32.6 37,33 C37,34.1 37.9,34.9 38.9,35 C39.6,35 39.8,35 39.8,35 C43.5,35.4 46.2,38.7 46,42.5 C45.7,46.1 42.5,49 38.7,49 L11.3,49 C7.5,49 4.3,46.1 4,42.5 C3.9,40.5 4.5,38.7 5.9,37.2 C7.2,35.8 9.1,35 11,35 C13.1,35 15.1,36 16.4,37.6 Z" id="Shape"></path>
            </g>
        </g>
    </g>
</svg>