<?xml version="1.0" encoding="utf-8"?>
<!-- Generator: Adobe Illustrator 25.2.3, SVG Export Plug-In . SVG Version: 6.00 Build 0)  -->
<svg version="1.1" id="Set_Iconos" xmlns="http://www.w3.org/2000/svg" xmlns:xlink="http://www.w3.org/1999/xlink" x="0px" y="0px"
	 viewBox="0 0 70 70" style="enable-background:new 0 0 70 70;" xml:space="preserve">
<g>
	<path d="M19.4,60.6C19,60.2,18.5,60,18,60s-1,0.2-1.4,0.6l-6,6C10.2,67,10,67.5,10,68s0.2,1,0.6,1.4C11,69.8,11.5,70,12,70
		c0.5,0,1-0.2,1.4-0.6l6-6C20.2,62.6,20.2,61.4,19.4,60.6z"/>
	<path d="M29.4,60.6C29,60.2,28.5,60,28,60s-1,0.2-1.4,0.6l-6,6C20.2,67,20,67.5,20,68s0.2,1,0.6,1.4C21,69.8,21.5,70,22,70
		c0.5,0,1-0.2,1.4-0.6l6-6C30.2,62.6,30.2,61.4,29.4,60.6z"/>
	<path d="M39.4,60.6C39,60.2,38.5,60,38,60s-1,0.2-1.4,0.6l-6,6C30.2,67,30,67.5,30,68s0.2,1,0.6,1.4C31,69.8,31.5,70,32,70
		c0.5,0,1-0.2,1.4-0.6l6-6C40.2,62.6,40.2,61.4,39.4,60.6z"/>
</g>
<g>
	<g>
		<path d="M64.6,25c-0.4-0.6-1-0.9-1.7-0.9c-0.3,0-0.6,0.1-0.8,0.2c-0.1,0-0.2,0.1-0.3,0.1c-1.4,0.6-3,0.8-4.5,0.8
			c-3.3,0-6.5-1.3-8.8-3.7c-3.5-3.5-4.6-8.7-2.8-13.4c0-0.1,0.1-0.2,0.1-0.3c0.3-0.6,0.2-1.4-0.1-2c-0.4-0.6-1-0.9-1.7-0.9
			c-0.3,0-0.5,0-0.7,0.1c-0.2,0.1-0.3,0.1-0.5,0.2c-2.5,1.1-4.5,2.7-6.2,4.8c-1.8,2.3-3,5.1-3.4,8.1c0.3,0.1,0.7,0.1,1,0.2
			c0.2,0,0.3,0.1,0.5,0.1c0.8,0.2,1.7,0.5,2.4,0.8l0-0.4c0.3-2.8,1.6-5.4,3.6-7.4c0,0,0,0,0,0c-0.3,4.8,1.4,9.4,4.8,12.9
			c3.1,3.1,7.3,4.8,11.7,4.8c0.4,0,0.8,0,1.2,0c0,0,0,0,0,0c-2,2-4.5,3.2-7.3,3.6L49.4,33c1.8,0.8,3.5,1.9,4.8,3.3
			c2.7-0.8,5.1-2.2,7.1-4.2c1.4-1.4,2.5-3,3.4-4.9c0.1-0.1,0.1-0.3,0.2-0.5C65.1,26.2,65,25.5,64.6,25z"/>
		<path d="M45.9,35.1C45,27.1,38.2,21,30,21c-8.2,0-15,6.1-15.9,14.1C8.8,36,5,40.6,5,46c0,6.1,4.9,11,11,11h28c6.1,0,11-4.9,11-11
			C55,40.6,51.2,36,45.9,35.1z M21.4,41.6c0.4,0.5,0.9,0.7,1.5,0.7c0.4,0,0.8-0.1,1.1-0.3c0.5-0.3,0.8-0.8,0.9-1.4
			c0.1-0.6-0.1-1.1-0.4-1.6c-1.6-2-3.9-3.4-6.4-3.9C19,29.4,24,25,30,25c6.3,0,11.5,4.9,12,11.1c0,0.1,0,0.5,0,0.9
			c0,1.1,0.9,1.9,1.9,2c0.7,0,0.9,0,0.9,0c3.7,0.4,6.4,3.7,6.2,7.5c-0.3,3.6-3.5,6.5-7.3,6.5H16.3c-3.8,0-7-2.9-7.3-6.5
			c-0.1-2,0.5-3.8,1.9-5.3c1.3-1.4,3.2-2.2,5.1-2.2C18.1,39,20.1,40,21.4,41.6z"/>
	</g>
</g>
</svg>
