<?xml version="1.0" encoding="UTF-8"?>
<svg width="54px" height="55px" viewBox="0 0 54 55" version="1.1" xmlns="http://www.w3.org/2000/svg" xmlns:xlink="http://www.w3.org/1999/xlink">
    <title>11n</title>
    <g id="Page-1" stroke="none" stroke-width="1" fill="none" fill-rule="evenodd">
        <g id="11n" fill="#FFFFFF" fill-rule="nonzero">
            <path d="M45,16.2 C44.3,7 36.8,0 27.5,0 C18.3,0 10.8,7 10,16.1 C4.3,16.8 0,21.7 0,27.5 C0,33.8 5.2,39 11.5,39 L13.5,39 C13.6,38.8 13.7,38.5 13.9,38.3 L14.1,38 L15.3,36 L15.9,35 L11.8,35 C7.7,35 4.3,31.9 4,28 C3.9,25.9 4.6,23.9 6,22.4 C7.4,20.9 9.4,20 11.5,20 C13.2,20 14.9,20.6 16.2,21.7 C16.6,22 17,22.1 17.5,22.1 C18,22.1 18.5,21.9 18.9,21.5 C19.3,21.1 19.5,20.5 19.5,20 C19.5,19.4 19.2,18.9 18.8,18.6 C17.4,17.4 15.8,16.6 14.1,16.2 C14.7,9.3 20.4,4 27.5,4 C34.8,4 40.7,9.7 41,17.1 C41,17.2 41,17.6 41,18.1 C41,19.2 41.9,20 42.9,20.1 C43.3,20.1 43.4,20.1 43.7,20.2 C47.5,20.8 50.3,24.4 49.9,28.3 C49.6,32 46.2,35 42.2,35 L41.7,35 C41.6,35.3 41.5,35.7 41.4,36 C41.3,36.2 41.2,36.5 41,36.7 L40.3,38 L39.7,39 L42.6,39 C48.8,39 54,33.8 54,27.5 C54,22 50.2,17.3 45,16.2 Z" id="Path"></path>
            <path d="M36.8,32 L32,32 L32,22.1 C32,20.9 31.1,20 30,20 L29.8,20 C29.1,20 28.5,20.3 28.1,20.9 L16.4,39.9 C16,40.5 16,41.3 16.3,41.9 C16.6,42.5 17.3,43 18.1,43 L23,43 L23,52.9 C23,54.1 23.9,55 25,55 L25.2,55 C25.9,55 26.5,54.7 26.9,54.1 L36.1,39 L37.8,36.3 L38.5,35.1 C38.9,34.5 38.9,33.7 38.6,33.1 C38.3,32.4 37.6,32 36.8,32 Z M26,39 L21.8,39 L28,28.6 L28,35 L28,36 L29,36 L33.2,36 L27,46.4 L27,40 L27,39 L26,39 Z" id="Shape"></path>
        </g>
    </g>
</svg>