<?xml version="1.0" encoding="utf-8"?>
<!-- Generator: Adobe Illustrator 25.2.3, SVG Export Plug-In . SVG Version: 6.00 Build 0)  -->
<svg version="1.1" id="Set_Iconos" xmlns="http://www.w3.org/2000/svg" xmlns:xlink="http://www.w3.org/1999/xlink" x="0px" y="0px"
	 viewBox="0 0 70 70" style="enable-background:new 0 0 70 70;" xml:space="preserve">
<g>
	<g>
		<path d="M53,24.2C52.3,15,44.8,8,35.5,8C26.3,8,18.8,15,18,24.1c-5.7,0.7-10,5.6-10,11.4C8,41.8,13.2,47,19.5,47h2
			c0.1-0.2,0.2-0.5,0.4-0.7l0.2-0.3l1.2-2l0.6-1h-4.1c-4.1,0-7.5-3.1-7.8-7c-0.1-2.1,0.6-4.1,2-5.6c1.4-1.5,3.4-2.4,5.5-2.4
			c1.7,0,3.4,0.6,4.7,1.7c0.4,0.3,0.8,0.4,1.3,0.4c0.5,0,1-0.2,1.4-0.6c0.4-0.4,0.6-1,0.6-1.5c0-0.6-0.3-1.1-0.7-1.4
			c-1.4-1.2-3-2-4.7-2.4C22.7,17.3,28.4,12,35.5,12c7.3,0,13.2,5.7,13.5,13.1c0,0.1,0,0.5,0,1c0,1.1,0.9,1.9,1.9,2
			c0.4,0,0.5,0,0.8,0.1c3.8,0.6,6.6,4.2,6.2,8.1C57.6,40,54.2,43,50.2,43h-0.5c-0.1,0.3-0.2,0.7-0.3,1c-0.1,0.2-0.2,0.5-0.4,0.7
			L48.3,46l-0.6,1h2.9C56.8,47,62,41.8,62,35.5C62,30,58.2,25.3,53,24.2z"/>
		<path d="M44.8,40H40l0-9.9c0-1.2-0.9-2.1-2-2.1h-0.2c-0.7,0-1.3,0.3-1.7,0.9l-11.7,19c-0.4,0.6-0.4,1.4-0.1,2s1,1.1,1.8,1.1l4.9,0
			l0,9.9c0,1.2,0.9,2.1,2,2.1h0.2c0.7,0,1.3-0.3,1.7-0.9L44.1,47l1.7-2.7l0.7-1.2c0.4-0.6,0.4-1.4,0.1-2C46.3,40.4,45.6,40,44.8,40z
			 M34,47h-4.2L36,36.6V43v1h1h4.2L35,54.4V48v-1H34z"/>
	</g>
</g>
</svg>
