<svg id="Set_Iconos" data-name="Set Iconos" xmlns="http://www.w3.org/2000/svg" viewBox="0 0 70 70"><path fill="#fff" d="M52,23a16.51,16.51,0,0,0-33,0,10.51,10.51,0,0,0,.5,21h6.67l1.34-2H19.8A8.7,8.7,0,0,1,11,34.08,8.5,8.5,0,0,1,24.85,26.9a1,1,0,0,0,1.32-.07h0a1,1,0,0,0-.07-1.48A10.48,10.48,0,0,0,21,23a14.5,14.5,0,0,1,29,0c0,.07,0,.55,0,1a1,1,0,0,0,1,1,6.6,6.6,0,0,1,1,.1,8.49,8.49,0,0,1,7,9.18A8.69,8.69,0,0,1,50.2,42H48.11l-1.33,2H50.5A10.56,10.56,0,0,0,52,23Z"/><path fill="#fff" d="M43.84,42H38.22l1.12-9.89a1,1,0,0,0-1-1.11H37.8a1,1,0,0,0-.83.44l-10.69,16A1,1,0,0,0,27.11,49h5.64l-1.08,9.89a1,1,0,0,0,1,1.11h.54a1,1,0,0,0,.83-.45l10.64-16A1,1,0,0,0,43.84,42Zm-10,14.45L35,47H29l8.24-12.44L36,44h6Z"/></svg>