<?xml version="1.0" encoding="utf-8"?>
<!-- Generator: Adobe Illustrator 25.2.3, SVG Export Plug-In . SVG Version: 6.00 Build 0)  -->
<svg version="1.1" id="Set_Iconos" xmlns="http://www.w3.org/2000/svg" xmlns:xlink="http://www.w3.org/1999/xlink" x="0px" y="0px"
	 viewBox="0 0 70 70" style="enable-background:new 0 0 70 70;" xml:space="preserve">
<path d="M59.3,40.9c0.3-0.5,0.3-1,0.2-1.5c-0.2-0.9-1-1.5-1.9-1.5c-0.2,0-0.3,0-0.5,0.1l-8.8,2.3L39,35l9.3-5.4L57,32
	c0.2,0,0.3,0.1,0.5,0.1c0.9,0,1.7-0.6,1.9-1.5c0.1-0.5,0.1-1.1-0.2-1.5c-0.3-0.5-0.7-0.8-1.2-0.9l-4.9-1.3l5.3-3.1
	c1-0.6,1.3-1.8,0.7-2.7c-0.4-0.6-1-1-1.7-1c-0.3,0-0.7,0.1-1,0.3l-5.3,3.1l1.3-4.9c0.3-1.1-0.3-2.2-1.4-2.4c-0.2,0-0.3-0.1-0.5-0.1
	c-0.9,0-1.7,0.6-1.9,1.5l-2.3,8.8L37,31.5V20.8l6.4-6.4C43.8,14,44,13.5,44,13s-0.2-1-0.6-1.4C43,11.2,42.5,11,42,11
	c-0.5,0-1,0.2-1.4,0.6L37,15.2V9c0-1.1-0.9-2-2-2c-1.1,0-2,0.9-2,2v6.2l-3.6-3.6C29,11.2,28.5,11,28,11c-0.5,0-1,0.2-1.4,0.6
	C26.2,12,26,12.5,26,13s0.2,1,0.6,1.4l6.4,6.4v10.7l-9.3-5.4l-2.3-8.8c-0.2-0.9-1-1.5-1.9-1.5c-0.2,0-0.3,0-0.5,0.1
	c-1.1,0.3-1.7,1.4-1.4,2.4l1.3,4.9l-5.3-3.1c-0.3-0.2-0.6-0.3-1-0.3c-0.7,0-1.4,0.4-1.7,1c-0.6,1-0.2,2.2,0.7,2.7l5.3,3.1l-4.9,1.3
	c-0.5,0.1-0.9,0.5-1.2,0.9c-0.3,0.5-0.3,1-0.2,1.5c0.2,0.9,1,1.5,1.9,1.5c0.2,0,0.3,0,0.5-0.1l8.8-2.3L31,35l-9.3,5.4L13,38
	c-0.2,0-0.3-0.1-0.5-0.1c-0.9,0-1.7,0.6-1.9,1.5c-0.1,0.5-0.1,1.1,0.2,1.5c0.3,0.5,0.7,0.8,1.2,0.9l4.9,1.3l-5.3,3.1
	c-1,0.6-1.3,1.8-0.7,2.7c0.4,0.6,1,1,1.7,1c0.3,0,0.7-0.1,1-0.3l5.3-3.1l-1.3,4.9c-0.1,0.5-0.1,1.1,0.2,1.5c0.3,0.5,0.7,0.8,1.2,0.9
	c0.2,0,0.3,0.1,0.5,0.1c0.9,0,1.7-0.6,1.9-1.5l2.3-8.8l9.3-5.4v10.7l-6.4,6.4C26.2,56,26,56.5,26,57s0.2,1,0.6,1.4S27.5,59,28,59
	c0.5,0,1-0.2,1.4-0.6l3.6-3.6V61c0,1.1,0.9,2,2,2c1.1,0,2-0.9,2-2v-6.2l3.6,3.6C41,58.8,41.5,59,42,59c0.5,0,1-0.2,1.4-0.6
	C43.8,58,44,57.5,44,57s-0.2-1-0.6-1.4L37,49.2V38.5l9.3,5.4l2.3,8.8c0.2,0.9,1,1.5,1.9,1.5c0.2,0,0.3,0,0.5-0.1
	c0.5-0.1,0.9-0.5,1.2-0.9c0.3-0.5,0.3-1,0.2-1.5l-1.3-4.9l5.3,3.1c0.3,0.2,0.6,0.3,1,0.3c0.7,0,1.4-0.4,1.7-1c0.6-1,0.2-2.2-0.7-2.7
	l-5.3-3.1l4.9-1.3C58.6,41.7,59,41.4,59.3,40.9z"/>
</svg>
