<svg id="Set_Iconos" data-name="Set Iconos" xmlns="http://www.w3.org/2000/svg" viewBox="0 0 70 70"><path d="M57.65,39.18a1,1,0,0,0-1.22-.71l-9.16,2.46L37,35l10.27-5.93,9.16,2.46a1,1,0,0,0,1.22-.71A1,1,0,0,0,57,29.6l-7.23-1.94,7.43-4.29a1,1,0,0,0-1-1.74l-7.43,4.3,1.93-7.23a1,1,0,0,0-.7-1.23,1,1,0,0,0-1.23.71l-2.45,9.16L36,33.27V21.41l6.71-6.7a1,1,0,0,0-1.42-1.42L36,18.59V10a1,1,0,0,0-2,0v8.59l-5.29-5.3a1,1,0,0,0-1.42,1.42L34,21.41V33.27L23.73,27.34l-2.45-9.16a1,1,0,0,0-1.23-.71,1,1,0,0,0-.7,1.23l1.93,7.23-7.43-4.3a1,1,0,0,0-1,1.74l7.43,4.29L13.05,29.6a1,1,0,0,0-.7,1.22,1,1,0,0,0,1.22.71l9.16-2.46L33,35,22.73,40.93l-9.16-2.46a1,1,0,0,0-1.22.71,1,1,0,0,0,.7,1.22l7.23,1.94-7.43,4.29a1,1,0,1,0,1,1.74l7.43-4.3L19.35,51.3a1,1,0,0,0,.7,1.23,1,1,0,0,0,1.23-.71l2.45-9.16L34,36.73V48.59l-6.71,6.7a1,1,0,0,0,1.42,1.42L34,51.41V60a1,1,0,0,0,2,0V51.41l5.29,5.3a1,1,0,0,0,1.42-1.42L36,48.59V36.73l10.27,5.93,2.45,9.16a1,1,0,0,0,1.23.71,1,1,0,0,0,.7-1.23l-1.93-7.23,7.43,4.3a1,1,0,1,0,1-1.74l-7.43-4.29L57,40.4A1,1,0,0,0,57.65,39.18Z"/></svg>