<?xml version="1.0" encoding="UTF-8"?>
<svg width="50px" height="56px" viewBox="0 0 50 56" version="1.1" xmlns="http://www.w3.org/2000/svg" xmlns:xlink="http://www.w3.org/1999/xlink">
    <title>13d</title>
    <g id="Page-1" stroke="none" stroke-width="1" fill="none" fill-rule="evenodd">
        <g id="13d" fill="#FFFFFF" fill-rule="nonzero">
            <path d="M49.3,33.9 C49.6,33.4 49.6,32.9 49.5,32.4 C49.3,31.5 48.5,30.9 47.6,30.9 C47.4,30.9 47.3,30.9 47.1,31 L38.3,33.3 L29,28 L38.3,22.6 L47,25 C47.2,25 47.3,25.1 47.5,25.1 C48.4,25.1 49.2,24.5 49.4,23.6 C49.5,23.1 49.5,22.5 49.2,22.1 C48.9,21.6 48.5,21.3 48,21.2 L43.1,19.9 L48.4,16.8 C49.4,16.2 49.7,15 49.1,14.1 C48.7,13.5 48.1,13.1 47.4,13.1 C47.1,13.1 46.7,13.2 46.4,13.4 L41.1,16.5 L42.4,11.6 C42.7,10.5 42.1,9.4 41,9.2 C40.8,9.2 40.7,9.1 40.5,9.1 C39.6,9.1 38.8,9.7 38.6,10.6 L36.3,19.4 L27,24.5 L27,13.8 L33.4,7.4 C33.8,7 34,6.5 34,6 C34,5.5 33.8,5 33.4,4.6 C33,4.2 32.5,4 32,4 C31.5,4 31,4.2 30.6,4.6 L27,8.2 L27,2 C27,0.9 26.1,0 25,0 C23.9,0 23,0.9 23,2 L23,8.2 L19.4,4.6 C19,4.2 18.5,4 18,4 C17.5,4 17,4.2 16.6,4.6 C16.2,5 16,5.5 16,6 C16,6.5 16.2,7 16.6,7.4 L23,13.8 L23,24.5 L13.7,19.1 L11.4,10.3 C11.2,9.4 10.4,8.8 9.5,8.8 C9.3,8.8 9.2,8.8 9,8.9 C7.9,9.2 7.3,10.3 7.6,11.3 L8.9,16.2 L3.6,13.1 C3.3,12.9 3,12.8 2.6,12.8 C1.9,12.8 1.2,13.2 0.9,13.8 C0.3,14.8 0.7,16 1.6,16.5 L6.9,19.6 L2,20.9 C1.5,21 1.1,21.4 0.8,21.8 C0.5,22.3 0.5,22.8 0.6,23.3 C0.8,24.2 1.6,24.8 2.5,24.8 C2.7,24.8 2.8,24.8 3,24.7 L11.8,22.4 L21,28 L11.7,33.4 L3,31 C2.8,31 2.7,30.9 2.5,30.9 C1.6,30.9 0.8,31.5 0.6,32.4 C0.5,32.9 0.5,33.5 0.8,33.9 C1.1,34.4 1.5,34.7 2,34.8 L6.9,36.1 L1.6,39.2 C0.6,39.8 0.3,41 0.9,41.9 C1.3,42.5 1.9,42.9 2.6,42.9 C2.9,42.9 3.3,42.8 3.6,42.6 L8.9,39.5 L7.6,44.4 C7.5,44.9 7.5,45.5 7.8,45.9 C8.1,46.4 8.5,46.7 9,46.8 C9.2,46.8 9.3,46.9 9.5,46.9 C10.4,46.9 11.2,46.3 11.4,45.4 L13.7,36.6 L23,31.2 L23,41.9 L16.6,48.3 C16.2,49 16,49.5 16,50 C16,50.5 16.2,51 16.6,51.4 C17,51.8 17.5,52 18,52 C18.5,52 19,51.8 19.4,51.4 L23,47.8 L23,54 C23,55.1 23.9,56 25,56 C26.1,56 27,55.1 27,54 L27,47.8 L30.6,51.4 C31,51.8 31.5,52 32,52 C32.5,52 33,51.8 33.4,51.4 C33.8,51 34,50.5 34,50 C34,49.5 33.8,49 33.4,48.6 L27,42.2 L27,31.5 L36.3,36.9 L38.6,45.7 C38.8,46.6 39.6,47.2 40.5,47.2 C40.7,47.2 40.8,47.2 41,47.1 C41.5,47 41.9,46.6 42.2,46.2 C42.5,45.7 42.5,45.2 42.4,44.7 L41.1,39.8 L46.4,42.9 C46.7,43.1 47,43.2 47.4,43.2 C48.1,43.2 48.8,42.8 49.1,42.2 C49.7,41.2 49.3,40 48.4,39.5 L43.1,36.4 L48,35.1 C48.6,34.7 49,34.4 49.3,33.9 Z" id="Path"></path>
        </g>
    </g>
</svg>