<?xml version="1.0" encoding="UTF-8"?><svg xmlns="http://www.w3.org/2000/svg" viewBox="0 0 302.64 111.53"><g id="a"/><g id="b"><g id="c"><g><path d="M47.8,57.17v-14.41l-14.51-12.97-14.51,12.97v18.46c.27,.46,.52,.95,.71,1.47,2.86,7.83,13.72,7.83,17.06,0,2.07-4.85,7.06-6.69,11.25-5.53Z" style="fill:none; stroke:#fff; stroke-width:2.11px;"/><path d="M76.86,57.25V30.18l-14.51-10.05-14.51,10.05v27c2.55,.72,4.8,2.56,5.88,5.52,2.87,7.83,13.84,7.83,17.18,0,1.23-2.87,3.47-4.69,5.95-5.45Z" style="fill:none; stroke:#fff; stroke-width:2.11px;"/><path d="M105.9,61.05v-24.36h-29.01v20.56c4.28-1.3,9.27,.52,11.08,5.46,2.86,7.83,15.27,7.83,17.3,0,.15-.6,.37-1.15,.64-1.65Z" style="fill:none; stroke:#fff; stroke-width:2.11px;"/><path d="M2.2,62.21c2.03-7.82,14.43-7.82,17.29,0,2.86,7.82,13.71,7.82,17.05,0,3.34-7.82,14.31-7.82,17.17,0" style="fill:none; stroke:#fff; stroke-width:2.11px;"/><path d="M105.26,62.21c-2.03,7.82-14.43,7.82-17.29,0-2.86-7.82-13.71-7.82-17.05,0-3.34,7.82-14.31,7.82-17.17,0" style="fill:none; stroke:#fff; stroke-width:2.11px;"/><path d="M105.27,62.21c2.03-7.81,14.42-7.81,17.28,0" style="fill:none; stroke:#fff; stroke-width:2.11px;"/><path d="M72.15,109.58h-10.45v1.95h10.45v-1.95Zm-3.75-3.93c.01,.21,.03,.41,.04,.61,.02,.2,.04,.37,.06,.5h2.22c-.05-.31-.08-.66-.08-1.04,0-.38,0-.7,0-.97v-4c0-1.06-.36-1.87-1.07-2.43-.71-.57-1.63-.85-2.76-.85s-2.04,.29-2.74,.86c-.7,.58-1.09,1.29-1.17,2.14h2.37c.02-.27,.17-.52,.43-.75,.26-.23,.62-.35,1.07-.35h.11c.45,0,.81,.14,1.07,.42,.27,.28,.4,.62,.4,1.04v.22l-2.29,.2c-.45,.04-.88,.12-1.28,.26-.41,.13-.76,.32-1.07,.56-.3,.24-.54,.55-.72,.91-.18,.36-.26,.79-.26,1.27,0,.81,.29,1.46,.88,1.95,.59,.49,1.29,.73,2.1,.73,.59,0,1.12-.12,1.59-.35,.47-.24,.83-.55,1.1-.94m-2.2-.62c-.33,0-.6-.09-.82-.26-.22-.17-.33-.39-.33-.67,0-.38,.15-.65,.44-.82,.29-.17,.59-.27,.89-.29l1.97-.2v.25c0,.6-.21,1.07-.62,1.44-.41,.36-.89,.55-1.44,.55h-.09Zm-3.77,4.55h-5.53v1.95h5.53v-1.95Zm-3.95-2.82h2.37v-9.1h-2.37v9.1Zm-.09-10.28h2.55v-2.46h-2.55v2.46Zm-.76,13.11h-10.54v1.95h10.54v-1.95Zm-3.37-6.01c-.07,.45-.25,.8-.52,1.07-.27,.26-.66,.39-1.16,.39h-.11c-.68,0-1.17-.28-1.48-.84-.31-.56-.46-1.22-.46-1.98s.15-1.43,.46-1.98c.31-.56,.8-.84,1.48-.84h.11c.5,0,.88,.13,1.16,.39s.45,.62,.52,1.07h2.37c-.08-1.13-.5-1.97-1.23-2.53-.73-.56-1.69-.84-2.87-.84-.61,0-1.18,.11-1.71,.33-.53,.22-1,.53-1.39,.95-.39,.41-.7,.91-.93,1.49-.22,.58-.34,1.24-.34,1.97s.11,1.38,.34,1.96c.22,.58,.53,1.08,.93,1.49,.4,.41,.86,.73,1.39,.95,.53,.22,1.1,.33,1.71,.33,1.18,0,2.13-.28,2.87-.84,.73-.56,1.14-1.4,1.23-2.53h-2.37Zm-6.44,6.01h-11.36v1.95h11.36v-1.95Zm-7.41-7.88c0-.63,.19-1.17,.57-1.63,.38-.46,.85-.68,1.39-.68h.15c.45,0,.8,.15,1.06,.46,.25,.31,.38,.76,.38,1.36v5.55h2.37v-5.82c0-.99-.25-1.82-.76-2.48-.51-.65-1.31-.98-2.4-.98-.6,0-1.14,.14-1.62,.42-.49,.28-.86,.64-1.13,1.09v-1.33h-2.37v9.1h2.37v-5.06Zm-3.22,7.88h-10.57v1.95h10.57v-1.95Zm-7.21-8.45c.03-.55,.22-.97,.59-1.28,.37-.31,.8-.46,1.3-.46h.11c.5,0,.93,.15,1.3,.46,.37,.31,.57,.74,.59,1.28h-3.9Zm6.15,2.75h-2.35c-.08,.3-.26,.57-.54,.8-.27,.23-.63,.35-1.08,.35h-.11c-.5,0-.95-.19-1.37-.57-.42-.38-.65-.88-.7-1.5h6.15c.01-.15,.02-.29,.03-.44,0-.15,0-.28,0-.42,0-.65-.09-1.27-.26-1.84-.18-.57-.44-1.06-.78-1.47-.35-.41-.78-.73-1.3-.96-.52-.24-1.12-.35-1.8-.35s-1.29,.12-1.83,.35c-.54,.24-1,.56-1.36,.98-.37,.42-.65,.92-.85,1.5-.19,.58-.29,1.21-.29,1.89,0,.75,.12,1.42,.35,2.01,.24,.59,.56,1.08,.96,1.48,.4,.4,.86,.71,1.38,.92,.52,.21,1.07,.32,1.64,.32,1.13,0,2.04-.29,2.74-.87,.7-.58,1.16-1.31,1.37-2.19m-3.88-9.87h-2.73l1.82,2.73h1.37l-.46-2.73Zm-4.92,15.56h-5.53v1.95h5.53v-1.95Zm-3.95-2.82h2.37v-12.74h-2.37v12.74Zm-.86,2.82H12.08v1.95h10.45v-1.95Zm-3.75-3.93c.01,.21,.03,.41,.04,.61,.02,.2,.04,.37,.06,.5h2.22c-.05-.31-.08-.66-.08-1.04,0-.38,0-.7,0-.97v-4c0-1.06-.35-1.87-1.06-2.43-.71-.57-1.63-.85-2.76-.85s-2.04,.29-2.74,.86c-.7,.58-1.09,1.29-1.17,2.14h2.37c.02-.27,.17-.52,.43-.75,.26-.23,.62-.35,1.07-.35h.11c.45,0,.81,.14,1.07,.42,.27,.28,.4,.62,.4,1.04v.22l-2.29,.2c-.45,.04-.88,.12-1.28,.26-.41,.13-.76,.32-1.07,.56-.3,.24-.54,.55-.72,.91-.18,.36-.26,.79-.26,1.27,0,.81,.29,1.46,.88,1.95,.59,.49,1.29,.73,2.1,.73,.59,0,1.12-.12,1.59-.35,.47-.24,.83-.55,1.1-.94m-2.2-.62c-.33,0-.6-.09-.82-.26-.22-.17-.33-.39-.33-.67,0-.38,.15-.65,.44-.82,.29-.17,.59-.27,.89-.29l1.97-.2v.25c0,.6-.21,1.07-.62,1.44-.41,.36-.89,.55-1.44,.55h-.09Zm-2.82,4.55H0v1.95H13.76v-1.95Zm-5.26-2.82l4.77-12.74h-2.69l-3.62,10.16-3.77-10.16H.44l4.88,12.74h3.19Z" style="fill:#fff;"/><path d="M126.68,87.74h-8.14v1.95h8.14v-1.95Zm-.91-4.82h-1.31c-.41,0-.68-.06-.81-.19-.13-.13-.19-.4-.19-.81v-4.19h2.04v-1.91h-2.04v-2.95h-2.37v2.95h-1.88v1.91h1.88v4.82c0,.76,.2,1.35,.61,1.76,.41,.41,.99,.61,1.76,.61h2.31v-2Zm-6.5,4.82h-10.54v1.95h10.54v-1.95Zm-3.37-6.01c-.07,.45-.25,.8-.52,1.07-.27,.26-.66,.39-1.16,.39h-.11c-.68,0-1.17-.28-1.48-.84-.31-.56-.46-1.22-.46-1.98s.15-1.43,.46-1.98c.31-.56,.8-.84,1.48-.84h.11c.5,0,.88,.13,1.16,.39,.27,.26,.45,.62,.52,1.07h2.37c-.08-1.13-.49-1.97-1.23-2.53-.73-.56-1.69-.84-2.87-.84-.61,0-1.18,.11-1.71,.33s-1,.53-1.39,.95c-.39,.41-.7,.91-.93,1.49-.22,.58-.34,1.24-.34,1.97s.11,1.38,.34,1.96c.23,.58,.53,1.08,.93,1.49,.4,.41,.86,.73,1.39,.95,.53,.22,1.1,.33,1.71,.33,1.18,0,2.13-.28,2.87-.84,.74-.56,1.14-1.4,1.23-2.53h-2.37Zm-6.44,6.01h-5.53v1.95h5.53v-1.95Zm-3.95-2.82h2.37v-9.1h-2.37v9.1Zm-.09-10.28h2.55v-2.46h-2.55v2.46Zm-.76,13.11h-7.77v1.95h7.77v-1.95Zm-6.19-2.82h2.37v-4.73c0-.76,.19-1.33,.57-1.71,.38-.38,.95-.57,1.71-.57h.82v-2.18h-.46c-.68,0-1.24,.17-1.69,.51-.45,.34-.77,.81-.95,1.4v-1.82h-2.37v9.1Zm-.86,2.82h-8.14v1.95h8.14v-1.95Zm-.91-4.82h-1.31c-.41,0-.68-.06-.81-.19-.13-.13-.19-.4-.19-.81v-4.19h2.04v-1.91h-2.04v-2.95h-2.37v2.95h-1.88v1.91h1.88v4.82c0,.76,.2,1.35,.61,1.76,.41,.41,.99,.61,1.76,.61h2.31v-2Zm-6.5,4.82h-9.77v1.95h9.77v-1.95Zm-4.9-2.64c1.22,0,2.15-.28,2.78-.83s.95-1.21,.95-1.97c0-.72-.21-1.29-.62-1.73-.41-.44-1.06-.77-1.93-.98l-1.22-.31c-.38-.08-.66-.2-.86-.35-.2-.15-.3-.34-.3-.58,0-.27,.11-.48,.34-.65,.22-.16,.5-.25,.81-.25h.15c.41,0,.73,.12,.96,.36,.22,.24,.36,.57,.41,1.01h2.37c0-.99-.32-1.77-.97-2.34-.65-.57-1.56-.85-2.74-.85s-2.02,.26-2.68,.79c-.66,.53-.99,1.2-.99,2.01,0,.73,.23,1.31,.7,1.75,.47,.44,1.17,.77,2.12,1l1.18,.29c.33,.08,.56,.2,.71,.35,.15,.15,.22,.33,.22,.56,0,.27-.11,.48-.33,.65-.22,.16-.51,.25-.87,.25h-.15c-.45,0-.82-.12-1.1-.37-.29-.25-.43-.58-.43-.99h-2.42c0,.99,.35,1.77,1.05,2.34,.7,.56,1.66,.85,2.89,.85m-4.15,2.64h-5.53v1.95h5.53v-1.95Zm-3.95-2.82h2.37v-9.1h-2.37v9.1Zm-.09-10.28h2.55v-2.46h-2.55v2.46Zm-.76,13.11h-13.85v1.95h13.85v-1.95Zm-9.54-5.01v-8.37h1.73c1.22,0,2.23,.3,3.01,.9,.78,.6,1.17,1.7,1.17,3.29s-.39,2.68-1.17,3.29c-.78,.6-1.79,.9-3.01,.9h-1.73Zm-2.46,2.18h4.46c.95,0,1.81-.14,2.6-.41,.79-.27,1.46-.68,2.01-1.21,.55-.53,.98-1.2,1.29-1.99,.31-.8,.46-1.71,.46-2.76s-.16-1.96-.47-2.76c-.32-.79-.76-1.46-1.32-1.99-.56-.53-1.25-.94-2.05-1.21-.8-.27-1.67-.41-2.62-.41h-4.37v12.74Zm-5.39,2.82h-11.36v1.95h11.36v-1.95Zm-7.41-7.88c0-.63,.19-1.17,.57-1.63,.38-.45,.85-.68,1.39-.68h.15c.45,0,.8,.15,1.06,.46,.25,.31,.38,.76,.38,1.36v5.55h2.37v-5.82c0-.99-.25-1.82-.76-2.48-.51-.65-1.31-.98-2.4-.98-.59,0-1.13,.14-1.62,.42-.49,.28-.86,.64-1.13,1.09v-1.33h-2.37v9.1h2.37v-5.06Zm-9.3,7.88h-5.44v1.95h5.22c.79,0,1.48-.11,2.07-.32,.59-.21,1.08-.49,1.47-.84,.39-.35,.69-.75,.88-1.2,.19-.46,.29-.92,.29-1.39v-10.12h-2.37v1.09c-.27-.45-.64-.77-1.11-.97-.47-.2-.96-.3-1.46-.3s-1.02,.1-1.5,.3c-.48,.2-.9,.5-1.26,.89-.36,.39-.64,.88-.86,1.46-.21,.58-.32,1.24-.32,1.99s.11,1.42,.32,1.99c.21,.58,.5,1.06,.86,1.46,.36,.39,.78,.69,1.26,.89,.48,.2,.98,.3,1.5,.3s.98-.1,1.46-.3c.47-.2,.84-.52,1.11-.97v2c0,.73-.21,1.26-.62,1.59-.41,.33-.92,.5-1.51,.5m.04-4.73c-.57,0-1.05-.24-1.45-.72-.39-.48-.59-1.15-.59-2.01s.2-1.53,.59-2.01c.39-.48,.88-.72,1.45-.72h.14c.55,0,1.01,.24,1.38,.72,.38,.48,.56,1.15,.56,2.01s-.19,1.53-.56,2.01c-.38,.48-.84,.72-1.38,.72h-.14Zm-4.75,4.73h-5.53v1.95h5.53v-1.95Zm-3.95-2.82h2.37v-9.1h-2.37v9.1Zm-.09-10.28h2.55v-2.46h-2.55v2.46Zm-.77,13.11h-9.77v1.95h9.77v-1.95Zm-4.9-2.64c1.23,0,2.15-.28,2.78-.83,.63-.55,.95-1.21,.95-1.97,0-.72-.21-1.29-.62-1.73-.41-.44-1.06-.77-1.93-.98l-1.22-.31c-.38-.08-.66-.2-.86-.35-.2-.15-.3-.34-.3-.58,0-.27,.11-.48,.34-.65,.22-.16,.49-.25,.81-.25h.15c.41,0,.73,.12,.96,.36,.22,.24,.36,.57,.41,1.01h2.37c0-.99-.32-1.77-.97-2.34-.65-.57-1.56-.85-2.74-.85s-2.02,.26-2.68,.79c-.66,.53-.99,1.2-.99,2.01,0,.73,.23,1.31,.7,1.75,.47,.44,1.17,.77,2.12,1l1.18,.29c.33,.08,.56,.2,.71,.35,.14,.15,.22,.33,.22,.56,0,.27-.11,.48-.33,.65-.22,.16-.51,.25-.87,.25h-.15c-.45,0-.82-.12-1.1-.37s-.43-.58-.43-.99h-2.42c0,.99,.35,1.77,1.05,2.34,.7,.56,1.66,.85,2.88,.85m-3.58,2.64H13.12v1.95h11.14v-1.95Zm-7.77-8.45c.02-.55,.22-.97,.59-1.28,.37-.31,.8-.46,1.3-.46h.11c.5,0,.93,.15,1.3,.46,.37,.31,.57,.74,.59,1.28h-3.9Zm6.15,2.75h-2.35c-.08,.3-.26,.57-.54,.8-.27,.23-.63,.35-1.08,.35h-.11c-.5,0-.96-.19-1.37-.57-.42-.38-.65-.88-.7-1.5h6.15c.01-.15,.02-.29,.03-.44,0-.15,0-.28,0-.42,0-.65-.09-1.27-.26-1.84s-.44-1.06-.78-1.46c-.35-.41-.78-.73-1.3-.96-.52-.24-1.12-.36-1.8-.36s-1.29,.12-1.83,.36c-.54,.24-.99,.56-1.37,.98-.37,.42-.65,.92-.85,1.5-.19,.58-.29,1.21-.29,1.89,0,.75,.12,1.42,.35,2.01,.24,.59,.56,1.08,.96,1.48,.4,.4,.86,.71,1.38,.92,.52,.21,1.07,.32,1.64,.32,1.13,0,2.04-.29,2.74-.86,.7-.58,1.15-1.31,1.37-2.19m-8.79,5.7H0v1.95H13.85v-1.95Zm-9.54-5.01v-8.37h1.73c1.23,0,2.23,.3,3.01,.9,.78,.6,1.17,1.7,1.17,3.29s-.39,2.68-1.17,3.29c-.78,.6-1.79,.9-3.01,.9h-1.73Zm-2.46,2.18H6.32c.95,0,1.81-.14,2.6-.41,.79-.27,1.46-.68,2.01-1.21,.55-.53,.98-1.2,1.29-1.99,.31-.8,.46-1.71,.46-2.76s-.16-1.96-.47-2.76c-.32-.79-.76-1.46-1.32-1.99-.56-.53-1.25-.94-2.05-1.21-.8-.27-1.67-.41-2.62-.41H1.86v12.74Z" style="fill:#fff;"/><path d="M302.24,91.92h-1.73c-.55,0-.73-.18-.73-.73v-5.34h2.18v-1.49h-2.18v-2.95h-1.73v2.95h-2v1.49h2v5.61c0,1.27,.73,2,2,2h2.18v-1.54Zm-7.55,1.54c-.09-.64-.09-1.46-.09-2v-3.83c0-1.85-1.27-3.45-3.69-3.45-2.06,0-3.57,1.15-3.68,2.82h1.73c.11-.91,.93-1.36,1.91-1.36h.09c1.18,0,1.91,.73,1.91,2v.29l-2.51,.2c-1.48,.13-3.31,.75-3.31,2.83,0,1.55,1.27,2.69,3,2.69,1.46,0,2.55-.82,2.91-1.64,0,.09,0,1,.09,1.46h1.64Zm-1.82-4.21v.93c0,1.09-1.37,2.01-2.46,2.01h-.18c-.84,0-1.46-.57-1.46-1.31,0-.84,.76-1.35,1.82-1.44l2.28-.18Zm-7.1,2.66h-1.73c-.55,0-.73-.18-.73-.73v-5.34h2.18v-1.49h-2.18v-2.95h-1.73v2.95h-2v1.49h2v5.61c0,1.27,.73,2,2,2h2.18v-1.54Zm-9.59,1.55h1.73v-9.1h-1.73v9.1Zm-.09-10.74h1.91v-2h-1.91v2Zm-4.93,10.74l3.37-9.1h-1.77l-2.64,7.41-2.64-7.41h-1.78l3.37,9.1h2.09Zm-8.85,0h1.73v-9.1h-1.73v9.1Zm-.09-10.74h1.91v-2h-1.91v2Zm-1.79,9.19h-1.73c-.55,0-.73-.18-.73-.73v-5.34h2.18v-1.49h-2.18v-2.95h-1.73v2.95h-2v1.49h2v5.61c0,1.27,.73,2,2,2h2.18v-1.54Zm-7.55,1.54c-.09-.64-.09-1.46-.09-2v-3.83c0-1.85-1.27-3.45-3.69-3.45-2.06,0-3.57,1.15-3.68,2.82h1.73c.11-.91,.93-1.36,1.91-1.36h.09c1.18,0,1.91,.73,1.91,2v.29l-2.51,.2c-1.48,.13-3.31,.75-3.31,2.83,0,1.55,1.27,2.69,3,2.69,1.46,0,2.55-.82,2.91-1.64,0,.09,0,1,.09,1.46h1.64Zm-1.82-4.21v.93c0,1.09-1.37,2.01-2.46,2.01h-.18c-.84,0-1.46-.57-1.46-1.31,0-.84,.77-1.35,1.82-1.44l2.28-.18Zm-7.43,1.51h-1.73c-.18,.97-1.04,1.42-1.95,1.42h-.11c-1.13,0-2.46-.93-2.57-3.01h6.37v-1c0-2.37-1.49-4-3.86-4-2.15,0-4.24,1.56-4.24,4.71s2.04,4.75,4.3,4.75c1.89,0,3.49-1,3.79-2.87m-3.93-5.13h.18c1.02,0,1.97,.6,2.04,2.19h-4.53c.33-1.62,1.38-2.19,2.31-2.19m-10.14,7.83h1.73v-4.6c0-1.82,1-2.91,2.64-2.91h.73v-1.67h-.82c-1.18,0-2.27,.73-2.64,2.09v-2h-1.64v9.1Zm-11.47-6.37c0-2.73,1.46-4.92,4.1-4.92h.18c1.64,0,3.08,.93,3.18,2.55h1.82c-.13-2.58-2.37-4.18-5.1-4.18-3.73,0-6.01,2.82-6.01,6.55s2.27,6.55,6.01,6.55c2.73,0,4.97-1.6,5.1-4.18h-1.82c-.11,1.62-1.55,2.55-3.18,2.55h-.18c-2.64,0-4.1-2.19-4.1-4.92m-8.34,6.37c-.09-.64-.09-1.46-.09-2v-3.83c0-1.85-1.27-3.45-3.69-3.45-2.06,0-3.57,1.15-3.68,2.82h1.73c.11-.91,.93-1.36,1.91-1.36h.09c1.18,0,1.91,.73,1.91,2v.29l-2.51,.2c-1.47,.13-3.31,.75-3.31,2.83,0,1.55,1.27,2.69,3,2.69,1.46,0,2.55-.82,2.91-1.64,0,.09,0,1,.09,1.46h1.64Zm-1.82-4.21v.93c0,1.09-1.37,2.01-2.46,2.01h-.18c-.84,0-1.46-.57-1.46-1.31,0-.84,.76-1.35,1.82-1.44l2.28-.18Zm-9.68,4.21h1.73v-12.74h-1.73v12.74Zm-6.65-2.7h-1.73c-.18,.97-1.04,1.42-1.95,1.42h-.11c-1.13,0-2.46-.93-2.57-3.01h6.37v-1c0-2.37-1.49-4-3.86-4-2.15,0-4.24,1.56-4.24,4.71s2.04,4.75,4.29,4.75c1.89,0,3.49-1,3.78-2.87m-3.93-5.13h.18c1.02,0,1.97,.6,2.04,2.19h-4.54c.33-1.62,1.38-2.19,2.31-2.19m-11.07,8.01c1.27,0,2.55-.64,3-1.45v1.27h1.73v-12.74h-1.73v4.91c-.46-.82-1.55-1.45-2.82-1.45-2.28,0-4.09,1.73-4.09,4.73s1.64,4.73,3.91,4.73m.46-1.45h-.18c-1.37,0-2.46-1.09-2.46-3.28s1.09-3.28,2.46-3.28h.18c1.27,0,2.55,1.09,2.55,3.28s-1.28,3.28-2.55,3.28m-12.72,1.27h1.73v-9.1h-1.73v9.1Zm-.09-10.74h1.91v-2h-1.91v2Z" style="fill:#fff;"/><path d="M281,70.35h-.18c-1.46,0-2.55-1.18-2.55-3.28s1.09-3.28,2.55-3.28h.18c1.46,0,2.55,1.18,2.55,3.28s-1.09,3.28-2.55,3.28m-.09,1.45c2.46,0,4.37-1.91,4.37-4.73s-1.91-4.73-4.37-4.73-4.37,1.91-4.37,4.73,1.91,4.73,4.37,4.73m-.71-10.47h1.18l1.64-2.45h-1.82l-1,2.45Zm-7.55,10.29h1.73v-9.1h-1.73v9.1Zm-.09-10.74h1.91v-2h-1.91v2Zm-5.77,10.92c2.08,0,3.55-1.22,3.73-3.18h-1.73c-.16,1-.89,1.73-1.91,1.73h-.18c-1.73,0-2.55-1.55-2.55-3.28s.82-3.28,2.55-3.28h.18c1.02,0,1.75,.73,1.91,1.73h1.73c-.18-1.97-1.65-3.18-3.73-3.18-2.8,0-4.37,2.05-4.37,4.73s1.56,4.73,4.37,4.73m-6.37-.18c-.09-.64-.09-1.45-.09-2v-3.83c0-1.85-1.27-3.45-3.69-3.45-2.06,0-3.57,1.14-3.68,2.82h1.73c.11-.91,.93-1.36,1.91-1.36h.09c1.18,0,1.91,.73,1.91,2v.29l-2.51,.2c-1.48,.13-3.31,.75-3.31,2.83,0,1.55,1.27,2.69,3,2.69,1.46,0,2.55-.82,2.91-1.64,0,.09,0,1,.09,1.45h1.64Zm-1.82-4.21v.93c0,1.09-1.37,2-2.46,2h-.18c-.84,0-1.46-.56-1.46-1.31,0-.84,.77-1.35,1.82-1.44l2.28-.18Zm-10.03,4.21l3.37-9.1h-1.77l-2.64,7.41-2.64-7.41h-1.78l3.37,9.1h2.09Zm-10.61-1.27h-.18c-1.46,0-2.55-1.18-2.55-3.28s1.09-3.28,2.55-3.28h.18c1.46,0,2.55,1.18,2.55,3.28s-1.09,3.28-2.55,3.28m-.09,1.45c2.46,0,4.37-1.91,4.37-4.73s-1.91-4.73-4.37-4.73-4.37,1.91-4.37,4.73,1.91,4.73,4.37,4.73m-12.63-5.28c0-1.73,1.18-2.73,2.46-2.73h.18c1.27,0,1.82,.82,1.82,2.09v5.73h1.73v-6.1c0-1.91-1.18-3.18-3.27-3.18-1.46,0-2.37,.64-2.91,1.45v-1.27h-1.73v9.1h1.73v-5.1Zm-10.56,0c0-1.73,1.18-2.73,2.46-2.73h.18c1.27,0,1.82,.82,1.82,2.09v5.73h1.73v-6.1c0-1.91-1.18-3.18-3.27-3.18-1.46,0-2.37,.64-2.91,1.45v-1.27h-1.73v9.1h1.73v-5.1Zm-6.55,5.1h1.82v-12.74h-1.82v12.74Zm-7.26,0c-.09-.64-.09-1.45-.09-2v-3.83c0-1.85-1.27-3.45-3.69-3.45-2.06,0-3.57,1.14-3.68,2.82h1.73c.11-.91,.93-1.36,1.91-1.36h.09c1.18,0,1.91,.73,1.91,2v.29l-2.51,.2c-1.48,.13-3.31,.75-3.31,2.83,0,1.55,1.27,2.69,3,2.69,1.46,0,2.55-.82,2.91-1.64,0,.09,0,1,.09,1.45h1.64Zm-1.82-4.21v.93c0,1.09-1.37,2-2.46,2h-.18c-.84,0-1.46-.56-1.46-1.31,0-.84,.76-1.35,1.82-1.44l2.28-.18Zm-9.68,4.21h1.73v-12.74h-1.73v12.74Zm-6.65-2.7h-1.73c-.18,.97-1.04,1.42-1.95,1.42h-.11c-1.13,0-2.46-.93-2.57-3h6.37v-1c0-2.37-1.49-4-3.86-4-2.15,0-4.24,1.56-4.24,4.71s2.04,4.75,4.29,4.75c1.89,0,3.49-1,3.78-2.88m-3.93-5.13h.18c1.02,0,1.97,.6,2.04,2.19h-4.54c.33-1.62,1.38-2.19,2.31-2.19m-11.07,8.01c1.27,0,2.55-.64,3-1.45v1.27h1.73v-12.74h-1.73v4.91c-.46-.82-1.55-1.45-2.82-1.45-2.28,0-4.09,1.73-4.09,4.73s1.64,4.73,3.91,4.73m.46-1.45h-.18c-1.37,0-2.46-1.09-2.46-3.28s1.09-3.28,2.46-3.28h.18c1.27,0,2.55,1.09,2.55,3.28s-1.27,3.28-2.55,3.28" style="fill:#fff;"/><path d="M290.63,44.69c0-1.73,1.18-2.73,2.28-2.73h.18c1.27,0,1.82,.82,1.82,2.09v5.73h1.73v-5.1c0-1.73,1.18-2.73,2.28-2.73h.18c1.27,0,1.82,.82,1.82,2.09v5.73h1.73v-6.1c0-1.91-1.18-3.18-3.27-3.18-1.11,0-2.3,.44-3,1.69-.6-1.18-1.69-1.69-3-1.69s-2.19,.64-2.73,1.45v-1.27h-1.73v9.1h1.73v-5.1Zm-6.19,5.1h1.73v-9.1h-1.73v9.1Zm-.09-10.74h1.91v-2h-1.91v2Zm-1.79,9.19h-1.73c-.55,0-.73-.18-.73-.73v-5.33h2.18v-1.49h-2.18v-2.95h-1.73v2.95h-2v1.49h2v5.61c0,1.27,.73,2,2,2h2.18v-1.54Zm-9.59,1.55h1.73v-9.1h-1.73v9.1Zm.24-10.29h1.18l1.64-2.45h-1.82l-1,2.45Zm-7.08,10.28h1.73v-4.6c0-1.82,1-2.91,2.64-2.91h.73v-1.67h-.82c-1.18,0-2.27,.73-2.64,2.09v-2h-1.64v9.1Zm-2.55,0c-.09-.64-.09-1.45-.09-2v-3.83c0-1.85-1.27-3.45-3.69-3.45-2.06,0-3.57,1.14-3.68,2.82h1.73c.11-.91,.93-1.36,1.91-1.36h.09c1.18,0,1.91,.73,1.91,2v.29l-2.51,.2c-1.47,.13-3.31,.75-3.31,2.83,0,1.55,1.27,2.69,3,2.69,1.46,0,2.55-.82,2.91-1.64,0,.09,0,1,.09,1.45h1.64Zm-1.82-4.21v.93c0,1.09-1.36,2.01-2.46,2.01h-.18c-.84,0-1.46-.57-1.46-1.31,0-.84,.76-1.35,1.82-1.44l2.28-.18Zm-16.13,4.21h2.33l3.75-11.19v11.19h1.82v-12.74h-3l-3.73,11.03-3.81-11.03h-3.02v12.74h1.82v-11.14l3.84,11.14Zm-12.58-2.69h-1.73c-.18,.97-1.04,1.42-1.95,1.42h-.11c-1.13,0-2.46-.93-2.57-3.01h6.37v-1c0-2.37-1.49-4-3.86-4-2.15,0-4.24,1.56-4.24,4.71s2.04,4.75,4.3,4.75c1.89,0,3.49-1,3.78-2.88m-3.93-5.13h.18c1.02,0,1.97,.6,2.04,2.19h-4.54c.33-1.62,1.38-2.19,2.31-2.19m-5.39,6.28h-1.73c-.55,0-.73-.18-.73-.73v-5.33h2.18v-1.49h-2.18v-2.95h-1.73v2.95h-2v1.49h2v5.61c0,1.27,.73,2,2,2h2.18v-1.54Zm-10.92,1.73c2.07,0,3.55-1.22,3.73-3.18h-1.73c-.16,1-.89,1.73-1.91,1.73h-.18c-1.73,0-2.55-1.55-2.55-3.28s.82-3.28,2.55-3.28h.18c1.02,0,1.75,.73,1.91,1.73h1.73c-.18-1.97-1.65-3.18-3.73-3.18-2.8,0-4.37,2.05-4.37,4.73s1.56,4.73,4.37,4.73m-8.28-.18h1.73v-9.1h-1.73v9.1Zm-.09-10.74h1.91v-2h-1.91v2Zm-6.75,10.74h1.73v-4.6c0-1.82,1-2.91,2.64-2.91h.73v-1.67h-.82c-1.18,0-2.28,.73-2.64,2.09v-2h-1.64v9.1Zm-1.88-1.54h-1.73c-.55,0-.73-.18-.73-.73v-5.33h2.18v-1.49h-2.18v-2.95h-1.73v2.95h-2v1.49h2v5.61c0,1.27,.73,2,2,2h2.18v-1.54Zm-10.98,1.73c2.11,0,3.59-1.09,3.59-2.73s-1.13-2.39-2.51-2.66l-1.44-.29c-.91-.18-1.27-.62-1.27-1.17,0-.64,.64-1.17,1.64-1.17h.18c1.09,0,1.68,.73,1.77,1.55h1.73c0-1.73-1.22-3-3.6-3-1.82,0-3.44,.98-3.44,2.8,0,1.55,1.18,2.31,2.66,2.6l1.33,.26c.91,.18,1.24,.58,1.24,1.17,0,.73-.75,1.18-1.67,1.18h-.18c-1.06,0-1.89-.53-2-1.55h-1.73c.09,1.73,1.31,3,3.73,3m-7.48-.18h1.73v-9.1h-1.73v9.1Zm-.09-10.74h1.91v-2h-1.91v2Zm-10.83,9.1v-9.47h2.55c2.73,0,4.28,1.64,4.28,4.73s-1.55,4.73-4.28,4.73h-2.55Zm-1.82,1.64h4.55c3.55,0,5.91-2.36,5.91-6.37s-2.36-6.37-5.91-6.37h-4.55v12.74Z" style="fill:#fff;"/><line x1="145.34" y1="18.64" x2="145.34" y2="111.49" style="fill:none; stroke:#fff; stroke-width:1.69px;"/><polygon points="108.85 14.29 108.85 12.19 105.58 12.19 105.58 8.83 103.16 8.83 103.16 12.19 99.88 12.19 99.88 14.29 103.16 14.29 103.16 17.65 105.58 17.65 105.58 14.29 108.85 14.29" style="fill:#fff;"/><polygon points="126.8 5.46 126.8 3.37 123.53 3.37 123.53 0 121.1 0 121.1 3.37 117.83 3.37 117.83 5.46 121.1 5.46 121.1 8.83 123.53 8.83 123.53 5.46 126.8 5.46" style="fill:#fff;"/><polygon points="117.83 23.12 117.83 21.02 114.55 21.02 114.55 17.66 112.13 17.66 112.13 21.02 108.85 21.02 108.85 23.12 112.13 23.12 112.13 26.48 114.55 26.48 114.55 23.12 117.83 23.12" style="fill:#fff;"/><line x1="145.26" y1="36.18" x2="145.26" y2="95.63" style="fill:none; stroke:#fff; stroke-width:1.69px;"/></g></g></g></svg>