<svg xmlns="http://www.w3.org/2000/svg" viewBox="0 0 53.32 47.22"><defs><style>.cls-1{fill:none;stroke:#155a7d;stroke-linecap:round;stroke-width:2px}</style></defs><title>rainy</title><g id="Capa_2" data-name="Capa 2"><path class="cls-1" d="M28.77 1.53A13.57 13.57 0 0 0 25 1a13.74 13.74 0 0 0-13 9.7 8.78 8.78 0 0 0-1.93-.21A9.15 9.15 0 0 0 1 19.74 9.16 9.16 0 0 0 10.06 29h33.21a9.16 9.16 0 0 0 9-9.26 9.3 9.3 0 0 0-2.55-6.43m-21-11.78A13.91 13.91 0 0 1 38.4 12a8.83 8.83 0 0 1 4.87-1.46 8.93 8.93 0 0 1 6.5 2.82M11.75 29.43l-7.83 7.82m10.29-.67l-9.15 9.15m23.3-16.58l-8.43 8.44m23.45-8.39l-8.39 8.39m-5.44.6l-8.03 8.03" id="Capa_1-2" data-name="Capa 1"/></g></svg>