<svg xmlns="http://www.w3.org/2000/svg" viewBox="0 0 72.6 55.99"><defs><style>.cls-1{fill:none;stroke:#155a7d;stroke-linecap:round;stroke-width:2px}</style></defs><title>cloudy</title><g id="Capa_2" data-name="Capa 2"><path class="cls-1" d="M29 28.11a13.87 13.87 0 0 0-16.93 9 9 9 0 0 0-2-.21 9.06 9.06 0 1 0 0 18.11h33.6a9.09 9.09 0 0 0 9.14-9.06 9 9 0 0 0-2.58-6.29m-11.48-1.35a9.18 9.18 0 0 1 11.48 1.33 12.25 12.25 0 0 0 3.37-8.44A12.5 12.5 0 0 0 29 28.11a13.78 13.78 0 0 1 9.75 10.2zM19.56 9.85l5.85 5.79m37.26-5.79l-5.85 5.79M71.6 31.2h-8.27M41.12 1v8.19" id="Capa_1-2" data-name="Capa 1"/></g></svg>