<?xml version="1.0" encoding="UTF-8"?>
<svg width="25px" height="37px" viewBox="0 0 25 37" version="1.1" xmlns="http://www.w3.org/2000/svg" xmlns:xlink="http://www.w3.org/1999/xlink">
    <title>marker-icon</title>
    <g id="Page-1" stroke="none" stroke-width="1" fill="none" fill-rule="evenodd">
        <path d="M23.2635542,6.22544396 C21.0570729,2.41762532 17.1379113,0.0912799044 12.7796972,0.00237588869 C12.5936521,-0.00145862956 12.4063998,-0.00145862956 12.2202836,0.00237588869 C7.8621406,0.0912799044 3.9429789,2.41762532 1.73642668,6.22544396 C-0.518980149,10.117622 -0.580687489,14.7928939 1.57132937,18.7318673 L10.5869209,35.2335745 C10.5909684,35.2408885 10.595016,35.2482025 10.5992055,35.2554455 C10.9958651,35.9448777 11.7064582,36.3564493 12.5001324,36.3564493 C13.2937357,36.3564493 14.0043287,35.9448067 14.4009173,35.2554455 C14.4051069,35.2482025 14.4091545,35.2408885 14.413202,35.2335745 L23.4287935,18.7318673 C25.5806683,14.7928939 25.518961,10.117622 23.2635542,6.22544396 Z M12.4999904,16.4737621 C9.6808384,16.4737621 7.38729942,14.1802231 7.38729942,11.3610711 C7.38729942,8.54191904 9.6808384,6.24838006 12.4999904,6.24838006 C15.3191424,6.24838006 17.6126814,8.54191904 17.6126814,11.3610711 C17.6126814,14.1802231 15.3192135,16.4737621 12.4999904,16.4737621 Z" id="marker-icon" fill="#B2173E" fill-rule="nonzero"></path>
    </g>
</svg>